<?xml version="1.0" encoding="UTF-8"?>
<svg version="1.1" xmlns="http://www.w3.org/2000/svg" width="2400" height="2400">
<path d="M0 0 C22.54647365 20.85191613 40.44788507 44.96492223 53.30126953 72.90649414 C53.63755371 73.63416992 53.97383789 74.3618457 54.3203125 75.11157227 C75.93430048 122.50194139 79.02800944 179.25228989 63.30126953 228.90649414 C63.03894531 229.74390137 62.77662109 230.58130859 62.50634766 231.4440918 C55.70986723 252.64581452 45.54768769 272.98023515 32.30126953 290.90649414 C31.88200195 291.47835449 31.46273438 292.05021484 31.03076172 292.6394043 C19.08074971 308.77775636 5.00006524 323.41741289 -10.69873047 335.90649414 C-11.63072266 336.67864258 -12.56271484 337.45079102 -13.52294922 338.24633789 C-28.26794391 350.13870616 -45.24563456 359.59960507 -62.69873047 366.90649414 C-63.41496582 367.20749023 -64.13120117 367.50848633 -64.86914062 367.81860352 C-117.2963152 389.41100297 -177.64324217 388.2388649 -229.94580078 367.07641602 C-248.37132194 359.24605974 -264.94385618 349.23452162 -280.69873047 336.90649414 C-282.03484375 335.86235352 -282.03484375 335.86235352 -283.39794922 334.79711914 C-293.90183143 326.39401337 -304.18946395 317.35770946 -312.69873047 306.90649414 C-313.65879932 305.78075275 -314.61983688 304.65583719 -315.58154297 303.53149414 C-342.16497604 272.08338098 -359.92508106 232.89856613 -364.69873047 191.90649414 C-364.79299316 191.11114258 -364.88725586 190.31579102 -364.984375 189.49633789 C-365.87042627 181.06379267 -365.94203212 172.62615737 -365.94873047 164.15649414 C-365.94974258 162.99981232 -365.94974258 162.99981232 -365.95077515 161.81976318 C-365.88389289 113.46076395 -349.90266216 64.32116023 -318.69873047 26.90649414 C-317.88533203 25.89200195 -317.07193359 24.87750977 -316.23388672 23.83227539 C-280.02116979 -20.8206361 -227.03877806 -49.15922135 -169.88623047 -55.40600586 C-108.03396569 -61.07564018 -46.1571465 -41.94880408 0 0 Z M-168.10498047 33.59008789 C-170.45760915 37.00947222 -171.69873047 39.73664875 -171.69873047 43.90649414 C-172.91866699 43.88554688 -174.13860352 43.86459961 -175.39550781 43.84301758 C-179.96146712 43.77011327 -184.52737595 43.72451245 -189.09375 43.68676758 C-191.06258828 43.66676627 -193.03136803 43.63955612 -195 43.60473633 C-197.84503705 43.55570883 -200.68928262 43.53341032 -203.53466797 43.51586914 C-204.40175385 43.495224 -205.26883972 43.47457886 -206.16220093 43.45330811 C-215.51947735 43.44994303 -223.2151371 46.64504563 -230.00732422 53.03930664 C-236.0070832 59.66259715 -236.69873047 65.08048941 -236.69873047 73.90649414 C-230.42873047 73.90649414 -224.15873047 73.90649414 -217.69873047 73.90649414 C-217.03873047 72.25649414 -216.37873047 70.60649414 -215.69873047 68.90649414 C-209.09468117 62.81044863 -202.68480288 63.72338929 -194.13623047 63.71899414 C-192.87875 63.70674805 -191.62126953 63.69450195 -190.32568359 63.68188477 C-188.5284082 63.67898438 -188.5284082 63.67898438 -186.69482422 63.67602539 C-185.59323975 63.6719165 -184.49165527 63.66780762 -183.35668945 63.66357422 C-180.69873047 63.90649414 -180.69873047 63.90649414 -178.69873047 65.90649414 C-175.92759432 66.21396316 -175.92759432 66.21396316 -172.64428711 66.1652832 C-171.37279312 66.17158752 -170.10129913 66.17789185 -168.79127502 66.18438721 C-167.39714419 66.18080715 -166.00301461 66.17670512 -164.60888672 66.17211914 C-163.18403558 66.17346599 -161.75918489 66.17540668 -160.33433533 66.17791748 C-157.34581127 66.1808688 -154.35740667 66.17657159 -151.36889648 66.16723633 C-147.5375646 66.15585201 -143.70651323 66.16239457 -139.87519169 66.17438126 C-136.9318175 66.18160853 -133.98850979 66.17930778 -131.04513359 66.17412567 C-129.63253178 66.17279104 -128.21992395 66.1744304 -126.80732918 66.17908478 C-124.83241008 66.18416279 -122.85746984 66.17505094 -120.88256836 66.1652832 C-119.75830948 66.16369202 -118.6340506 66.16210083 -117.47572327 66.16046143 C-114.48700934 66.10956996 -114.48700934 66.10956996 -111.69873047 63.90649414 C-107.27637266 63.43480768 -102.83099757 63.53613135 -98.38623047 63.53149414 C-97.16226563 63.50700195 -95.93830078 63.48250977 -94.67724609 63.45727539 C-89.61824324 63.44076967 -85.70925007 63.46957086 -81.03076172 65.49243164 C-74.80874879 71.93330935 -75.2886681 79.00477386 -75.34917068 87.53151321 C-75.36301731 89.66766621 -75.35641068 91.80290158 -75.34432983 93.9390564 C-75.31350855 100.00704252 -75.31827815 106.07480658 -75.33837891 112.14282227 C-75.34930726 115.86642807 -75.33609186 119.589338 -75.30848312 123.31284714 C-75.30305402 124.72658228 -75.30707744 126.14038753 -75.32088089 127.5540657 C-75.33996637 129.53033942 -75.32594456 131.50684841 -75.31054688 133.4831543 C-75.31293365 134.60565582 -75.31532043 135.72815735 -75.31777954 136.88467407 C-74.5028961 140.86243812 -72.78885828 142.36465862 -69.69873047 144.90649414 C-67.46158038 145.71618228 -67.46158038 145.71618228 -65.19873047 145.59399414 C-64.10044922 145.63073242 -64.10044922 145.63073242 -62.97998047 145.66821289 C-60.21605369 144.74532638 -58.58582151 143.42960647 -56.77383423 141.15739441 C-54.2432818 135.85928146 -55.01252448 129.38458848 -55.06982422 123.61352539 C-55.06899435 122.10145395 -55.06653053 120.58938262 -55.06251526 119.07731628 C-55.05966145 115.91064232 -55.07430742 112.74467717 -55.10180664 109.578125 C-55.13574346 105.54784857 -55.12991662 101.51885091 -55.11114407 97.4885149 C-55.10049409 94.36459489 -55.10958605 91.24096437 -55.12452888 88.11707115 C-55.1296627 86.63294018 -55.12928815 85.14877833 -55.12298393 83.66465187 C-55.09141138 71.75809532 -56.29800775 61.53160672 -64.83935547 52.62524414 C-72.38971352 45.64592158 -79.03135306 43.5893163 -89.25341797 43.71118164 C-90.6057402 43.71542648 -90.6057402 43.71542648 -91.98538208 43.71975708 C-94.84830323 43.73089975 -97.7109048 43.75599334 -100.57373047 43.78149414 C-102.5216426 43.79153159 -104.46955966 43.8006561 -106.41748047 43.80883789 C-111.17801917 43.83081971 -115.93832074 43.86530864 -120.69873047 43.90649414 C-121.00343262 42.79806152 -121.30813477 41.68962891 -121.62207031 40.54760742 C-123.79031173 33.21491978 -128.28457813 28.65784944 -134.76904297 24.81665039 C-147.09822871 19.00146764 -159.80923612 23.81538912 -168.10498047 33.59008789 Z M-182.69873047 93.90649414 C-186.33523207 97.89777638 -189.59713602 102.00189145 -192.63623047 106.46899414 C-193.54695313 107.80124023 -193.54695313 107.80124023 -194.47607422 109.16040039 C-195.98428991 112.54786246 -195.67526948 114.37982215 -194.69873047 117.90649414 C-192.33917536 120.26604925 -186.43120221 119.09191819 -183.26123047 119.09399414 C-181.79073242 119.11236328 -181.79073242 119.11236328 -180.29052734 119.13110352 C-178.88577148 119.13400391 -178.88577148 119.13400391 -177.45263672 119.13696289 C-176.15821655 119.14312622 -176.15821655 119.14312622 -174.83764648 119.14941406 C-172.4840312 119.10699214 -172.4840312 119.10699214 -170.69873047 116.90649414 C-169.86956054 111.28291589 -171.9561744 108.15711436 -175.01123047 103.71899414 C-175.41535156 103.1034668 -175.81947266 102.48793945 -176.23583984 101.85375977 C-178.17070847 98.94988377 -180.08371263 96.23377539 -182.69873047 93.90649414 Z M-236.69873047 105.90649414 C-237.86023138 109.30456112 -237.82961424 112.55692406 -237.83917236 116.12869263 C-237.84488251 117.40710526 -237.85059265 118.68551788 -237.85647583 120.00267029 C-237.85772113 121.41738882 -237.85884624 122.83210746 -237.85986328 124.24682617 C-237.86449333 125.73856224 -237.86951825 127.23029713 -237.87490845 128.72203064 C-237.88801942 132.77398844 -237.89447527 136.82592967 -237.89891911 140.87790537 C-237.90185291 143.41209414 -237.90595837 145.94627843 -237.91042328 148.48046494 C-237.92409693 156.41689601 -237.93376332 164.35331677 -237.93762517 172.2897588 C-237.94210089 181.43658581 -237.95962672 190.58326301 -237.98862576 199.73004448 C-238.01028517 206.8087822 -238.02033178 213.88747791 -238.02166629 220.96624839 C-238.02271159 225.18971703 -238.02856019 229.41304482 -238.0464859 233.63647842 C-238.06303963 237.61411671 -238.06508694 241.59150941 -238.05634689 245.56917 C-238.05558031 247.02273151 -238.05986879 248.47630662 -238.06980515 249.92983437 C-238.15635958 263.3894462 -236.42888216 272.73144163 -227.06982422 282.62915039 C-219.86318051 289.43449607 -211.53322137 290.36666384 -201.96826172 290.30493164 C-200.47718147 290.30923691 -200.47718147 290.30923691 -198.95597839 290.31362915 C-196.86932806 290.3156583 -194.78265819 290.3102095 -192.69604492 290.29760742 C-189.50965899 290.28148619 -186.32453149 290.297522 -183.13818359 290.31665039 C-181.10237352 290.31466876 -179.06656422 290.31082673 -177.03076172 290.30493164 C-176.08376907 290.31100433 -175.13677643 290.31707703 -174.16108704 290.32333374 C-168.94613656 290.2680138 -165.16798864 289.90360376 -160.69873047 286.90649414 C-158.25267342 283.23740857 -157.85926645 280.17030645 -158.69873047 275.90649414 C-160.87447463 273.21544216 -162.60938903 271.45116486 -165.69873047 269.90649414 C-167.05577408 269.80926383 -168.41732466 269.77103384 -169.77783203 269.76464844 C-171.03989471 269.75409676 -171.03989471 269.75409676 -172.32745361 269.74333191 C-173.23888123 269.73916763 -174.15030884 269.73500336 -175.08935547 269.73071289 C-177.01514758 269.70750896 -178.94092886 269.68339139 -180.86669922 269.65844727 C-183.90599756 269.623369 -186.94489912 269.59401109 -189.984375 269.58056641 C-192.91569284 269.56505805 -195.84584648 269.52482323 -198.77685547 269.48071289 C-200.1318515 269.48357552 -200.1318515 269.48357552 -201.51422119 269.48649597 C-207.02826284 269.38001654 -210.40164016 268.70477017 -214.69873047 264.90649414 C-216.91289133 261.51303949 -216.95116297 258.65702128 -216.95701599 254.65737915 C-216.96384399 253.37318588 -216.970672 252.08899261 -216.97770691 250.7658844 C-216.97528756 249.34481783 -216.97270329 247.92375154 -216.9699707 246.50268555 C-216.97435839 245.00445778 -216.9796607 243.50623244 -216.98580933 242.00801086 C-216.99730752 238.78265516 -217.00276861 235.55736515 -217.00369072 232.33198929 C-217.00563162 227.23041052 -217.02368605 222.12896755 -217.04444885 217.0274353 C-217.09363569 204.35509975 -217.12451733 191.68272729 -217.14575195 179.01031494 C-217.16227738 169.16360719 -217.18510002 159.31701576 -217.2287727 149.47038591 C-217.25054251 144.40073678 -217.25860751 139.33130864 -217.25637996 134.26161599 C-217.25804837 131.10480797 -217.27210721 127.94814384 -217.28959274 124.79138756 C-217.29518541 123.32971303 -217.29568376 121.86800859 -217.29065514 120.40633202 C-217.28450027 118.4074085 -217.29850989 116.40845349 -217.3134613 114.40957642 C-217.31547263 113.29202784 -217.31748396 112.17447926 -217.31955624 111.02306557 C-217.76050982 107.39870709 -218.79867008 105.01179589 -220.69873047 101.90649414 C-223.87838795 99.78672249 -225.89744742 99.36944921 -229.69482422 99.45336914 C-233.47756459 100.30872564 -234.67428202 102.71645416 -236.69873047 105.90649414 Z M-151.69873047 104.90649414 C-153.12535266 107.75973851 -153.00906915 109.74103963 -152.69873047 112.90649414 C-150.89879272 115.60640076 -149.61495747 117.44838064 -146.69873047 118.90649414 C-145.24487031 119.0160405 -143.78623952 119.06550406 -142.32836914 119.08349609 C-141.42370407 119.09633133 -140.519039 119.10916656 -139.58695984 119.12239075 C-138.60677383 119.12977768 -137.62658783 119.13716461 -136.61669922 119.14477539 C-135.10720451 119.15688301 -135.10720451 119.15688301 -133.56721497 119.16923523 C-131.43455735 119.18308131 -129.30187753 119.19380111 -127.16918945 119.20166016 C-123.90972827 119.21887007 -120.651282 119.26275167 -117.39208984 119.30688477 C-115.32113377 119.31701181 -113.25016906 119.32552788 -111.17919922 119.33227539 C-110.20508591 119.34978348 -109.2309726 119.36729156 -108.2273407 119.3853302 C-103.8588699 119.37134928 -101.39447758 119.33431243 -97.60620117 117.00488281 C-95.31066321 114.47958538 -94.75165454 113.50188995 -94.44873047 110.09399414 C-94.73336981 106.46484258 -95.47658953 104.76353249 -97.69873047 101.90649414 C-100.5679139 100.15249438 -102.75590111 99.64719765 -106.09667969 99.60009766 C-106.9579245 99.58411026 -107.81916931 99.56812286 -108.70651245 99.551651 C-109.62949127 99.5462883 -110.55247009 99.5409256 -111.50341797 99.53540039 C-112.46015411 99.52637192 -113.41689026 99.51734344 -114.40261841 99.50804138 C-116.424956 99.49354622 -118.44734041 99.48465397 -120.46972656 99.48095703 C-123.55598343 99.46906254 -126.64023928 99.41987129 -129.72607422 99.36938477 C-131.6935124 99.35991986 -133.66096284 99.35268515 -135.62841797 99.34790039 C-136.54734833 99.32836807 -137.46627869 99.30883575 -138.41305542 99.28871155 C-144.60581151 99.33209571 -147.42659139 100.35871935 -151.69873047 104.90649414 Z M-183.69873047 149.90649414 C-188.69796678 155.28446047 -195.07235393 162.20867013 -196.07373047 169.71899414 C-195.88064015 172.10956094 -195.88064015 172.10956094 -193.69873047 173.90649414 C-190.40629443 174.35519075 -187.08075304 174.23057656 -183.76123047 174.21899414 C-182.84148437 174.23510742 -181.92173828 174.2512207 -180.97412109 174.26782227 C-180.09046875 174.2684668 -179.20681641 174.26911133 -178.29638672 174.26977539 C-177.48693604 174.27275635 -176.67748535 174.2757373 -175.84350586 174.27880859 C-173.1845845 173.81724285 -172.27902428 173.06718677 -170.69873047 170.90649414 C-170.81786464 165.88183544 -172.80257143 162.76195433 -175.63623047 158.71899414 C-176.34650391 157.69418945 -177.05677734 156.66938477 -177.78857422 155.61352539 C-178.73410156 154.27354492 -178.73410156 154.27354492 -179.69873047 152.90649414 C-180.35873047 151.91649414 -181.01873047 150.92649414 -181.69873047 149.90649414 C-182.35873047 149.90649414 -183.01873047 149.90649414 -183.69873047 149.90649414 Z M-152.69873047 160.90649414 C-153.46905862 162.91537931 -153.46905862 162.91537931 -153.32373047 164.90649414 C-153.33662109 165.54586914 -153.34951172 166.18524414 -153.36279297 166.84399414 C-152.24862085 170.30448168 -150.57431346 171.68737736 -147.69873047 173.90649414 C-144.16688304 174.63274682 -140.69977081 174.55998362 -137.10498047 174.50024414 C-136.08069946 174.50028442 -135.05641846 174.50032471 -134.00109863 174.50036621 C-131.83921155 174.49501358 -129.67732479 174.47744197 -127.515625 174.44848633 C-124.21016855 174.40663895 -120.90675088 174.40741879 -117.60107422 174.41430664 C-115.4981955 174.40381347 -113.39532727 174.39087469 -111.29248047 174.37524414 C-109.81261658 174.37494202 -109.81261658 174.37494202 -108.30285645 174.37463379 C-101.48245226 174.29420298 -101.48245226 174.29420298 -95.69873047 170.90649414 C-94.14881905 167.26757168 -93.41843192 165.02768835 -94.38623047 161.15649414 C-95.69015072 158.92120228 -96.69316038 157.52647785 -98.69873047 155.90649414 C-100.93753189 155.43968987 -100.93753189 155.43968987 -103.45800781 155.48657227 C-104.9049855 155.46270447 -104.9049855 155.46270447 -106.38119507 155.43835449 C-107.42184113 155.43815308 -108.46248718 155.43795166 -109.53466797 155.43774414 C-110.60617096 155.43013062 -111.67767395 155.42251709 -112.78164673 155.41467285 C-115.04955718 155.40386178 -117.31751746 155.40102281 -119.58544922 155.40551758 C-123.05374437 155.40648855 -126.51981817 155.36490414 -129.98779297 155.32055664 C-132.19091335 155.31534874 -134.39404143 155.31266146 -136.59716797 155.31274414 C-137.63376556 155.29634888 -138.67036316 155.27995361 -139.7383728 155.26306152 C-145.76971816 155.32086455 -148.96409138 155.66773508 -152.69873047 160.90649414 Z M-74.69873047 175.90649414 C-75.29056116 178.87257354 -75.49109166 181.02525342 -75.42407227 183.98217773 C-75.42988312 184.78121017 -75.43569397 185.58024261 -75.44168091 186.40348816 C-75.45446166 189.03804534 -75.42578602 191.67051838 -75.39794922 194.30493164 C-75.40158432 196.14190503 -75.40828794 197.97887469 -75.41792297 199.81582642 C-75.43699359 204.64995159 -75.42296333 209.48335868 -75.39941406 214.31744385 C-75.36503431 222.04699797 -75.37087372 229.77637162 -75.39554787 237.50593948 C-75.39791188 240.19987969 -75.38014004 242.89314962 -75.36027527 245.58700562 C-75.36002699 247.24867761 -75.36042542 248.91034987 -75.36157227 250.57202148 C-75.35071091 251.31511063 -75.33984955 252.05819977 -75.32865906 252.82380676 C-75.3571464 257.98598812 -76.35777893 261.40386601 -78.69873047 265.90649414 C-82.89662723 269.70304285 -87.53966842 269.34716791 -92.90966797 269.34790039 C-94.23921005 269.36771217 -94.23921005 269.36771217 -95.59561157 269.38792419 C-98.42168309 269.42871577 -101.24743184 269.45045077 -104.07373047 269.46899414 C-106.89278764 269.49286402 -109.71154454 269.52113974 -112.53042603 269.56077576 C-114.28111333 269.58492132 -116.03195821 269.59995124 -117.7828064 269.60438538 C-123.37046639 269.67516441 -129.22970684 269.75605421 -133.63623047 273.59399414 C-135.19010591 276.97595834 -135.20703889 279.22125806 -134.69873047 282.90649414 C-132.90849262 285.87696287 -130.84868219 288.33151828 -127.69873047 289.90649414 C-126.27666361 290.01590659 -124.84973997 290.06548686 -123.42358398 290.08349609 C-122.0956356 290.10274895 -122.0956356 290.10274895 -120.74085999 290.12239075 C-119.29881447 290.13347115 -119.29881447 290.13347115 -117.82763672 290.14477539 C-116.33948708 290.15688301 -116.33948708 290.15688301 -114.8212738 290.16923523 C-112.71379345 290.18308888 -110.60629054 290.19380528 -108.4987793 290.20166016 C-105.30521592 290.21875864 -102.11271893 290.26261945 -98.91943359 290.30688477 C-96.86800889 290.31702192 -94.8165754 290.32553481 -92.76513672 290.33227539 C-91.82199112 290.34978348 -90.87884552 290.36729156 -89.90711975 290.3853302 C-79.68356294 290.35259435 -71.04799262 287.29041932 -63.64404297 280.19165039 C-57.10510117 272.51036334 -55.55205598 264.53229431 -55.53759766 254.70727539 C-55.53263275 253.89527679 -55.52766785 253.0832782 -55.52255249 252.24667358 C-55.50799221 249.57077172 -55.50114063 246.89492905 -55.49560547 244.21899414 C-55.48985083 242.3548177 -55.48409313 240.49064127 -55.47833252 238.62646484 C-55.4678413 234.72273483 -55.46198573 230.81902532 -55.45849609 226.9152832 C-55.4530024 221.91500679 -55.42894783 216.91500144 -55.40052414 211.91481018 C-55.38190009 208.06635748 -55.37669238 204.21797028 -55.37516022 200.36947632 C-55.37213478 198.52589428 -55.36410991 196.68231336 -55.35097504 194.83877563 C-55.33391251 192.26087744 -55.33579469 189.6836447 -55.34228516 187.10571289 C-55.33307037 186.34608246 -55.32385559 185.58645203 -55.31436157 184.80380249 C-55.35820991 179.2417237 -56.603069 176.00215561 -60.51123047 172.09399414 C-66.1802398 169.01653193 -70.85816734 171.10962865 -74.69873047 175.90649414 Z M-183.69873047 203.90649414 C-192.012847 212.29152148 -192.012847 212.29152148 -195.78076172 223.03149414 C-195.5281539 225.15788745 -195.5281539 225.15788745 -194.69873047 227.90649414 C-190.87470085 229.18117068 -187.24654391 229.12972461 -183.26123047 229.15649414 C-182.11557617 229.18743164 -182.11557617 229.18743164 -180.94677734 229.21899414 C-176.32982169 229.25129653 -176.32982169 229.25129653 -172.16357422 227.39086914 C-171.68017578 226.90102539 -171.19677734 226.41118164 -170.69873047 225.90649414 C-171.08367432 219.79452848 -172.96933324 216.35554688 -176.63623047 211.53149414 C-177.09191406 210.9037207 -177.54759766 210.27594727 -178.01708984 209.62915039 C-180.39647643 206.25645625 -180.39647643 206.25645625 -183.69873047 203.90649414 Z M-150.69873047 211.90649414 C-153.08572331 215.05298471 -153.17124413 218.04763261 -152.69873047 221.90649414 C-150.89879272 224.60640076 -149.61495747 226.44838064 -146.69873047 227.90649414 C-145.28081712 228.01583386 -143.85804386 228.0654772 -142.43603516 228.08349609 C-141.55461853 228.09633133 -140.6732019 228.10916656 -139.76507568 228.12239075 C-138.33231293 228.13347115 -138.33231293 228.13347115 -136.87060547 228.14477539 C-135.88884338 228.15284714 -134.9070813 228.16091888 -133.89556885 228.16923523 C-131.81418629 228.18308206 -129.73278097 228.19380153 -127.65136719 228.20166016 C-124.47530748 228.21885029 -121.30029473 228.2627287 -118.12451172 228.30688477 C-116.10238396 228.31701364 -114.08024734 228.32552913 -112.05810547 228.33227539 C-110.6374881 228.35853752 -110.6374881 228.35853752 -109.18817139 228.3853302 C-103.3835971 228.36633558 -100.12894717 227.75583831 -95.69873047 223.90649414 C-94.14848583 220.80600486 -94.40881031 218.32755196 -94.69873047 214.90649414 C-96.49435452 212.15320393 -97.75127969 210.38021953 -100.69873047 208.90649414 C-102.086162 208.80232473 -103.4783486 208.75787543 -104.86962891 208.74536133 C-105.73102478 208.73575378 -106.59242065 208.72614624 -107.47991943 208.71624756 C-108.41322083 208.71199768 -109.34652222 208.7077478 -110.30810547 208.70336914 C-111.26767151 208.69766907 -112.22723755 208.69196899 -113.21588135 208.68609619 C-115.25019221 208.67663812 -117.28451845 208.67010902 -119.31884766 208.66625977 C-122.42231264 208.65657657 -125.52510914 208.62556994 -128.62841797 208.59399414 C-130.60497654 208.58746185 -132.58153984 208.58221227 -134.55810547 208.57836914 C-135.48330994 208.56602234 -136.4085144 208.55367554 -137.36175537 208.54095459 C-142.56537876 208.55882245 -146.19978958 208.98424301 -150.69873047 211.90649414 Z " fill="#000000" transform="translate(1346.69873046875,851.093505859375)"/>
<path d="M0 0 C3.55149733 1.01471352 4.94283094 1.85854788 7.0625 4.875 C7.6875 7.8125 7.6875 7.8125 7.0625 10.875 C4.4375 13.8125 4.4375 13.8125 1.0625 15.875 C-2.2412864 15.875 -4.03672916 15.49622127 -6.75 13.625 C-8.33780416 11.28507808 -8.80253924 9.70917605 -8.9375 6.875 C-6.94685459 2.59511237 -5.0608988 -0.2153574 0 0 Z " fill="#000000" transform="translate(1200.9375,887.125)"/>
<path d="M0 0 C10.23 0 20.46 0 31 0 C31.33 33.33 31.66 66.66 32 101 C35.96 96.05 35.96 96.05 40 91 C41.86177447 88.75638707 43.72737789 86.52480828 45.625 84.3125 C46.11790527 83.73653076 46.61081055 83.16056152 47.11865234 82.56713867 C51.75042302 77.20232866 56.57391264 72.02350698 61.45556641 66.88598633 C62.01937012 66.29068115 62.58317383 65.69537598 63.1640625 65.08203125 C63.66373535 64.55843018 64.1634082 64.0348291 64.67822266 63.49536133 C66.21346988 61.82652045 66.21346988 61.82652045 68 59 C70.90834885 58.73339817 73.60138268 58.65220876 76.5078125 58.70703125 C77.34843231 58.71127609 78.18905212 58.71552094 79.05514526 58.71989441 C81.74541993 58.73671468 84.43495099 58.77437219 87.125 58.8125 C88.94660378 58.82754255 90.76821928 58.8412317 92.58984375 58.85351562 C97.06018324 58.88662906 101.52996546 58.93843363 106 59 C105.03975225 60.12704093 104.07855029 61.25326891 103.11694336 62.37915039 C102.58177597 63.00640518 102.04660858 63.63365997 101.495224 64.27992249 C99.92498244 66.08629879 98.28882721 67.78005368 96.5625 69.4375 C94.10780666 71.84912855 91.80531625 74.32767746 89.5625 76.9375 C87.14382221 79.74576347 84.64100317 82.39970593 82 85 C78.77724832 88.17936849 75.7613173 91.4722746 72.80859375 94.90234375 C70.75019642 97.28972899 68.65877914 99.64583063 66.5625 102 C65.88316406 102.763125 65.20382812 103.52625 64.50390625 104.3125 C64.00761719 104.869375 63.51132813 105.42625 63 106 C66.55963993 111.58216262 70.37271165 116.82397432 74.55078125 121.95703125 C77.64894216 125.80626147 80.66526718 129.71605859 83.6875 133.625 C88.37153737 139.67858717 93.13878539 145.65044039 98 151.5625 C102.33449672 156.84012119 106.4435153 162.15372378 110 168 C107.2376779 170.7623221 98.27490387 169.548151 94.41040039 169.62475586 C92.77370306 169.66628328 91.1373766 169.72752622 89.50219727 169.80932617 C76.01049939 170.47316643 76.01049939 170.47316643 71.32714844 167.04150391 C69.25195086 164.46867733 67.62601149 161.87456057 66 159 C64.90237224 157.48562844 63.78572207 155.98482043 62.6484375 154.5 C61.55587984 153.00102802 60.46476661 151.50100232 59.375 150 C53.00242724 141.2829821 46.42760728 132.73931705 39.74414062 124.2590332 C37.12572578 120.86762888 34.57075457 117.42767276 32 114 C31.67 132.15 31.34 150.3 31 169 C21.1 169 11.2 169 1 169 C0.82326418 156.95846226 0.65670559 144.91681551 0.5 132.875 C0.48812275 131.96280575 0.4762455 131.0506115 0.46400833 130.11077499 C0.06699216 99.34407585 -0.09021373 68.58167206 -0.0625 37.8125 C-0.06164398 36.85517723 -0.06078796 35.89785446 -0.05990601 34.91152191 C-0.04870962 23.27432505 -0.02807676 11.63716775 0 0 Z " fill="#000000" transform="translate(1212,1296)"/>
<path d="M0 0 C4.10488479 2.82780952 7.56757505 6.44765011 9.8125 10.9375 C10.36924965 16.89043853 10.35391118 21.91098091 6.8125 26.9375 C2.20968768 31.56207502 -1.31638276 34.05493283 -8 34.25 C-12.87374531 34.18624461 -15.45678063 33.23441479 -19.1875 29.9375 C-23.9331038 24.99846127 -25.5569174 21.0630248 -25.46875 14.28515625 C-24.87175031 9.30186715 -22.34790931 6.01087861 -18.6875 2.625 C-12.51850307 -1.53907293 -7.15915005 -2.38638335 0 0 Z " fill="#000000" transform="translate(1360.1875,1303.0625)"/>
<path d="M0 0 C41.58 0 83.16 0 126 0 C126 9.24 126 18.48 126 28 C110.49 28 94.98 28 79 28 C79.00523682 31.99343506 79.01047363 35.98687012 79.01586914 40.10131836 C79.03240134 53.26093522 79.04352056 66.42055192 79.05181217 79.58017635 C79.05697522 87.562815 79.06401809 95.54544383 79.07543945 103.52807617 C79.08538602 110.48323799 79.09185336 117.43839269 79.09408849 124.39356142 C79.09539565 128.07851927 79.09848179 131.76345678 79.10573006 135.44840813 C79.1137434 139.55537708 79.11399116 143.66231037 79.11352539 147.76928711 C79.11712067 148.99998932 79.12071594 150.23069153 79.12442017 151.49868774 C79.1230455 152.61073074 79.12167084 153.72277374 79.12025452 154.86851501 C79.12117631 155.84100661 79.1220981 156.81349821 79.12304783 157.81545925 C79 160 79 160 78 161 C67.77 161 57.54 161 47 161 C47 117.11 47 73.22 47 28 C31.49 28.33 15.98 28.66 0 29 C0 19.43 0 9.86 0 0 Z " fill="#000000" transform="translate(747,1304)"/>
<path d="M0 0 C-0.4433256 4.48078692 -0.90715277 8.95921234 -1.375 13.4375 C-1.56449219 15.3565918 -1.56449219 15.3565918 -1.7578125 17.31445312 C-1.88671875 18.52939453 -2.015625 19.74433594 -2.1484375 20.99609375 C-2.26364746 22.12200928 -2.37885742 23.2479248 -2.49755859 24.40795898 C-2.74626709 25.69101929 -2.74626709 25.69101929 -3 27 C-5.85618374 28.42809187 -7.62415542 27.30967705 -10.52148438 26.359375 C-11.23626953 26.11703125 -11.95105469 25.8746875 -12.6875 25.625 C-23.93807686 21.82962468 -35.48864705 20.24629795 -47 24 C-49.8334743 25.51462733 -49.8334743 25.51462733 -52 27 C-52.66 27 -53.32 27 -54 27 C-56.98199248 32.32498657 -58.69968092 37.77911506 -57.65234375 43.91015625 C-54.96105643 52.53194495 -47.2244316 59.73078832 -41 66 C-40.01 66.495 -40.01 66.495 -39 67 C-37.35 61.06 -35.7 55.12 -34 49 C-26.47992821 49.3712193 -18.95996918 49.74459464 -11.44018745 50.12164211 C-7.94749341 50.29668461 -4.45475953 50.4708257 -0.96191406 50.64282227 C3.06459471 50.84113908 7.09089021 51.0435284 11.1171875 51.24609375 C12.97559769 51.33678383 12.97559769 51.33678383 14.87155151 51.42930603 C21.6062066 51.77153432 28.29877463 52.24193494 35 53 C34.86188078 57.31278385 34.71321891 61.62513953 34.5625 65.9375 C34.52318359 67.16919922 34.48386719 68.40089844 34.44335938 69.66992188 C34.40146484 70.83974609 34.35957031 72.00957031 34.31640625 73.21484375 C34.27974854 74.29886475 34.24309082 75.38288574 34.20532227 76.49975586 C34 79 34 79 33 80 C31.14712498 80.07226502 29.29166122 80.0838122 27.4375 80.0625 C26.42558594 80.05347656 25.41367188 80.04445313 24.37109375 80.03515625 C23.58863281 80.02355469 22.80617188 80.01195312 22 80 C22.02320313 80.55945312 22.04640625 81.11890625 22.0703125 81.6953125 C22.3316923 93.30804354 20.64265184 103.64998137 15.828125 114.2578125 C14.77000552 116.88613612 14.77000552 116.88613612 15.5703125 119.09765625 C17.36983589 121.49210404 19.36596275 123.34371057 21.625 125.3125 C22.51445313 126.09496094 23.40390625 126.87742187 24.3203125 127.68359375 C26.00077246 129.13623626 27.68282075 130.58704556 29.3671875 132.03515625 C30.07101562 132.64230469 30.77484375 133.24945312 31.5 133.875 C32.1290625 134.40867187 32.758125 134.94234375 33.40625 135.4921875 C35 137 35 137 37 140 C36.34773438 140.64066406 35.69546875 141.28132813 35.0234375 141.94140625 C30.116741 146.79744364 25.39695434 151.67737106 21 157 C16.39491524 156.50035247 14.04146985 154.73056424 10.5625 151.75 C9.60859375 150.94175781 8.6546875 150.13351562 7.671875 149.30078125 C6.79015625 148.54152344 5.9084375 147.78226563 5 147 C3.77292325 145.97665546 2.54427683 144.95518228 1.3125 143.9375 C0.549375 143.298125 -0.21375 142.65875 -1 142 C-1.70125 142.45890625 -2.4025 142.9178125 -3.125 143.390625 C-6.06468488 145.29183424 -9.02501944 147.15455751 -12 149 C-12.98226563 149.61875 -12.98226563 149.61875 -13.984375 150.25 C-28.5415833 158.49479054 -47.49159608 157.26567458 -63 153 C-74.76817574 148.84364984 -83.63194981 140.14902732 -89 129 C-93.14794112 119.19577552 -91.64185099 107.78709101 -88.2734375 97.98046875 C-86.38106767 93.55139458 -83.93930372 89.79726264 -81 86 C-80.29875 85.05125 -79.5975 84.1025 -78.875 83.125 C-77.06344716 81.07190678 -75.26047368 79.53389285 -73 78 C-74.38919483 74.01143545 -76.27892084 71.12862376 -78.875 67.8125 C-86.442624 57.63535048 -88.82897016 47.55512985 -88 35 C-85.96607444 22.29997664 -81.09234724 12.1551165 -71 4 C-51.28798634 -9.00879287 -21.17744032 -10.98984072 0 0 Z M-26 80 C-22.90550412 85.14186437 -19.19907418 88.87806751 -14.75 92.875 C-14.1003125 93.46796875 -13.450625 94.0609375 -12.78125 94.671875 C-11.19267601 96.1202807 -9.59705068 97.56094631 -8 99 C-5.44085276 96.44085276 -5.43065115 94.79558351 -4.875 91.25 C-4.70742187 90.22390625 -4.53984375 89.1978125 -4.3671875 88.140625 C-4.00710522 85.06077228 -3.93508187 82.09752203 -4 79 C-6.54173977 78.97283176 -9.08318415 78.95308031 -11.625 78.9375 C-12.33785156 78.92912109 -13.05070312 78.92074219 -13.78515625 78.91210938 C-17.97344438 78.89289704 -21.8728462 79.1732673 -26 80 Z M-57 100 C-60.68930931 105.21592005 -60.94933715 110.82930851 -60 117 C-57.71913897 122.39023995 -54.36732491 124.77926123 -49 127 C-39.97600977 128.19959631 -32.21589059 126.7558357 -24 123 C-29.09235835 116.85375955 -34.61023792 111.2063253 -40.25 105.5625 C-41.16007812 104.64017578 -42.07015625 103.71785156 -43.0078125 102.76757812 C-43.87664062 101.89681641 -44.74546875 101.02605469 -45.640625 100.12890625 C-46.42985352 99.33556885 -47.21908203 98.54223145 -48.03222656 97.72485352 C-51.83033752 94.39561606 -53.74540923 96.98355001 -57 100 Z " fill="#000000" transform="translate(1615,1311)"/>
<path d="M0 0 C8.34241106 7.69583478 13.29329167 17.77784606 13.99441528 29.10400391 C14.00010585 30.46776894 13.99514271 31.83160937 13.98095703 33.1953125 C13.98124908 33.94750565 13.98154114 34.69969879 13.98184204 35.47468567 C13.98046209 37.93116279 13.96496477 40.38732666 13.94921875 42.84375 C13.94548386 44.55867345 13.94263914 46.27359904 13.94064331 47.98852539 C13.93304434 52.47985837 13.91342834 56.9710599 13.89123535 61.46234131 C13.87069603 66.05430321 13.86162437 70.64628655 13.8515625 75.23828125 C13.8301786 84.23182826 13.79608826 93.22527816 13.75390625 102.21875 C9.78459636 102.24340881 5.81531591 102.26159023 1.84594727 102.27368164 C0.49470239 102.27872057 -0.85653701 102.28555177 -2.20776367 102.29418945 C-4.14629809 102.30627419 -6.08487175 102.31144828 -8.0234375 102.31640625 C-9.77515259 102.32426147 -9.77515259 102.32426147 -11.56225586 102.33227539 C-14.24609375 102.21875 -14.24609375 102.21875 -15.24609375 101.21875 C-15.48037153 99.20280418 -15.65945499 97.180276 -15.80859375 95.15625 C-15.93427734 93.49916016 -15.93427734 93.49916016 -16.0625 91.80859375 C-16.12308594 90.95394531 -16.18367188 90.09929687 -16.24609375 89.21875 C-16.71917969 89.73824219 -17.19226562 90.25773437 -17.6796875 90.79296875 C-26.78466061 100.39489945 -35.62576662 104.09235311 -48.68969727 104.55371094 C-59.89090773 104.74303367 -68.91012315 103.40483572 -77.74609375 95.96875 C-81.70835847 92.08903246 -84.44483379 88.46544327 -86.24609375 83.21875 C-86.4678125 82.58324219 -86.68953125 81.94773437 -86.91796875 81.29296875 C-89.91415096 71.19097603 -88.43653972 61.35422302 -83.62109375 52.09375 C-73.93691699 40.37079918 -62.74388486 36.26318158 -47.97167969 34.453125 C-24.57790805 32.44147857 -24.57790805 32.44147857 -16.24609375 35.21875 C-17.06550301 25.74469996 -17.06550301 25.74469996 -22.24609375 18.21875 C-28.17780767 13.9600836 -36.16920902 13.51297247 -43.24462891 14.49658203 C-51.10241644 15.96045251 -58.36971551 18.26292415 -65.23046875 22.4609375 C-67.24609375 23.21875 -67.24609375 23.21875 -69.2109375 22.50634766 C-71.55510623 21.02324475 -72.44392198 19.764534 -73.82421875 17.375 C-74.2625 16.62347656 -74.70078125 15.87195312 -75.15234375 15.09765625 C-75.59578125 14.31261719 -76.03921875 13.52757812 -76.49609375 12.71875 C-77.18445313 11.54119141 -77.18445313 11.54119141 -77.88671875 10.33984375 C-81.24609375 4.5109282 -81.24609375 4.5109282 -81.24609375 2.21875 C-56.25129546 -10.385726 -24.3237295 -19.28977505 0 0 Z M-56.05859375 62.03125 C-57.75040368 65.14774198 -58.12208023 67.68436478 -58.24609375 71.21875 C-56.09627591 76.35442594 -52.41036088 79.27776429 -47.37109375 81.46875 C-40.27724874 83.1712728 -33.85364065 82.15084894 -27.24609375 79.21875 C-22.26869351 75.88927281 -18.00840029 72.0563904 -16.24609375 66.21875 C-16.02451989 62.20465612 -16.07068054 58.23376356 -16.24609375 54.21875 C-37.77578418 52.8942004 -37.77578418 52.8942004 -56.05859375 62.03125 Z " fill="#000000" transform="translate(1060.24609375,1362.78125)"/>
<path d="M0 0 C1 1 1 1 1.11352539 3.77563477 C1.10567017 5.59019165 1.10567017 5.59019165 1.09765625 7.44140625 C1.09282227 9.39916992 1.09282227 9.39916992 1.08789062 11.39648438 C1.07953401 12.7851569 1.07106905 14.17382877 1.0625 15.5625 C1.05748666 16.95507656 1.05292347 18.34765481 1.04882812 19.74023438 C1.03699434 23.1601987 1.0205088 26.58007844 1 30 C0.05318359 29.91911133 -0.89363281 29.83822266 -1.86914062 29.75488281 C-3.11888672 29.65530273 -4.36863281 29.55572266 -5.65625 29.453125 C-6.89181641 29.35161133 -8.12738281 29.25009766 -9.40039062 29.14550781 C-16.32705479 28.86550972 -23.17240172 30.11493448 -29 34 C-34.31939282 39.0719792 -37.60514257 43.58560213 -38.2784729 51.11325073 C-38.29179657 52.2191153 -38.30512024 53.32497986 -38.31884766 54.46435547 C-38.33871735 55.72520966 -38.35858704 56.98606384 -38.37905884 58.28512573 C-38.39093243 59.64581121 -38.40259545 61.00649854 -38.4140625 62.3671875 C-38.43279034 63.77109902 -38.45236495 65.17499947 -38.4727478 66.57888794 C-38.5239046 70.25799005 -38.5636178 73.93712858 -38.60089111 77.61639404 C-38.64103447 81.37716562 -38.69207947 85.13778783 -38.7421875 88.8984375 C-38.83875172 96.26552223 -38.92321824 103.63267971 -39 111 C-41.81824192 112.40912096 -44.17251282 112.11183553 -47.3203125 112.09765625 C-48.57714844 112.09443359 -49.83398438 112.09121094 -51.12890625 112.08789062 C-52.44761719 112.07951172 -53.76632812 112.07113281 -55.125 112.0625 C-56.46484211 112.05748489 -57.804686 112.05292201 -59.14453125 112.04882812 C-62.42973206 112.03701086 -65.71484397 112.02053617 -69 112 C-70.1626043 109.67479139 -70.12572785 108.33760705 -70.12698364 105.7487793 C-70.12980347 104.85701996 -70.13262329 103.96526062 -70.13552856 103.04647827 C-70.13350433 102.06563263 -70.1314801 101.08478699 -70.12939453 100.07421875 C-70.13202301 98.52778183 -70.13202301 98.52778183 -70.13470459 96.95010376 C-70.13911962 93.52921891 -70.13618632 90.10838541 -70.1328125 86.6875 C-70.13348564 84.31860341 -70.13445575 81.9497069 -70.13571167 79.58081055 C-70.13718817 74.61083317 -70.13503561 69.64087373 -70.13037109 64.67089844 C-70.12467384 58.2881477 -70.1279531 51.90543901 -70.13394356 45.52268982 C-70.13755045 40.62951336 -70.13640999 35.73634692 -70.13381577 30.84317017 C-70.13314685 28.48914586 -70.13397368 26.13512066 -70.13629532 23.78109741 C-70.13882392 20.49596735 -70.13497826 17.21090616 -70.12939453 13.92578125 C-70.13141876 12.94493561 -70.13344299 11.96408997 -70.13552856 10.95352173 C-70.13270874 10.06176239 -70.12988892 9.17000305 -70.12698364 8.2512207 C-70.12660662 7.47398148 -70.12622959 6.69674225 -70.12584114 5.89595032 C-70 4 -70 4 -69 2 C-59.43 2 -49.86 2 -40 2 C-40 8.27 -40 14.54 -40 21 C-38.7625 18.7415625 -38.7625 18.7415625 -37.5 16.4375 C-31.51977702 6.55895409 -23.97224548 2.15914982 -13 -0.8125 C-8.62758846 -1.08577572 -4.31937279 -0.73209708 0 0 Z " fill="#000000" transform="translate(959,1353)"/>
<path d="M0 0 C1.00514648 0.00757324 2.01029297 0.01514648 3.04589844 0.02294922 C17.65599521 0.34609795 30.77825031 5.4702165 41.625 15.4375 C40.820625 16.365625 40.01625 17.29375 39.1875 18.25 C35.60769134 22.40802003 32.19043106 26.69215151 28.7734375 30.984375 C26.85020531 33.18035648 25.02954676 34.80545469 22.625 36.4375 C22.04492188 36.02757812 21.46484375 35.61765625 20.8671875 35.1953125 C12.45788919 29.39483941 5.91093559 27.41279772 -4.375 28.4375 C-12.52555365 30.36819852 -18.27353424 34.4585891 -22.69140625 41.55078125 C-26.89728563 50.27028727 -27.02397196 61.82797397 -23.875 70.9375 C-20.85449597 77.26668336 -16.11689059 81.64687757 -10.3125 85.4375 C-3.54718521 87.79605011 4.98595961 87.63824531 11.71484375 85.41796875 C15.5863836 83.53620709 18.68959884 81.60513226 21.625 78.4375 C26.0193466 80.06425331 28.59373498 83.40607842 31.625 86.8125 C32.66593595 87.96680521 33.70758722 89.12046579 34.75 90.2734375 C35.23984375 90.81709961 35.7296875 91.36076172 36.234375 91.92089844 C37.97445388 93.81861087 39.78258349 95.63937235 41.625 97.4375 C39.75977165 103.03318506 33.53750626 105.58340306 28.625 108.4375 C25.0282404 110.10464668 21.43709072 111.35967673 17.625 112.4375 C16.861875 112.66179687 16.09875 112.88609375 15.3125 113.1171875 C0.24733519 116.83258288 -17.7175111 115.32324877 -31.1875 107.375 C-43.63975442 98.53128177 -53.58198004 86.82998243 -57.02856445 71.6315918 C-57.70784792 67.32946316 -57.71372011 63.03442013 -57.6875 58.6875 C-57.68186035 57.71321045 -57.6762207 56.7389209 -57.67041016 55.73510742 C-57.36260553 37.46949334 -50.33037354 25.39287354 -37.59375 12.65625 C-27.2939755 3.13381697 -13.69623382 -0.1458031 0 0 Z " fill="#000000" transform="translate(1153.375,1352.5625)"/>
<path d="M0 0 C0.87624023 0.00757324 1.75248047 0.01514648 2.65527344 0.02294922 C14.16627302 0.31531239 22.55574307 4.0968715 30.80859375 12.0625 C38.12512561 19.94464903 40.24047943 28.82153158 40.34619141 39.33300781 C40.36345024 40.50212204 40.36345024 40.50212204 40.38105774 41.69485474 C40.41761625 44.26007215 40.44733498 46.82531435 40.4765625 49.390625 C40.49968558 51.1747064 40.52307598 52.95878435 40.54672241 54.74285889 C40.59509287 58.47502623 40.64004236 62.20721531 40.68261719 65.93945312 C40.73761137 70.73384377 40.80142037 75.52807021 40.86779213 80.32231522 C40.91773294 84.00242002 40.96291022 87.68257136 41.00663376 91.36275482 C41.0282549 93.13149677 41.05141041 94.90022063 41.0760994 96.66892242 C41.10980151 99.13244373 41.13707718 101.59595256 41.16259766 104.05957031 C41.17397263 104.79617889 41.1853476 105.53278748 41.19706726 106.29171753 C41.21144851 108.00708628 41.17386649 109.72276712 41.125 111.4375 C40.125 112.4375 40.125 112.4375 37.25756836 112.55102539 C36.00596924 112.54578857 34.75437012 112.54055176 33.46484375 112.53515625 C32.46814415 112.53303383 32.46814415 112.53303383 31.4513092 112.53086853 C29.32166101 112.52525518 27.19211661 112.51270054 25.0625 112.5 C23.62174631 112.49498671 22.18099097 112.49042351 20.74023438 112.48632812 C17.20178898 112.47528145 13.66340461 112.45800792 10.125 112.4375 C10.11913376 111.57829956 10.11326752 110.71909912 10.10722351 109.8338623 C10.04917517 101.71286203 9.97702926 93.59213324 9.88928509 85.4713974 C9.84467214 81.2970322 9.80539641 77.12276255 9.77856445 72.94824219 C9.75244038 68.91504781 9.71197471 64.88222294 9.66181374 60.84925842 C9.64520628 59.3152376 9.63365404 57.78115296 9.62738609 56.24705505 C9.7477465 43.6617786 9.7477465 43.6617786 4.65234375 32.4140625 C-0.08986265 28.38260448 -4.64267714 26.73101599 -10.875 26.4375 C-17.74511042 27.04547437 -23.11888888 30.26457077 -27.625 35.375 C-31.30850503 40.38865962 -32.12588231 44.14293683 -32.19384766 50.33911133 C-32.20389328 51.01283783 -32.2139389 51.68656433 -32.22428894 52.38070679 C-32.25502434 54.5936401 -32.27212879 56.80645296 -32.2890625 59.01953125 C-32.30778195 60.55939259 -32.32735595 62.09924376 -32.3477478 63.63908386 C-32.39899306 67.68152865 -32.43865931 71.72400666 -32.47589111 75.76660156 C-32.51597859 79.89591643 -32.56704925 84.02509398 -32.6171875 88.15429688 C-32.71385666 96.24860398 -32.79829008 104.34297925 -32.875 112.4375 C-37.12914623 112.46215622 -41.38325498 112.48033899 -45.63745117 112.49243164 C-47.08570073 112.49747101 -48.53394517 112.50430253 -49.98217773 112.51293945 C-52.05974588 112.52502247 -54.13724697 112.53073211 -56.21484375 112.53515625 C-57.46644287 112.54039307 -58.71804199 112.54562988 -60.00756836 112.55102539 C-62.875 112.4375 -62.875 112.4375 -63.875 111.4375 C-63.97050698 110.02071089 -63.99688483 108.59918759 -63.99525452 107.17918396 C-63.99662918 106.2606665 -63.99800385 105.34214905 -63.99942017 104.39579773 C-63.99582489 103.38016251 -63.99222961 102.36452728 -63.98852539 101.31811523 C-63.98867142 100.25483002 -63.98881744 99.1915448 -63.9889679 98.09603882 C-63.98826825 94.56270342 -63.98047343 91.02942 -63.97265625 87.49609375 C-63.97079225 85.05371632 -63.96936827 82.61133851 -63.96836853 80.16896057 C-63.96454189 73.72615536 -63.95471037 67.28337252 -63.94366455 60.84057617 C-63.93345356 54.27197574 -63.92887158 47.7033717 -63.92382812 41.13476562 C-63.91308823 28.23566565 -63.89549025 15.33658818 -63.875 2.4375 C-54.305 2.4375 -44.735 2.4375 -34.875 2.4375 C-34.545 7.3875 -34.215 12.3375 -33.875 17.4375 C-32.885 16.24125 -31.895 15.045 -30.875 13.8125 C-22.17249969 3.93918137 -13.1702771 -0.16011722 0 0 Z " fill="#000000" transform="translate(1461.875,1352.5625)"/>
<path d="M0 0 C9.57 0 19.14 0 29 0 C29 36.3 29 72.6 29 110 C19.43 110 9.86 110 0 110 C-1.55071822 108.44928178 -1.12594762 106.98962294 -1.12698364 104.83106995 C-1.12980347 103.93227112 -1.13262329 103.03347229 -1.13552856 102.10743713 C-1.13350433 101.11364548 -1.1314801 100.11985382 -1.12939453 99.09594727 C-1.13114685 98.05538177 -1.13289917 97.01481628 -1.13470459 95.94271851 C-1.13912578 92.48393106 -1.13618396 89.02519426 -1.1328125 85.56640625 C-1.13348551 83.17366018 -1.13445552 80.78091417 -1.13571167 78.38816833 C-1.13718905 73.36513622 -1.135033 68.34212185 -1.13037109 63.3190918 C-1.12467686 56.86793128 -1.12795064 50.4168124 -1.13394356 43.96565342 C-1.13755071 39.02186263 -1.13640981 34.07808177 -1.13381577 29.1342907 C-1.13314677 26.75514661 -1.13397398 24.37600164 -1.13629532 21.9968586 C-1.13882402 18.67569708 -1.13497798 15.35460369 -1.12939453 12.03344727 C-1.13141876 11.04167984 -1.13344299 10.04991241 -1.13552856 9.02809143 C-1.13270874 8.12647278 -1.12988892 7.22485413 -1.12698364 6.2959137 C-1.12660662 5.51000131 -1.12622959 4.72408892 -1.12584114 3.914361 C-1 2 -1 2 0 0 Z " fill="#000000" transform="translate(1338,1355)"/>
<path d="M0 0 C2.5 2 2.5 2 4.5 5 C2.52 6.98 0.54 8.96 -1.5 11 C-4.3366585 9.88252847 -7.07189497 8.71944775 -9.8125 7.375 C-15.68286599 5.18604997 -20.1247156 5.12011602 -25.75 7.6875 C-30.97161162 10.59522098 -33.59076192 14.40172564 -35.5 20 C-36.37901949 27.41033874 -35.98743942 33.86864713 -31.5 40 C-28.00415694 43.90711872 -24.17000445 45.02573805 -19.1328125 45.8828125 C-13.87761512 46.11672336 -9.34546101 44.39656509 -5.1875 41.25 C-3.5 40 -3.5 40 -1.5 40.0625 C1.05689522 41.26104463 2.61996267 42.9185301 4.5 45 C2.44998367 49.8909019 -0.92917365 51.63087206 -5.5 54 C-14.51553593 57.57219348 -23.30091757 56.73994301 -32.12890625 53.12109375 C-39.31898041 49.72150349 -43.69925616 43.43166111 -46.65234375 36.1640625 C-49.20073544 26.65163269 -48.35870359 16.57133424 -43.5 8 C-39.2433809 1.08299396 -31.65756957 -2.72774872 -23.85546875 -4.65234375 C-15.44823044 -5.89321309 -7.25886057 -4.60317987 0 0 Z " fill="#000000" transform="translate(1421.5,1515)"/>
<path d="M0 0 C2.625 2.1875 2.625 2.1875 4 4 C2.07423885 6.43929746 0.19909405 8.80090595 -2 11 C-2.845625 10.525625 -3.69125 10.05125 -4.5625 9.5625 C-8.22850213 7.8961354 -10.97844322 7.14623843 -15 7 C-17.37633793 8.13650944 -19.14441029 9.14441029 -21 11 C-21.58442963 13.87237733 -21.58442963 13.87237733 -21 17 C-17.46103966 20.24404698 -13.49988975 21.62120104 -9.0625 23.375 C-3.18457847 25.78458274 2.19074684 28.07508791 4.96875 34.1015625 C6.35878007 38.91702383 6.1277202 42.60096086 4.03515625 47.1484375 C1.37719591 51.90267599 -1.11997335 54.95347434 -6.25 56.875 C-15.26802008 59.36016395 -22.57244172 57.96825185 -31 54 C-32.36269125 53.04039053 -33.7071222 52.05178171 -35 51 C-33.55746343 47.63408134 -31.66735273 45.48952921 -29 43 C-28.34 43.268125 -27.68 43.53625 -27 43.8125 C-26.01 44.204375 -25.02 44.59625 -24 45 C-23.40703125 45.27585937 -22.8140625 45.55171875 -22.203125 45.8359375 C-16.83077755 48.17828099 -12.7145685 48.09793793 -7 47 C-6.89163547 45.56416999 -6.81423833 44.1259798 -6.75 42.6875 C-6.70359375 41.88699219 -6.6571875 41.08648438 -6.609375 40.26171875 C-6.7959994 37.90124969 -6.7959994 37.90124969 -8.5859375 36.38671875 C-11.58751378 34.66251231 -14.65872911 33.40459164 -17.875 32.125 C-28.81993525 27.6054917 -28.81993525 27.6054917 -32.1171875 22.15234375 C-33.94356494 17.69953856 -33.86136374 12.4630347 -32.27734375 7.93359375 C-29.48586316 2.70098034 -26.12416147 -0.21327353 -20.625 -2.25 C-13.21244856 -3.78363133 -6.9480204 -2.88795978 0 0 Z " fill="#000000" transform="translate(1790,1513)"/>
<path d="M0 0 C5.75660627 5.35604718 9.11032323 11.89997058 10.05859375 19.765625 C10.22438954 27.68481218 9.01917796 33.04478715 4.6875 39.6875 C3.6665625 41.29625 3.6665625 41.29625 2.625 42.9375 C-2.75418992 48.96975451 -11.76166201 52.10968239 -19.6015625 52.92578125 C-28.29516036 53.20199924 -35.90650657 51.00760174 -42.6875 45.4375 C-50.08604609 38.25120728 -53.02367836 31.09711336 -53.3125 20.6875 C-52.28891622 11.09140204 -48.44877546 4.33225097 -41.4375 -2.125 C-28.48543603 -11.19144478 -12.04794707 -9.89176466 0 0 Z M-37.1875 8.5625 C-41.29201174 14.59854668 -42.32506426 20.50462226 -41.3125 27.6875 C-39.41505646 33.52383304 -36.66347587 38.59314161 -31.32421875 41.84765625 C-25.04786813 44.4678803 -18.64046515 44.27257479 -12.3515625 41.828125 C-6.55202732 38.58394057 -3.27014507 32.88670939 -1.3125 26.6875 C-0.58009114 20.20045013 -1.75700805 15.20838889 -5.3125 9.6875 C-9.55798375 5.03312745 -13.08233857 2.17253731 -19.390625 1.44921875 C-26.63607581 1.20162241 -32.25833352 3.08564836 -37.1875 8.5625 Z " fill="#000000" transform="translate(712.3125,1518.3125)"/>
<path d="M0 0 C5.445 0.495 5.445 0.495 11 1 C15.44983154 10.56713781 19.53372939 20.27620256 23.58544922 30.01733398 C24.75557312 32.82587667 25.93441425 35.63066486 27.11328125 38.43554688 C27.86251993 40.23414983 28.61123654 42.03297037 29.359375 43.83203125 C29.71038269 44.66338089 30.06139038 45.49473053 30.42303467 46.35127258 C32.16560346 50.57085424 33.48593111 54.42082543 34 59 C30.7 59 27.4 59 24 59 C23.16209211 57.21046815 22.32980604 55.41830305 21.5 53.625 C21.0359375 52.62726563 20.571875 51.62953125 20.09375 50.6015625 C19 48 19 48 19 46 C5.635 46.495 5.635 46.495 -8 47 C-9.98 50.96 -11.96 54.92 -14 59 C-17.3 59 -20.6 59 -24 59 C-23.3420888 54.75298386 -21.90402385 51.20233022 -20.15625 47.28515625 C-19.87089386 46.64066025 -19.58553772 45.99616425 -19.29153442 45.33213806 C-18.680878 43.95350927 -18.06811541 42.5758118 -17.45343018 41.19897461 C-15.85078898 37.60772869 -14.26465053 34.00923233 -12.6796875 30.41015625 C-12.36430023 29.69445465 -12.04891296 28.97875305 -11.72396851 28.24136353 C-7.6233422 18.90679608 -3.78973124 9.46430235 0 0 Z M4 13 C3.04100649 15.70810117 2.08278553 18.41647161 1.125 21.125 C0.72087891 22.26582031 0.72087891 22.26582031 0.30859375 23.4296875 C-0.08779297 24.55117187 -0.08779297 24.55117187 -0.4921875 25.6953125 C-0.73308105 26.37609863 -0.97397461 27.05688477 -1.22216797 27.75830078 C-2.17251576 30.49718759 -3.08323057 33.24969171 -4 36 C1.94 36 7.88 36 14 36 C13.10706752 30.60420846 13.10706752 30.60420846 11.37109375 25.6953125 C11.05849609 24.94765625 10.74589844 24.2 10.42382812 23.4296875 C9.9355957 22.28886719 9.9355957 22.28886719 9.4375 21.125 C8.9434668 19.949375 8.9434668 19.949375 8.43945312 18.75 C7.63203214 16.83091244 6.81680231 14.9151135 6 13 C5.34 13 4.68 13 4 13 Z " fill="#000000" transform="translate(1329,1511)"/>
<path d="M0 0 C14.85 0 29.7 0 45 0 C45 2.97 45 5.94 45 9 C39.06 9 33.12 9 27 9 C27 24.84 27 40.68 27 57 C23.7 57 20.4 57 17 57 C17 41.16 17 25.32 17 9 C11.39 9 5.78 9 0 9 C0 6.03 0 3.06 0 0 Z " fill="#000000" transform="translate(604,1512)"/>
<path d="M0 0 C14 0 14 0 17.97265625 3.92578125 C19.05269012 5.69168092 20.08078552 7.49010831 21.0625 9.3125 C22.21148326 11.23170257 23.3625771 13.14964294 24.515625 15.06640625 C25.08474609 16.04883301 25.65386719 17.03125977 26.24023438 18.04345703 C29.0483475 22.76130525 32.17802603 27.24525467 35.3125 31.75 C36.39203747 33.32804949 37.47147459 34.90616764 38.55078125 36.484375 C40.1384592 38.85675096 40.1384592 38.85675096 42 41 C42.33 27.47 42.66 13.94 43 0 C46.3 0 49.6 0 53 0 C53 18.81 53 37.62 53 57 C39 57 39 57 36.01782227 54.46044922 C35.43572998 53.29529785 34.8536377 52.13014648 34.25390625 50.9296875 C33.55410827 49.63597868 32.85102909 48.34404044 32.14501953 47.05371094 C31.79852356 46.38287476 31.45202759 45.71203857 31.09503174 45.02087402 C29.28938706 41.6885684 27.12535186 38.61705725 24.96484375 35.5078125 C24.20728028 34.39535508 23.45071064 33.28222032 22.69506836 32.16845703 C21.7850708 30.83411621 20.87507324 29.49977539 19.9375 28.125 C16.988125 23.79375 14.03875 19.4625 11 15 C10.67 28.86 10.34 42.72 10 57 C6.7 57 3.4 57 0 57 C0 38.19 0 19.38 0 0 Z " fill="#000000" transform="translate(739,1512)"/>
<path d="M0 0 C3.3 0 6.6 0 10 0 C10 15.18 10 30.36 10 46 C7.03 45.67 4.06 45.34 1 45 C0.18647759 39.32504784 -0.13614934 33.85307186 -0.09765625 28.125 C-0.0962413 27.31506592 -0.09482635 26.50513184 -0.09336853 25.6706543 C-0.08782383 23.11373006 -0.07528207 20.55689724 -0.0625 18 C-0.05747784 16.25390753 -0.05291619 14.50781366 -0.04882812 12.76171875 C-0.0378726 8.50777791 -0.02064694 4.25390439 0 0 Z " fill="#000000" transform="translate(814,1512)"/>
<path d="M0 0 C12.87 0 25.74 0 39 0 C39 2.97 39 5.94 39 9 C29.76 9.33 20.52 9.66 11 10 C11 14.29 11 18.58 11 23 C23.87 23.495 23.87 23.495 37 24 C37 26.97 37 29.94 37 33 C28.42 33 19.84 33 11 33 C11 38.28 11 43.56 11 49 C20.57 49 30.14 49 40 49 C40 51.64 40 54.28 40 57 C26.8 57 13.6 57 0 57 C0 38.19 0 19.38 0 0 Z " fill="#000000" transform="translate(845,1512)"/>
<path d="M0 0 C3.63 0 7.26 0 11 0 C11.32798584 1.20648193 11.65597168 2.41296387 11.99389648 3.65600586 C13.20746488 8.1165702 14.42543989 12.57592113 15.64477539 17.03491211 C16.17267927 18.96784996 16.69937485 20.90111823 17.22485352 22.8347168 C17.97878416 25.6081299 18.73700064 28.38033984 19.49609375 31.15234375 C19.73154404 32.02213364 19.96699432 32.89192352 20.20957947 33.78807068 C21.0023053 37.70583636 21.0023053 37.70583636 23 41 C27.29 27.47 31.58 13.94 36 0 C39.63 0 43.26 0 47 0 C48.99761557 5.2186755 50.83309272 10.44271505 52.48046875 15.78125 C52.69818436 16.48020386 52.91589996 17.17915771 53.14021301 17.89929199 C53.82481303 20.09886011 54.50621351 22.29940359 55.1875 24.5 C55.65538624 26.00527447 56.12348338 27.5104834 56.59179688 29.015625 C57.73029968 32.67633159 58.86593721 36.33791561 60 40 C62.85510128 31.73037009 65.26729439 23.34155126 67.6875 14.9375 C68.10725448 13.48497766 68.52717505 12.0325033 68.94726562 10.58007812 C69.96675867 7.05393644 70.98400457 3.52715127 72 0 C75.63 0 79.26 0 83 0 C80.52402329 10.49849623 77.45368142 20.7911339 74.3293457 31.11206055 C73.4305864 34.08537184 72.54032311 37.06114586 71.65039062 40.03710938 C71.078637 41.93244619 70.50638945 43.8276341 69.93359375 45.72265625 C69.66896835 46.61010025 69.40434296 47.49754425 69.13169861 48.41188049 C68.88126297 49.23381393 68.63082733 50.05574738 68.37280273 50.90258789 C68.15534897 51.62362198 67.9378952 52.34465607 67.71385193 53.08753967 C67 55 67 55 65 58 C61.99201135 58.40721868 59.02678633 58.12971941 56 58 C52.02266401 49.75724994 49.4165247 41.16439568 46.75 32.4375 C46.28696588 30.93669227 45.82342814 29.43603983 45.359375 27.93554688 C44.23377063 24.29212837 43.11499718 20.64667792 42 17 C38.46332171 25.39148209 35.5944783 33.98263637 32.75 42.625 C32.28674117 44.02483322 31.82320143 45.4245735 31.359375 46.82421875 C30.23634841 50.21508246 29.11710867 53.60718137 28 57 C24.04 57 20.08 57 16 57 C13.87556295 50.00936363 11.75784028 43.01674146 9.64624023 36.0222168 C8.92736804 33.64438385 8.20668302 31.26709816 7.48413086 28.89038086 C6.444249 25.46871867 5.41096056 22.04512386 4.37890625 18.62109375 C4.05596085 17.56353378 3.73301544 16.50597382 3.40028381 15.41636658 C1.8565035 10.27185625 0.5567342 5.3466249 0 0 Z " fill="#000000" transform="translate(897,1512)"/>
<path d="M0 0 C6.80625 -0.12375 6.80625 -0.12375 13.75 -0.25 C15.15475586 -0.28641602 16.55951172 -0.32283203 18.00683594 -0.36035156 C29.15044788 -0.45736138 39.13070785 1.14183443 47.37890625 9.1328125 C53.40214002 16.0704167 54.36756232 22.7240943 54.27734375 31.67578125 C53.64300071 39.27896335 49.80210164 46.05837953 44 51 C36.96521137 55.29656394 31.27210831 57.13250893 23.046875 57.09765625 C21.83870117 57.09515869 20.63052734 57.09266113 19.38574219 57.09008789 C17.85594727 57.08098389 16.32615234 57.07187988 14.75 57.0625 C9.8825 57.041875 5.015 57.02125 0 57 C0 38.19 0 19.38 0 0 Z M11 9 C10.97535225 14.53588533 10.95716504 20.071739 10.94506836 25.60766602 C10.94002756 27.4924373 10.93319502 29.37720465 10.92456055 31.26196289 C10.91248383 33.96501636 10.90676932 36.66801831 10.90234375 39.37109375 C10.89718246 40.21900986 10.89202118 41.06692596 10.88670349 41.9405365 C10.88650805 43.96071068 10.93793789 45.98077934 11 48 C12.15515083 49.38946091 12.15515083 49.38946091 15.31640625 49.01953125 C27.36732249 48.60470069 27.36732249 48.60470069 37.51171875 42.61328125 C41.0905887 38.70626277 42.96185954 34.91774537 43.03125 29.609375 C42.59540299 22.33072987 40.43380522 18.37972066 35.1875 13.25 C29.27339712 9.07533914 24.84294001 8.91187943 17.75 8.95703125 C16.48671875 8.96323486 15.2234375 8.96943848 13.921875 8.97583008 C12.47554687 8.98779419 12.47554687 8.98779419 11 9 Z " fill="#000000" transform="translate(1015,1512)"/>
<path d="M0 0 C3.63 0 7.26 0 11 0 C15.0699931 8.78302943 18.84888001 17.67030083 22.56616211 26.60644531 C23.56115345 28.99676512 24.56069013 31.38514945 25.56054688 33.7734375 C28.90487217 41.78659189 32.12389154 49.80345681 35 58 C31.37 58 27.74 58 24 58 C22.02 53.71 20.04 49.42 18 45 C9.23814286 44.91961599 0.71502616 44.98536078 -8 46 C-8.36738281 47.17369141 -8.36738281 47.17369141 -8.7421875 48.37109375 C-9.91968699 51.55846306 -11.03570564 54.21976798 -13 57 C-16.39273809 58.26385969 -19.41607155 58.29924063 -23 58 C-22.38408403 54.45598 -21.4446353 51.32401194 -20.08227539 47.99780273 C-19.68839127 47.03007431 -19.29450714 46.06234589 -18.88868713 45.06529236 C-18.46264694 44.03183182 -18.03660675 42.99837128 -17.59765625 41.93359375 C-17.15989365 40.86254898 -16.72213104 39.79150421 -16.27110291 38.68800354 C-15.34599185 36.42696997 -14.41874033 34.16681116 -13.48950195 31.9074707 C-12.06709608 28.44867607 -10.65114267 24.98729647 -9.23632812 21.52539062 C-8.33631379 19.32797084 -7.43593543 17.13070011 -6.53515625 14.93359375 C-6.11114029 13.89810898 -5.68712433 12.86262421 -5.2502594 11.79576111 C-4.85322311 10.83118484 -4.45618683 9.86660858 -4.04711914 8.87280273 C-3.69927872 8.02628647 -3.35143829 7.1797702 -2.99305725 6.30760193 C-2.07311821 4.16990734 -1.04077144 2.08154289 0 0 Z M5 12 C1.91508794 19.6347265 -1.05498828 27.31024717 -4 35 C2.27 35 8.54 35 15 35 C10.545 23.615 10.545 23.615 6 12 C5.67 12 5.34 12 5 12 Z " fill="#000000" transform="translate(1102,1512)"/>
<path d="M0 0 C2.97 0 5.94 0 9 0 C9 19.14 9 38.28 9 58 C6.03 58 3.06 58 0 58 C0 38.86 0 19.72 0 0 Z " fill="#000000" transform="translate(1151,1512)"/>
<path d="M0 0 C3.3 0 6.6 0 10 0 C10 16.17 10 32.34 10 49 C18.58 49 27.16 49 36 49 C36 51.64 36 54.28 36 57 C24.12 57.33 12.24 57.66 0 58 C0 38.86 0 19.72 0 0 Z " fill="#000000" transform="translate(1182,1512)"/>
<path d="M0 0 C4.68114572 -1.12259451 8.36850842 -1.44861631 13 0 C17.09356139 4.1968038 19.52899168 9.75280022 22.02441406 14.99365234 C23.20543683 17.42249247 24.56221784 19.71511688 26 22 C29.74783185 20.75072272 30.03417197 19.69132561 31.91796875 16.30859375 C32.44970703 15.36435547 32.98144531 14.42011719 33.52929688 13.44726562 C34.07650391 12.45404297 34.62371094 11.46082031 35.1875 10.4375 C36.02571289 8.94186523 36.02571289 8.94186523 36.88085938 7.41601562 C38.26213918 4.94860127 39.63213712 2.47487749 41 0 C45.29 0 49.58 0 54 0 C52.29691868 4.25770329 50.36810441 7.77671384 47.875 11.5625 C47.48046631 12.16876221 47.08593262 12.77502441 46.67944336 13.3996582 C42.83226383 19.29682275 38.92519858 25.15456039 35 31 C32.80835056 34.28747416 32.71320614 35.48494825 32.5859375 39.32421875 C32.54726562 40.35224609 32.50859375 41.38027344 32.46875 42.43945312 C32.4378125 43.51130859 32.406875 44.58316406 32.375 45.6875 C32.33632812 46.77095703 32.29765625 47.85441406 32.2578125 48.97070312 C32.16349884 51.64685334 32.08065874 54.32340342 32 57 C28.7 57 25.4 57 22 57 C22.04382812 55.5253125 22.08765625 54.050625 22.1328125 52.53125 C22.23428016 39.15781205 20.60485146 30.62360368 12.48632812 20.00048828 C9.75187259 16.32011235 7.34255145 12.42436764 4.875 8.5625 C4.3898291 7.8214502 3.9046582 7.08040039 3.40478516 6.31689453 C0 1.1142843 0 1.1142843 0 0 Z " fill="#000000" transform="translate(1219,1512)"/>
<path d="M0 0 C15.18 0 30.36 0 46 0 C46 2.97 46 5.94 46 9 C40.39 9 34.78 9 29 9 C29 24.84 29 40.68 29 57 C25.7 57 22.4 57 19 57 C18.67 41.16 18.34 25.32 18 9 C12.06 9 6.12 9 0 9 C0 6.03 0 3.06 0 0 Z " fill="#000000" transform="translate(1433,1512)"/>
<path d="M0 0 C3.3 0 6.6 0 10 0 C10 18.81 10 37.62 10 57 C6.7 57 3.4 57 0 57 C0 38.19 0 19.38 0 0 Z " fill="#000000" transform="translate(1493,1512)"/>
<path d="M0 0 C3.96 0 7.92 0 12 0 C15.63725439 8.5983383 19.05674672 17.25046452 22.3125 26 C22.76689453 27.20011719 23.22128906 28.40023438 23.68945312 29.63671875 C24.11806641 30.78785156 24.54667969 31.93898438 24.98828125 33.125 C25.37540283 34.15882812 25.76252441 35.19265625 26.16137695 36.2578125 C27 39 27 39 27 43 C27.66 43 28.32 43 29 43 C29.14550293 42.47027588 29.29100586 41.94055176 29.44091797 41.39477539 C31.65942397 33.65403154 34.45626527 26.15634201 37.29833984 18.62866211 C38.13448981 16.41234611 38.96403316 14.19363243 39.79296875 11.97460938 C40.32253074 10.56495913 40.85246463 9.15544852 41.3828125 7.74609375 C41.6307254 7.08266464 41.87863831 6.41923553 42.13406372 5.73570251 C43.88476914 1.11523086 43.88476914 1.11523086 45 0 C46.85287502 -0.07226502 48.70833878 -0.0838122 50.5625 -0.0625 C51.57441406 -0.05347656 52.58632812 -0.04445313 53.62890625 -0.03515625 C54.41136719 -0.02355469 55.19382812 -0.01195312 56 0 C52.40459086 10.75339265 48.38056052 21.33696347 44.24813843 31.89334106 C43.66916228 33.37314913 43.09201328 34.85367345 42.51675415 36.33493042 C41.69142138 38.45737212 40.85850956 40.57668655 40.0234375 42.6953125 C39.77872208 43.32716965 39.53400665 43.95902679 39.28187561 44.61003113 C37.53639591 49.00171019 35.40967456 52.95052534 33 57 C29.37 57 25.74 57 22 57 C18.32329577 48.25837798 14.76780759 39.47641981 11.28833008 30.65478516 C10.43816548 28.50168538 9.58338139 26.35045554 8.72851562 24.19921875 C5.5650667 16.20343915 2.63366117 8.19075064 0 0 Z " fill="#000000" transform="translate(1517,1512)"/>
<path d="M0 0 C3.3 0 6.6 0 10 0 C10 19.14 10 38.28 10 58 C6.7 57.67 3.4 57.34 0 57 C0 38.19 0 19.38 0 0 Z " fill="#000000" transform="translate(1587,1512)"/>
<path d="M0 0 C14.85 0 29.7 0 45 0 C45 2.97 45 5.94 45 9 C39.06 9 33.12 9 27 9 C27 24.84 27 40.68 27 57 C23.7 57 20.4 57 17 57 C17 41.16 17 25.32 17 9 C11.39 9 5.78 9 0 9 C0 6.03 0 3.06 0 0 Z " fill="#000000" transform="translate(1612,1512)"/>
<path d="M0 0 C2.97 0 5.94 0 9 0 C9 18.81 9 37.62 9 57 C5.7 57 2.4 57 -1 57 C-1.02468085 49.36450437 -1.04285088 41.72903185 -1.05493164 34.09350586 C-1.05996681 31.49486893 -1.0667953 28.89623485 -1.07543945 26.29760742 C-1.08754062 22.56688741 -1.09323641 18.83620478 -1.09765625 15.10546875 C-1.10281754 13.93976852 -1.10797882 12.7740683 -1.11329651 11.57304382 C-1.11337204 10.49214981 -1.11344757 9.4112558 -1.11352539 8.29760742 C-1.115746 7.34496506 -1.11796661 6.39232269 -1.12025452 5.41081238 C-1 3 -1 3 0 0 Z " fill="#000000" transform="translate(1672,1512)"/>
<path d="M0 0 C12.87 0 25.74 0 39 0 C39 2.97 39 5.94 39 9 C29.76 9 20.52 9 11 9 C11 13.95 11 18.9 11 24 C19.58 24 28.16 24 37 24 C37 26.64 37 29.28 37 32 C36 33 36 33 33.49975586 33.11352539 C32.41573486 33.10828857 31.33171387 33.10305176 30.21484375 33.09765625 C28.46010742 33.09282227 28.46010742 33.09282227 26.66992188 33.08789062 C25.43822266 33.07951172 24.20652344 33.07113281 22.9375 33.0625 C21.08415039 33.05573242 21.08415039 33.05573242 19.19335938 33.04882812 C16.12888587 33.03699618 13.06443707 33.01906008 10 33 C10 37.95 10 42.9 10 48 C12.08183594 47.98839844 14.16367188 47.97679687 16.30859375 47.96484375 C18.31746298 47.95789265 20.32633251 47.95097611 22.33520508 47.94506836 C23.73495228 47.9400292 25.1346942 47.93319784 26.53442383 47.92456055 C28.54245777 47.9124768 30.55052957 47.90730193 32.55859375 47.90234375 C34.37315063 47.89448853 34.37315063 47.89448853 36.22436523 47.88647461 C39 48 39 48 40 49 C40 51.64 40 54.28 40 57 C26.8 57 13.6 57 0 57 C0 38.19 0 19.38 0 0 Z " fill="#000000" transform="translate(1702,1512)"/>
</svg>
