<svg xmlns="http://www.w3.org/2000/svg" xmlns:v="https://svgstorm.com"
viewBox = "0 0 1600 1600"
width="1600"
height="1600">
<g fill="None" fill-opacity="0.0" stroke="#F7F5F7" stroke-opacity="1.00" stroke-width="0.3"><path d="
M 0.00 1600.00 
L 1600.00 1600.00
L 1600.00 0.00
L 0.00 0.00
L 0.00 1600.00
M 909.00 774.00 
C 905.63 777.94 901.89 781.67 898.00 785.00
C 838.32 836.00 749.69 834.38 694.75 777.25 C 639.81 720.11 641.16 629.07 696.25 573.25 C 751.33 517.43 842.73 515.88 900.25 569.75 C 957.76 623.63 959.57 714.82 909.00 774.00
M 881.00 976.00 
C 874.06 976.27 860.30 980.38 855.00 974.00
C 846.10 963.27 838.90 950.78 830.00 940.00
C 827.68 951.09 829.66 964.16 829.00 976.00
C 827.91 977.56 810.79 979.19 808.78 976.22 C 806.77 973.26 808.00 959.28 808.00 955.00
C 808.00 924.67 808.00 894.33 808.00 864.00
C 815.00 864.00 822.00 864.00 829.00 864.00
C 829.67 886.17 827.67 909.65 830.00 931.00
C 835.65 922.09 841.15 919.45 847.25 910.25 C 853.34 901.05 867.65 902.47 878.00 903.00
C 869.77 911.30 867.41 918.44 857.25 926.25 C 847.09 934.05 854.13 943.18 861.77 951.23 C 869.41 959.28 874.32 967.48 881.00 976.00
M 905.00 868.00 
C 919.55 870.85 912.52 896.15 898.00 891.00 C 883.48 885.85 891.10 865.27 905.00 868.00
M 582.00 870.00 
C 582.95 871.35 582.95 886.65 582.00 888.00
C 579.88 891.03 570.94 888.56 567.00 889.00 C 563.06 889.44 555.23 889.38 551.00 889.00
C 551.00 895.01 550.98 900.99 551.00 907.00 C 551.02 913.01 550.95 920.09 551.00 926.00 C 551.05 931.91 550.88 938.41 551.00 944.00 C 551.12 949.59 550.74 958.04 551.00 963.00 C 551.26 967.96 552.01 977.77 546.99 976.99 C 541.97 976.22 531.58 979.69 529.00 976.00
C 526.28 972.12 530.16 964.02 529.00 959.00 C 527.84 953.98 529.55 946.47 529.00 941.00 C 528.45 935.53 529.24 929.72 529.00 924.00 C 528.76 918.28 529.13 911.85 529.00 906.00 C 528.87 900.15 529.09 893.89 529.00 888.00
C 518.67 888.00 508.33 888.00 498.00 888.00
C 498.00 882.00 498.00 876.00 498.00 870.00
C 500.73 866.10 512.75 869.84 518.00 869.00 C 523.25 868.16 534.29 868.98 540.00 869.00 C 545.71 869.02 555.82 867.99 561.00 869.00 C 566.18 870.01 579.22 866.03 582.00 870.00
M 1074.00 892.00 
C 1063.87 889.83 1049.66 883.84 1040.75 892.75 C 1031.85 901.67 1043.77 913.58 1051.00 919.00
C 1051.98 915.01 1053.02 911.03 1054.00 907.00
C 1069.42 907.28 1084.45 909.16 1100.00 909.00
C 1100.19 915.12 1098.27 920.73 1099.00 927.00
C 1084.85 925.17 1093.94 945.65 1086.00 953.00
C 1091.07 957.36 1095.77 962.00 1101.00 966.00
C 1099.76 971.38 1092.21 973.63 1091.00 979.00
C 1084.96 977.51 1080.72 971.57 1076.00 968.00
C 1062.30 980.04 1041.13 981.60 1026.25 970.75 C 1011.36 959.90 1013.31 934.96 1029.00 926.00
C 1024.38 920.00 1020.13 914.58 1019.00 907.00 C 1017.88 899.42 1017.70 889.53 1023.30 883.30 C 1028.90 877.07 1032.69 873.52 1041.08 871.08 C 1049.46 868.63 1059.27 870.26 1068.67 871.33 C 1078.07 872.40 1076.44 884.31 1074.00 892.00
M 689.00 902.00 
C 694.15 902.28 700.07 903.65 704.08 906.92 C 708.10 910.19 711.18 912.96 713.30 917.70 C 715.43 922.43 716.89 929.29 716.00 935.00 C 715.11 940.71 717.58 949.49 716.00 955.00 C 714.43 960.51 719.15 971.50 716.00 976.00
C 714.54 978.08 698.41 978.01 697.00 976.00
C 695.59 973.99 698.06 969.26 697.00 967.00
C 684.76 982.27 652.08 984.00 648.22 959.78 C 644.36 935.55 676.71 926.25 696.00 932.00
C 697.29 911.55 670.92 917.58 660.00 924.00
C 658.84 918.89 653.47 915.32 653.00 910.00
C 661.27 906.16 669.56 901.99 679.00 902.00
C 682.40 901.51 685.64 901.45 689.00 902.00
M 613.00 976.00 
C 611.52 978.11 594.43 978.04 593.00 976.00
C 590.17 971.96 594.28 963.14 593.00 958.00 C 591.72 952.86 593.59 945.65 593.00 940.00 C 592.41 934.35 593.29 927.94 593.00 922.00 C 592.71 916.06 593.22 909.04 593.00 903.00
C 599.33 903.00 605.67 903.00 612.00 903.00
C 612.00 907.33 612.00 911.67 612.00 916.00
C 617.53 906.20 628.06 899.61 640.00 902.00
C 640.00 908.67 640.00 915.33 640.00 922.00
C 630.53 919.31 614.96 921.59 613.22 934.22 C 611.48 946.86 614.06 963.03 613.00 976.00
M 731.00 945.00 
C 730.61 942.27 730.68 939.65 731.00 937.00
C 731.64 904.86 772.86 891.11 796.00 911.00
C 794.82 917.30 787.34 920.21 785.00 926.00
C 772.22 913.59 751.01 922.00 751.00 940.00 C 750.99 958.00 772.39 966.57 785.00 954.00
C 788.97 958.76 793.07 963.28 797.00 968.00
C 775.36 988.02 732.54 976.80 731.00 945.00
M 1001.00 928.00 
C 1002.36 942.01 1004.10 960.34 1002.00 975.00
C 1001.95 975.35 1001.30 975.78 1001.00 976.00
C 998.71 977.69 982.78 978.54 981.00 976.00
C 978.02 971.74 982.28 961.35 981.00 956.00 C 979.72 950.65 981.42 941.57 981.00 936.00 C 980.58 930.43 980.98 924.63 975.75 921.25 C 970.53 917.86 964.57 918.41 959.32 921.32 C 954.08 924.23 953.52 929.53 953.00 935.00 C 952.48 940.47 954.41 949.63 953.00 955.00 C 951.59 960.37 956.06 971.62 953.00 976.00
C 951.50 978.14 933.45 978.07 932.00 976.00
C 929.17 971.96 933.28 963.14 932.00 958.00 C 930.72 952.86 932.59 945.65 932.00 940.00 C 931.41 934.35 932.29 927.94 932.00 922.00 C 931.71 916.06 932.22 909.04 932.00 903.00
C 938.16 903.66 945.66 901.68 951.00 904.00
C 952.90 905.90 951.62 909.38 952.00 912.00
C 953.25 911.70 953.71 910.17 955.00 910.00
C 971.47 892.01 1001.00 904.25 1001.00 928.00
M 892.00 903.00 
C 897.99 902.45 905.01 902.46 911.00 903.00
C 915.70 907.52 910.49 920.16 912.00 927.00 C 913.51 933.84 911.21 944.44 912.00 952.00 C 912.79 959.56 911.41 969.25 912.00 977.00
C 900.92 978.56 888.93 978.42 891.00 966.00 C 893.07 953.58 889.71 945.43 891.00 934.00 C 892.29 922.57 889.20 913.29 892.00 903.00
M 466.00 1007.00 
C 491.89 1012.36 480.84 1054.75 455.00 1047.00 C 429.16 1039.25 439.89 1001.59 466.00 1007.00
M 795.00 1008.00 
C 795.97 1018.58 794.27 1029.40 795.00 1040.00
C 800.50 1040.65 807.33 1038.68 812.00 1041.00
C 812.75 1042.19 811.43 1044.69 812.00 1046.00
C 804.00 1046.00 796.00 1046.00 788.00 1046.00
C 783.48 1042.83 789.24 1027.68 787.00 1023.00 C 784.76 1018.32 787.47 1000.16 795.00 1008.00
M 951.00 1040.00 
C 945.90 1046.46 936.14 1049.77 927.93 1046.07 C 919.71 1042.37 916.95 1035.86 916.00 1027.00 C 915.05 1018.13 922.38 1011.18 929.07 1008.07 C 935.77 1004.97 951.65 1008.88 948.74 1014.75 C 945.83 1020.61 931.81 1008.15 927.25 1017.25 C 922.68 1026.34 920.84 1030.81 928.25 1038.75 C 935.65 1046.69 944.81 1032.82 951.00 1040.00
M 1193.00 1016.00 
C 1183.21 1006.24 1174.22 1021.02 1184.68 1023.32 C 1195.14 1025.63 1199.88 1033.32 1194.75 1041.75 C 1189.61 1050.17 1176.67 1047.64 1170.00 1043.00
C 1169.73 1040.26 1173.29 1039.32 1174.00 1037.00
C 1182.69 1048.63 1195.05 1033.46 1183.32 1030.68 C 1171.60 1027.90 1168.88 1019.42 1174.25 1011.25 C 1179.62 1003.07 1198.83 1005.97 1193.00 1016.00
M 433.00 1008.00 
C 435.56 1016.44 426.07 1013.60 421.00 1014.00
C 421.00 1024.67 421.00 1035.33 421.00 1046.00
C 412.06 1048.49 413.99 1040.27 414.00 1034.00 C 414.01 1027.73 413.99 1020.37 414.00 1014.00
C 410.33 1014.00 406.67 1014.00 403.00 1014.00
C 400.78 1005.71 409.46 1008.20 415.00 1008.00 C 420.54 1007.80 427.35 1008.15 433.00 1008.00
M 520.00 1035.00 
C 522.31 1026.91 520.35 1016.84 521.00 1008.00
C 531.04 1005.57 527.66 1016.06 528.00 1023.00 C 528.34 1029.94 527.75 1038.88 528.00 1046.00
C 512.50 1047.23 508.79 1026.69 500.00 1017.00
C 497.69 1025.76 499.65 1036.49 499.00 1046.00
C 489.56 1047.82 493.62 1036.50 493.00 1030.00 C 492.38 1023.50 493.47 1014.71 493.00 1008.00
C 508.40 1006.09 510.45 1026.54 520.00 1035.00
M 543.00 1038.00 
C 543.00 1037.00 543.00 1036.00 543.00 1035.00
C 543.00 1026.00 543.00 1017.00 543.00 1008.00
C 545.00 1008.00 547.00 1008.00 549.00 1008.00
C 552.89 1010.60 549.04 1025.24 550.00 1030.00 C 550.96 1034.76 550.82 1048.92 543.00 1046.00
C 543.00 1043.33 543.00 1040.67 543.00 1038.00
M 571.00 1030.00 
C 571.00 1033.33 571.00 1036.67 571.00 1040.00
C 577.16 1040.66 584.66 1038.68 590.00 1041.00
C 590.75 1042.19 589.43 1044.69 590.00 1046.00
C 581.33 1046.00 572.67 1046.00 564.00 1046.00
C 561.12 1043.98 563.01 1030.63 563.00 1027.00 C 562.99 1023.37 561.16 1009.99 564.00 1008.00
C 566.91 1005.96 573.41 1009.06 577.00 1008.00 C 580.59 1006.94 586.22 1008.80 590.00 1008.00
C 591.90 1018.90 576.48 1012.13 570.00 1014.00
C 570.00 1017.33 570.00 1020.67 570.00 1024.00
C 576.00 1024.00 582.00 1024.00 588.00 1024.00
C 590.33 1034.18 576.85 1028.58 571.00 1030.00
M 613.00 1035.00 
C 620.16 1027.19 615.27 1005.90 630.00 1008.00
C 631.70 1017.28 634.93 1026.10 638.00 1035.00
C 644.10 1027.19 639.79 1007.04 653.00 1008.00
C 650.18 1020.88 645.56 1033.29 642.00 1046.00
C 628.28 1047.21 631.78 1027.45 626.00 1019.00
C 622.01 1027.32 619.16 1036.77 617.00 1046.00
C 606.93 1048.66 606.63 1037.84 604.22 1030.78 C 601.82 1023.71 599.92 1015.28 598.00 1008.00
C 611.73 1006.77 606.49 1027.35 613.00 1035.00
M 677.00 1046.00 
C 677.00 1033.33 677.00 1020.67 677.00 1008.00
C 691.48 1006.21 713.00 1008.37 713.00 1027.00 C 712.99 1045.64 691.53 1047.89 677.00 1046.00
M 757.00 1045.00 
C 756.89 1047.33 754.07 1048.11 751.00 1046.00
C 748.48 1044.27 749.35 1039.84 747.00 1038.00
C 745.40 1037.14 740.86 1038.00 739.00 1038.00
C 735.67 1038.00 732.33 1038.00 729.00 1038.00
C 728.19 1043.27 725.30 1047.89 719.00 1046.00
C 724.02 1033.32 730.50 1021.16 734.00 1008.00
C 744.75 1004.94 744.75 1017.02 748.31 1023.69 C 751.87 1030.37 754.29 1037.95 757.00 1045.00
M 767.00 1046.00 
C 764.03 1041.75 768.55 1032.25 767.00 1027.00 C 765.45 1021.75 768.16 1013.52 767.00 1008.00
C 769.00 1008.00 771.00 1008.00 773.00 1008.00
C 777.00 1010.67 772.67 1022.09 774.00 1027.00 C 775.33 1031.91 773.01 1041.65 774.00 1047.00
C 771.81 1046.48 768.38 1048.14 767.00 1046.00
M 832.00 1023.00 
C 834.10 1017.66 838.49 1013.49 840.00 1008.00
C 843.00 1008.00 846.00 1008.00 849.00 1008.00
C 842.27 1020.19 830.50 1030.39 834.00 1046.00
C 822.49 1048.50 829.22 1032.71 824.25 1026.75 C 819.27 1020.80 817.42 1014.19 813.00 1008.00
C 824.84 1004.14 824.16 1019.88 832.00 1023.00
M 877.00 1046.00 
C 875.46 1047.20 871.41 1047.91 870.00 1046.00
C 872.85 1034.62 878.92 1031.57 881.31 1019.31 C 883.69 1007.04 894.67 1005.64 897.77 1018.23 C 900.87 1030.82 905.51 1034.36 909.00 1046.00
C 899.97 1048.88 900.85 1037.31 893.00 1038.00 C 885.15 1038.69 878.50 1036.41 877.00 1046.00
M 975.00 1014.00 
C 974.17 1018.42 976.10 1025.89 975.00 1030.00 C 973.90 1034.11 977.47 1043.68 974.00 1046.00
C 972.62 1046.92 969.53 1045.30 968.00 1046.00
C 968.00 1035.33 968.00 1024.67 968.00 1014.00
C 964.00 1014.00 960.00 1014.00 956.00 1014.00
C 953.79 1005.71 962.46 1008.20 968.00 1008.00 C 973.54 1007.80 980.35 1008.15 986.00 1008.00
C 988.50 1015.96 979.96 1013.85 975.00 1014.00
M 996.00 1046.00 
C 993.14 1044.09 995.01 1030.56 995.00 1027.00 C 994.99 1023.44 993.18 1009.89 996.00 1008.00
C 997.38 1007.08 1000.46 1008.70 1002.00 1008.00
C 1002.00 1020.67 1002.00 1033.33 1002.00 1046.00
C 1000.00 1046.00 998.00 1046.00 996.00 1046.00
M 1020.00 1008.00 
C 1021.63 1017.74 1027.33 1026.23 1029.00 1036.00
C 1038.01 1029.59 1034.00 1006.07 1049.00 1008.00
C 1043.59 1020.54 1038.93 1033.31 1034.00 1046.00
C 1023.13 1048.95 1023.15 1036.98 1020.03 1029.98 C 1016.90 1022.97 1014.37 1014.99 1011.00 1008.00
C 1014.00 1008.00 1017.00 1008.00 1020.00 1008.00
M 1065.00 1008.00 
C 1065.00 1020.67 1065.00 1033.33 1065.00 1046.00
C 1054.45 1048.86 1057.99 1033.73 1058.00 1027.00 C 1058.01 1020.27 1054.39 1005.18 1065.00 1008.00
M 1105.00 1008.00 
C 1107.56 1016.44 1098.07 1013.60 1093.00 1014.00
C 1093.00 1024.67 1093.00 1035.33 1093.00 1046.00
C 1084.06 1048.49 1085.99 1040.27 1086.00 1034.00 C 1086.01 1027.73 1085.99 1020.37 1086.00 1014.00
C 1082.00 1014.00 1078.00 1014.00 1074.00 1014.00
C 1071.95 1005.72 1080.24 1008.18 1086.00 1008.00 C 1091.76 1007.82 1099.10 1008.14 1105.00 1008.00
M 1121.00 1008.00 
C 1121.00 1020.67 1121.00 1033.33 1121.00 1046.00
C 1110.45 1048.86 1113.99 1033.73 1114.00 1027.00 C 1114.01 1020.27 1110.39 1005.18 1121.00 1008.00
M 1161.00 1008.00 
C 1163.06 1018.68 1148.26 1012.27 1142.00 1014.00
C 1142.00 1017.33 1142.00 1020.67 1142.00 1024.00
C 1147.67 1024.00 1153.33 1024.00 1159.00 1024.00
C 1161.33 1034.18 1147.85 1028.58 1142.00 1030.00
C 1141.68 1033.34 1142.84 1037.06 1141.00 1040.00
C 1147.67 1040.00 1154.33 1040.00 1161.00 1040.00
C 1161.66 1051.86 1142.97 1043.50 1135.00 1046.00
C 1135.00 1033.33 1135.00 1020.67 1135.00 1008.00
C 1143.66 1008.00 1152.34 1008.00 1161.00 1008.00 Z"/>
</g>
<g fill="None" fill-opacity="0.0" stroke="#34363D" stroke-opacity="1.00" stroke-width="0.3"><path d="
M 898.00 785.00 
C 901.59 781.41 905.46 777.54 909.00 774.00
C 959.57 714.82 957.76 623.63 900.25 569.75 C 842.73 515.88 751.33 517.43 696.25 573.25 C 641.16 629.07 639.81 720.11 694.75 777.25 C 749.69 834.38 838.32 836.00 898.00 785.00
M 860.00 614.00 
C 862.50 625.26 863.66 648.02 860.00 659.00
C 856.21 670.37 845.38 660.54 848.00 651.00 C 850.62 641.46 846.55 630.74 848.00 621.00 C 849.45 611.26 838.34 607.03 830.00 609.00 C 821.66 610.97 811.20 610.89 802.00 611.00 C 792.80 611.11 782.16 611.15 773.99 609.01 C 765.83 606.87 754.28 608.68 752.00 617.00
C 748.00 617.00 744.00 617.00 740.00 617.00
C 738.77 593.39 766.52 596.29 783.00 597.00
C 784.70 578.39 815.42 578.33 817.00 597.00
C 832.73 596.82 857.49 592.97 860.00 614.00
M 776.00 630.00 
C 781.80 636.38 789.31 647.46 775.00 647.00 C 760.69 646.54 771.68 636.22 776.00 630.00
M 752.00 639.00 
C 756.07 650.02 751.93 664.77 753.00 677.00 C 754.07 689.23 753.12 704.45 752.00 716.00
C 752.00 726.03 748.50 743.51 760.00 747.00
C 768.70 748.47 779.09 745.08 787.00 748.00
C 797.20 751.77 789.69 762.61 781.00 761.00 C 772.31 759.39 760.47 762.94 752.78 759.22 C 745.09 755.51 740.56 750.30 740.00 742.00
C 739.13 737.12 739.54 731.74 740.00 727.00
C 740.00 715.74 741.34 702.02 740.00 691.00 C 738.66 679.98 743.43 664.05 740.00 654.00 C 736.57 643.95 746.60 624.37 752.00 639.00
M 831.00 634.00 
C 838.16 636.91 833.95 648.82 826.00 647.00 C 818.04 645.18 808.39 648.83 800.33 646.67 C 792.27 644.51 797.15 631.59 805.00 634.00 C 812.86 636.41 823.46 630.93 831.00 634.00
M 781.00 683.00 
C 778.05 684.55 772.90 684.52 770.00 683.00
C 762.79 679.21 773.62 671.96 775.00 667.00
C 778.99 670.42 787.58 679.59 781.00 683.00
M 832.00 671.00 
C 839.55 674.30 832.57 686.43 825.00 683.00 C 817.43 679.57 806.56 686.47 799.00 683.00 C 791.44 679.53 798.34 667.83 806.00 671.00 C 813.66 674.17 824.49 667.72 832.00 671.00
M 860.00 687.00 
C 862.77 695.00 860.63 706.07 861.00 715.00 C 861.37 723.93 861.80 734.89 860.00 743.00
C 858.42 750.13 855.22 757.47 846.77 759.77 C 838.32 762.07 826.73 761.17 817.00 761.00 C 807.27 760.83 804.36 748.48 817.00 748.00
C 823.98 747.00 832.48 747.93 840.00 747.00
C 849.60 744.62 849.09 734.43 848.00 725.00 C 846.91 715.57 850.11 703.61 848.00 694.00 C 845.89 684.39 855.85 675.02 860.00 687.00
M 776.00 703.00 
C 781.08 710.06 789.31 720.32 775.00 720.00 C 760.69 719.68 771.07 708.80 776.00 703.00
M 832.00 707.00 
C 839.30 710.19 832.54 722.15 825.00 719.00 C 817.46 715.85 806.88 722.28 799.33 718.67 C 791.78 715.06 798.37 704.01 806.00 707.00 C 813.63 709.99 824.55 703.75 832.00 707.00 Z"/>
</g>
<g fill="None" fill-opacity="0.0" stroke="#EDEBEE" stroke-opacity="1.00" stroke-width="0.3"><path d="
M 860.00 659.00 
C 861.36 651.97 859.82 644.24 860.00 637.00 C 860.18 629.76 860.75 621.26 860.00 614.00
C 857.49 592.97 832.73 596.82 817.00 597.00
C 815.42 578.33 784.70 578.39 783.00 597.00
C 766.52 596.29 738.77 593.39 740.00 617.00
C 744.00 617.00 748.00 617.00 752.00 617.00
C 754.28 608.68 765.83 606.87 773.99 609.01 C 782.16 611.15 792.80 611.11 802.00 611.00 C 811.20 610.89 821.66 610.97 830.00 609.00 C 838.34 607.03 849.45 611.26 848.00 621.00 C 846.55 630.74 850.62 641.46 848.00 651.00 C 845.38 660.54 856.21 670.37 860.00 659.00
M 801.00 591.00 
C 807.21 591.82 805.43 603.54 798.99 601.99 C 792.55 600.44 794.75 590.18 801.00 591.00 Z"/>
</g>
<g fill="None" fill-opacity="0.0" stroke="#3D3F45" stroke-opacity="1.00" stroke-width="0.3"><path d="
M 801.00 591.00 
C 794.75 590.18 792.55 600.44 798.99 601.99 C 805.43 603.54 807.21 591.82 801.00 591.00 Z"/>
</g>
<g fill="None" fill-opacity="0.0" stroke="#919095" stroke-opacity="1.00" stroke-width="0.3"><path d="
M 860.00 659.00 
C 863.66 648.02 862.50 625.26 860.00 614.00
C 860.75 621.26 860.18 629.76 860.00 637.00 C 859.82 644.24 861.36 651.97 860.00 659.00 Z"/>
</g>
<g fill="None" fill-opacity="0.0" stroke="#E8E7EB" stroke-opacity="1.00" stroke-width="0.3"><path d="
M 776.00 630.00 
C 771.68 636.22 760.69 646.54 775.00 647.00 C 789.31 647.46 781.80 636.38 776.00 630.00 Z"/>
</g>
<g fill="None" fill-opacity="0.0" stroke="#EFECEF" stroke-opacity="1.00" stroke-width="0.3"><path d="
M 740.00 727.00 
C 740.00 731.96 739.66 737.05 740.00 742.00
C 740.56 750.30 745.09 755.51 752.78 759.22 C 760.47 762.94 772.31 759.39 781.00 761.00 C 789.69 762.61 797.20 751.77 787.00 748.00
C 778.33 746.08 768.13 749.47 760.00 747.00
C 748.50 743.51 752.00 726.03 752.00 716.00
C 752.00 703.49 753.05 690.46 752.00 678.00 C 750.95 665.54 754.70 651.17 752.00 639.00
C 746.60 624.37 736.57 643.95 740.00 654.00 C 743.43 664.05 738.66 679.98 740.00 691.00 C 741.34 702.02 740.00 715.74 740.00 727.00 Z"/>
</g>
<g fill="None" fill-opacity="0.0" stroke="#E6E4E7" stroke-opacity="1.00" stroke-width="0.3"><path d="
M 831.00 634.00 
C 823.46 630.93 812.86 636.41 805.00 634.00 C 797.15 631.59 792.27 644.51 800.33 646.67 C 808.39 648.83 818.04 645.18 826.00 647.00 C 833.95 648.82 838.16 636.91 831.00 634.00 Z"/>
</g>
<g fill="None" fill-opacity="0.0" stroke="#858589" stroke-opacity="1.00" stroke-width="0.3"><path d="
M 752.00 716.00 
C 753.12 704.45 754.07 689.23 753.00 677.00 C 751.93 664.77 756.07 650.02 752.00 639.00
C 754.70 651.17 750.95 665.54 752.00 678.00 C 753.05 690.46 752.00 703.49 752.00 716.00 Z"/>
</g>
<g fill="None" fill-opacity="0.0" stroke="#EAE9ED" stroke-opacity="1.00" stroke-width="0.3"><path d="
M 770.00 683.00 
C 772.04 683.69 778.96 683.69 781.00 683.00
C 787.58 679.59 778.99 670.42 775.00 667.00
C 773.62 671.96 762.79 679.21 770.00 683.00 Z"/>
</g>
<g fill="None" fill-opacity="0.0" stroke="#EAE8EB" stroke-opacity="1.00" stroke-width="0.3"><path d="
M 832.00 671.00 
C 824.49 667.72 813.66 674.17 806.00 671.00 C 798.34 667.83 791.44 679.53 799.00 683.00 C 806.56 686.47 817.43 679.57 825.00 683.00 C 832.57 686.43 839.55 674.30 832.00 671.00 Z"/>
</g>
<g fill="None" fill-opacity="0.0" stroke="#EDEAED" stroke-opacity="1.00" stroke-width="0.3"><path d="
M 840.00 747.00 
C 833.07 748.72 824.64 747.71 817.00 748.00
C 804.36 748.48 807.27 760.83 817.00 761.00 C 826.73 761.17 838.32 762.07 846.77 759.77 C 855.22 757.47 858.42 750.13 860.00 743.00
C 860.92 734.06 860.32 723.96 860.00 715.00 C 859.68 706.04 861.78 695.74 860.00 687.00
C 855.85 675.02 845.89 684.39 848.00 694.00 C 850.11 703.61 846.91 715.57 848.00 725.00 C 849.09 734.43 849.60 744.62 840.00 747.00 Z"/>
</g>
<g fill="None" fill-opacity="0.0" stroke="#84848B" stroke-opacity="1.00" stroke-width="0.3"><path d="
M 781.00 683.00 
C 778.96 683.69 772.04 683.69 770.00 683.00
C 772.90 684.52 778.05 684.55 781.00 683.00 Z"/>
</g>
<g fill="None" fill-opacity="0.0" stroke="#8F8E93" stroke-opacity="1.00" stroke-width="0.3"><path d="
M 860.00 743.00 
C 861.80 734.89 861.37 723.93 861.00 715.00 C 860.63 706.07 862.77 695.00 860.00 687.00
C 861.78 695.74 859.68 706.04 860.00 715.00 C 860.32 723.96 860.92 734.06 860.00 743.00 Z"/>
</g>
<g fill="None" fill-opacity="0.0" stroke="#E8E8EA" stroke-opacity="1.00" stroke-width="0.3"><path d="
M 776.00 703.00 
C 771.07 708.80 760.69 719.68 775.00 720.00 C 789.31 720.32 781.08 710.06 776.00 703.00 Z"/>
</g>
<g fill="None" fill-opacity="0.0" stroke="#EBE9EC" stroke-opacity="1.00" stroke-width="0.3"><path d="
M 832.00 707.00 
C 824.55 703.75 813.63 709.99 806.00 707.00 C 798.37 704.01 791.78 715.06 799.33 718.67 C 806.88 722.28 817.46 715.85 825.00 719.00 C 832.54 722.15 839.30 710.19 832.00 707.00 Z"/>
</g>
<g fill="None" fill-opacity="0.0" stroke="#808185" stroke-opacity="1.00" stroke-width="0.3"><path d="
M 740.00 742.00 
C 739.66 737.05 740.00 731.96 740.00 727.00
C 739.54 731.74 739.13 737.12 740.00 742.00 Z"/>
</g>
<g fill="None" fill-opacity="0.0" stroke="#848489" stroke-opacity="1.00" stroke-width="0.3"><path d="
M 787.00 748.00 
C 779.09 745.08 768.70 748.47 760.00 747.00
C 768.13 749.47 778.33 746.08 787.00 748.00 Z"/>
</g>
<g fill="None" fill-opacity="0.0" stroke="#7E7E84" stroke-opacity="1.00" stroke-width="0.3"><path d="
M 817.00 748.00 
C 824.64 747.71 833.07 748.72 840.00 747.00
C 832.48 747.93 823.98 747.00 817.00 748.00 Z"/>
</g>
<g fill="None" fill-opacity="0.0" stroke="#919295" stroke-opacity="1.00" stroke-width="0.3"><path d="
M 898.00 785.00 
C 901.89 781.67 905.63 777.94 909.00 774.00
C 905.46 777.54 901.59 781.41 898.00 785.00 Z"/>
</g>
<g fill="None" fill-opacity="0.0" stroke="#393A40" stroke-opacity="1.00" stroke-width="0.3"><path d="
M 808.00 955.00 
C 808.61 961.25 809.63 969.03 809.00 976.00
C 815.67 976.00 822.33 976.00 829.00 976.00
C 829.66 964.16 827.68 951.09 830.00 940.00
C 838.90 950.78 846.10 963.27 855.00 974.00
C 861.29 979.64 873.37 973.92 881.00 976.00
C 874.32 967.48 869.41 959.28 861.77 951.23 C 854.13 943.18 847.09 934.05 857.25 926.25 C 867.41 918.44 869.77 911.30 878.00 903.00
C 867.65 902.47 853.34 901.05 847.25 910.25 C 841.15 919.45 835.65 922.09 830.00 931.00
C 827.67 909.65 829.67 886.17 829.00 864.00
C 822.00 864.00 815.00 864.00 808.00 864.00
C 808.00 894.33 808.00 924.67 808.00 955.00 Z"/>
</g>
<g fill="None" fill-opacity="0.0" stroke="#37393F" stroke-opacity="1.00" stroke-width="0.3"><path d="
M 905.00 868.00 
C 891.10 865.27 883.48 885.85 898.00 891.00 C 912.52 896.15 919.55 870.85 905.00 868.00 Z"/>
</g>
<g fill="None" fill-opacity="0.0" stroke="#7B7C81" stroke-opacity="1.00" stroke-width="0.3"><path d="
M 498.00 870.00 
C 526.00 870.00 554.00 870.00 582.00 870.00
C 579.22 866.03 566.18 870.01 561.00 869.00 C 555.82 867.99 545.71 869.02 540.00 869.00 C 534.29 868.98 523.25 868.16 518.00 869.00 C 512.75 869.84 500.73 866.10 498.00 870.00 Z"/>
</g>
<g fill="None" fill-opacity="0.0" stroke="#36383E" stroke-opacity="1.00" stroke-width="0.3"><path d="
M 529.00 976.00 
C 536.00 976.00 543.00 976.00 550.00 976.00
C 550.67 946.83 548.67 916.34 551.00 888.00
C 561.25 887.07 571.73 888.70 582.00 888.00
C 582.95 886.65 582.95 871.35 582.00 870.00
C 554.00 870.00 526.00 870.00 498.00 870.00
C 498.00 876.00 498.00 882.00 498.00 888.00
C 508.33 888.00 518.67 888.00 529.00 888.00
C 529.09 893.89 528.87 900.15 529.00 906.00 C 529.13 911.85 528.76 918.28 529.00 924.00 C 529.24 929.72 528.45 935.53 529.00 941.00 C 529.55 946.47 527.84 953.98 529.00 959.00 C 530.16 964.02 526.28 972.12 529.00 976.00 Z"/>
</g>
<g fill="None" fill-opacity="0.0" stroke="#36373D" stroke-opacity="1.00" stroke-width="0.3"><path d="
M 1074.00 892.00 
C 1076.44 884.31 1078.07 872.40 1068.67 871.33 C 1059.27 870.26 1049.46 868.63 1041.08 871.08 C 1032.69 873.52 1028.90 877.07 1023.30 883.30 C 1017.70 889.53 1017.88 899.42 1019.00 907.00 C 1020.13 914.58 1024.38 920.00 1029.00 926.00
C 1013.31 934.96 1011.36 959.90 1026.25 970.75 C 1041.13 981.60 1062.30 980.04 1076.00 968.00
C 1080.72 971.57 1084.96 977.51 1091.00 979.00
C 1092.21 973.63 1099.76 971.38 1101.00 966.00
C 1095.77 962.00 1091.07 957.36 1086.00 953.00
C 1093.94 945.65 1084.85 925.17 1099.00 927.00
C 1098.27 920.73 1100.19 915.12 1100.00 909.00
C 1084.45 909.16 1069.42 907.28 1054.00 907.00
C 1053.02 911.03 1051.98 915.01 1051.00 919.00
C 1043.77 913.58 1031.85 901.67 1040.75 892.75 C 1049.66 883.84 1063.87 889.83 1074.00 892.00
M 1074.00 927.00 
C 1073.93 931.48 1072.90 935.71 1072.00 940.00
C 1067.35 936.15 1062.78 931.63 1059.00 927.00
C 1064.00 927.00 1069.00 927.00 1074.00 927.00
M 1060.00 956.00 
C 1050.10 964.84 1030.76 955.04 1037.78 942.78 C 1044.80 930.51 1054.87 951.67 1060.00 956.00 Z"/>
</g>
<g fill="None" fill-opacity="0.0" stroke="#807F83" stroke-opacity="1.00" stroke-width="0.3"><path d="
M 529.00 976.00 
C 531.58 979.69 541.97 976.22 546.99 976.99 C 552.01 977.77 551.26 967.96 551.00 963.00 C 550.74 958.04 551.12 949.59 551.00 944.00 C 550.88 938.41 551.05 931.91 551.00 926.00 C 550.95 920.09 551.02 913.01 551.00 907.00 C 550.98 900.99 551.00 895.01 551.00 889.00
C 551.00 888.50 551.00 888.00 551.00 888.00
C 548.67 916.34 550.67 946.83 550.00 976.00
C 543.00 976.00 536.00 976.00 529.00 976.00 Z"/>
</g>
<g fill="None" fill-opacity="0.0" stroke="#C2C1C6" stroke-opacity="1.00" stroke-width="0.3"><path d="
M 551.00 889.00 
C 555.23 889.38 563.06 889.44 567.00 889.00 C 570.94 888.56 579.88 891.03 582.00 888.00
C 571.73 888.70 561.25 887.07 551.00 888.00
C 551.00 888.00 551.00 888.50 551.00 889.00 Z"/>
</g>
<g fill="None" fill-opacity="0.0" stroke="#83868A" stroke-opacity="1.00" stroke-width="0.3"><path d="
M 679.00 902.00 
C 682.28 901.87 685.72 901.82 689.00 902.00
C 685.64 901.45 682.40 901.51 679.00 902.00 Z"/>
</g>
<g fill="None" fill-opacity="0.0" stroke="#37383E" stroke-opacity="1.00" stroke-width="0.3"><path d="
M 593.00 976.00 
C 599.67 976.00 606.33 976.00 613.00 976.00
C 614.06 963.03 611.48 946.86 613.22 934.22 C 614.96 921.59 630.53 919.31 640.00 922.00
C 640.00 915.33 640.00 908.67 640.00 902.00
C 628.06 899.61 617.53 906.20 612.00 916.00
C 612.00 911.67 612.00 907.33 612.00 903.00
C 605.67 903.00 599.33 903.00 593.00 903.00
C 593.22 909.04 592.71 916.06 593.00 922.00 C 593.29 927.94 592.41 934.35 593.00 940.00 C 593.59 945.65 591.72 952.86 593.00 958.00 C 594.28 963.14 590.17 971.96 593.00 976.00 Z"/>
</g>
<g fill="None" fill-opacity="0.0" stroke="#37383E" stroke-opacity="1.00" stroke-width="0.3"><path d="
M 697.00 976.00 
C 703.33 976.00 709.67 976.00 716.00 976.00
C 719.15 971.50 714.43 960.51 716.00 955.00 C 717.58 949.49 715.11 940.71 716.00 935.00 C 716.89 929.29 715.43 922.43 713.30 917.70 C 711.18 912.96 708.10 910.19 704.08 906.92 C 700.07 903.65 694.15 902.28 689.00 902.00
C 685.72 901.82 682.28 901.87 679.00 902.00
C 669.56 901.99 661.27 906.16 653.00 910.00
C 653.47 915.32 658.84 918.89 660.00 924.00
C 670.92 917.58 697.29 911.55 696.00 932.00
C 676.71 926.25 644.36 935.55 648.22 959.78 C 652.08 984.00 684.76 982.27 697.00 967.00
C 698.06 969.26 695.59 973.99 697.00 976.00
M 696.00 945.00 
C 699.68 956.29 680.76 971.99 670.77 960.23 C 660.78 948.47 685.97 940.61 696.00 945.00 Z"/>
</g>
<g fill="None" fill-opacity="0.0" stroke="#37383E" stroke-opacity="1.00" stroke-width="0.3"><path d="
M 731.00 937.00 
C 730.95 939.65 730.90 942.35 731.00 945.00
C 732.54 976.80 775.36 988.02 797.00 968.00
C 793.07 963.28 788.97 958.76 785.00 954.00
C 772.39 966.57 750.99 958.00 751.00 940.00 C 751.01 922.00 772.22 913.59 785.00 926.00
C 787.34 920.21 794.82 917.30 796.00 911.00
C 772.86 891.11 731.64 904.86 731.00 937.00 Z"/>
</g>
<g fill="None" fill-opacity="0.0" stroke="#36373E" stroke-opacity="1.00" stroke-width="0.3"><path d="
M 955.00 910.00 
C 953.78 911.33 952.88 913.43 951.00 914.00
C 951.00 910.67 951.00 907.33 951.00 904.00
C 945.66 901.68 938.16 903.66 932.00 903.00
C 932.22 909.04 931.71 916.06 932.00 922.00 C 932.29 927.94 931.41 934.35 932.00 940.00 C 932.59 945.65 930.72 952.86 932.00 958.00 C 933.28 963.14 929.17 971.96 932.00 976.00
C 939.00 976.00 946.00 976.00 953.00 976.00
C 956.06 971.62 951.59 960.37 953.00 955.00 C 954.41 949.63 952.48 940.47 953.00 935.00 C 953.52 929.53 954.08 924.23 959.32 921.32 C 964.57 918.41 970.53 917.86 975.75 921.25 C 980.98 924.63 980.58 930.43 981.00 936.00 C 981.42 941.57 979.72 950.65 981.00 956.00 C 982.28 961.35 978.02 971.74 981.00 976.00
C 987.56 975.29 994.47 976.94 1001.00 976.00
C 1001.30 975.78 1001.95 975.35 1002.00 975.00
C 998.02 961.71 1001.00 942.41 1001.00 928.00
C 1001.00 904.25 971.47 892.01 955.00 910.00 Z"/>
</g>
<g fill="None" fill-opacity="0.0" stroke="#8C8C90" stroke-opacity="1.00" stroke-width="0.3"><path d="
M 911.00 903.00 
C 911.04 903.00 911.00 904.00 911.00 904.00
C 911.00 928.00 911.00 952.00 911.00 976.00
C 904.67 976.00 898.33 976.00 892.00 976.00
C 892.00 952.00 892.00 928.00 892.00 904.00
C 892.00 903.50 892.00 903.00 892.00 903.00
C 889.20 913.29 892.29 922.57 891.00 934.00 C 889.71 945.43 893.07 953.58 891.00 966.00 C 888.93 978.42 900.92 978.56 912.00 977.00
C 911.41 969.25 912.79 959.56 912.00 952.00 C 911.21 944.44 913.51 933.84 912.00 927.00 C 910.49 920.16 915.70 907.52 911.00 903.00 Z"/>
</g>
<g fill="None" fill-opacity="0.0" stroke="#55565B" stroke-opacity="1.00" stroke-width="0.3"><path d="
M 892.00 904.00 
C 897.99 904.54 905.01 904.54 911.00 904.00
C 911.00 904.00 911.04 903.00 911.00 903.00
C 905.01 902.46 897.99 902.45 892.00 903.00
C 892.00 903.00 892.00 903.50 892.00 904.00 Z"/>
</g>
<g fill="None" fill-opacity="0.0" stroke="#34353C" stroke-opacity="1.00" stroke-width="0.3"><path d="
M 911.00 904.00 
C 905.01 904.54 897.99 904.54 892.00 904.00
C 892.00 928.00 892.00 952.00 892.00 976.00
C 898.33 976.00 904.67 976.00 911.00 976.00
C 911.00 952.00 911.00 928.00 911.00 904.00 Z"/>
</g>
<g fill="None" fill-opacity="0.0" stroke="#9C9CA0" stroke-opacity="1.00" stroke-width="0.3"><path d="
M 955.00 910.00 
C 953.71 910.17 953.25 911.70 952.00 912.00
C 951.62 909.38 952.90 905.90 951.00 904.00
C 951.00 907.33 951.00 910.67 951.00 914.00
C 952.88 913.43 953.78 911.33 955.00 910.00 Z"/>
</g>
<g fill="None" fill-opacity="0.0" stroke="#E5E3E8" stroke-opacity="1.00" stroke-width="0.3"><path d="
M 1074.00 927.00 
C 1069.00 927.00 1064.00 927.00 1059.00 927.00
C 1062.78 931.63 1067.35 936.15 1072.00 940.00
C 1072.90 935.71 1073.93 931.48 1074.00 927.00 Z"/>
</g>
<g fill="None" fill-opacity="0.0" stroke="#838388" stroke-opacity="1.00" stroke-width="0.3"><path d="
M 1002.00 975.00 
C 1004.10 960.34 1002.36 942.01 1001.00 928.00
C 1001.00 942.41 998.02 961.71 1002.00 975.00 Z"/>
</g>
<g fill="None" fill-opacity="0.0" stroke="#96969A" stroke-opacity="1.00" stroke-width="0.3"><path d="
M 731.00 945.00 
C 730.90 942.35 730.95 939.65 731.00 937.00
C 730.68 939.65 730.61 942.27 731.00 945.00 Z"/>
</g>
<g fill="None" fill-opacity="0.0" stroke="#E4E1E6" stroke-opacity="1.00" stroke-width="0.3"><path d="
M 1060.00 956.00 
C 1054.87 951.67 1044.80 930.51 1037.78 942.78 C 1030.76 955.04 1050.10 964.84 1060.00 956.00 Z"/>
</g>
<g fill="None" fill-opacity="0.0" stroke="#E9E8EB" stroke-opacity="1.00" stroke-width="0.3"><path d="
M 696.00 945.00 
C 685.97 940.61 660.78 948.47 670.77 960.23 C 680.76 971.99 699.68 956.29 696.00 945.00 Z"/>
</g>
<g fill="None" fill-opacity="0.0" stroke="#96969B" stroke-opacity="1.00" stroke-width="0.3"><path d="
M 829.00 976.00 
C 822.33 976.00 815.67 976.00 809.00 976.00
C 809.63 969.03 808.61 961.25 808.00 955.00
C 808.00 959.28 806.77 973.26 808.78 976.22 C 810.79 979.19 827.91 977.56 829.00 976.00 Z"/>
</g>
<g fill="None" fill-opacity="0.0" stroke="#949497" stroke-opacity="1.00" stroke-width="0.3"><path d="
M 881.00 976.00 
C 873.37 973.92 861.29 979.64 855.00 974.00
C 860.30 980.38 874.06 976.27 881.00 976.00 Z"/>
</g>
<g fill="None" fill-opacity="0.0" stroke="#9D9EA1" stroke-opacity="1.00" stroke-width="0.3"><path d="
M 613.00 976.00 
C 606.33 976.00 599.67 976.00 593.00 976.00
C 594.43 978.04 611.52 978.11 613.00 976.00 Z"/>
</g>
<g fill="None" fill-opacity="0.0" stroke="#98999C" stroke-opacity="1.00" stroke-width="0.3"><path d="
M 716.00 976.00 
C 709.67 976.00 703.33 976.00 697.00 976.00
C 698.41 978.01 714.54 978.08 716.00 976.00 Z"/>
</g>
<g fill="None" fill-opacity="0.0" stroke="#949498" stroke-opacity="1.00" stroke-width="0.3"><path d="
M 953.00 976.00 
C 946.00 976.00 939.00 976.00 932.00 976.00
C 933.45 978.07 951.50 978.14 953.00 976.00 Z"/>
</g>
<g fill="None" fill-opacity="0.0" stroke="#8C8D93" stroke-opacity="1.00" stroke-width="0.3"><path d="
M 1001.00 976.00 
C 994.47 976.94 987.56 975.29 981.00 976.00
C 982.78 978.54 998.71 977.69 1001.00 976.00 Z"/>
</g>
<g fill="None" fill-opacity="0.0" stroke="#3B3A40" stroke-opacity="1.00" stroke-width="0.3"><path d="
M 466.00 1007.00 
C 439.89 1001.59 429.16 1039.25 455.00 1047.00 C 480.84 1054.75 491.89 1012.36 466.00 1007.00
M 463.00 1013.00 
C 479.85 1015.60 475.09 1044.21 458.00 1041.00 C 440.91 1037.79 446.12 1010.39 463.00 1013.00 Z"/>
</g>
<g fill="None" fill-opacity="0.0" stroke="#C8C8CB" stroke-opacity="1.00" stroke-width="0.3"><path d="
M 788.00 1046.00 
C 788.00 1033.33 788.00 1020.67 788.00 1008.00
C 790.00 1008.00 792.00 1008.00 794.00 1008.00
C 794.48 1008.09 795.00 1008.00 795.00 1008.00
C 787.47 1000.16 784.76 1018.32 787.00 1023.00 C 789.24 1027.68 783.48 1042.83 788.00 1046.00 Z"/>
</g>
<g fill="None" fill-opacity="0.0" stroke="#3C3C41" stroke-opacity="1.00" stroke-width="0.3"><path d="
M 951.00 1040.00 
C 944.81 1032.82 935.65 1046.69 928.25 1038.75 C 920.84 1030.81 922.68 1026.34 927.25 1017.25 C 931.81 1008.15 945.83 1020.61 948.74 1014.75 C 951.65 1008.88 935.77 1004.97 929.07 1008.07 C 922.38 1011.18 915.05 1018.13 916.00 1027.00 C 916.95 1035.86 919.71 1042.37 927.93 1046.07 C 936.14 1049.77 945.90 1046.46 951.00 1040.00 Z"/>
</g>
<g fill="None" fill-opacity="0.0" stroke="#3B3A3F" stroke-opacity="1.00" stroke-width="0.3"><path d="
M 1193.00 1016.00 
C 1198.83 1005.97 1179.62 1003.07 1174.25 1011.25 C 1168.88 1019.42 1171.60 1027.90 1183.32 1030.68 C 1195.05 1033.46 1182.69 1048.63 1174.00 1037.00
C 1173.29 1039.32 1169.73 1040.26 1170.00 1043.00
C 1176.67 1047.64 1189.61 1050.17 1194.75 1041.75 C 1199.88 1033.32 1195.14 1025.63 1184.68 1023.32 C 1174.22 1021.02 1183.21 1006.24 1193.00 1016.00 Z"/>
</g>
<g fill="None" fill-opacity="0.0" stroke="#37373C" stroke-opacity="1.00" stroke-width="0.3"><path d="
M 433.00 1008.00 
C 427.35 1008.15 420.54 1007.80 415.00 1008.00 C 409.46 1008.20 400.78 1005.71 403.00 1014.00
C 406.67 1014.00 410.33 1014.00 414.00 1014.00
C 413.99 1020.37 414.01 1027.73 414.00 1034.00 C 413.99 1040.27 412.06 1048.49 421.00 1046.00
C 421.00 1035.33 421.00 1024.67 421.00 1014.00
C 426.07 1013.60 435.56 1016.44 433.00 1008.00 Z"/>
</g>
<g fill="None" fill-opacity="0.0" stroke="#3A3A3F" stroke-opacity="1.00" stroke-width="0.3"><path d="
M 520.00 1035.00 
C 510.45 1026.54 508.40 1006.09 493.00 1008.00
C 493.47 1014.71 492.38 1023.50 493.00 1030.00 C 493.62 1036.50 489.56 1047.82 499.00 1046.00
C 499.65 1036.49 497.69 1025.76 500.00 1017.00
C 508.79 1026.69 512.50 1047.23 528.00 1046.00
C 527.75 1038.88 528.34 1029.94 528.00 1023.00 C 527.66 1016.06 531.04 1005.57 521.00 1008.00
C 520.35 1016.84 522.31 1026.91 520.00 1035.00 Z"/>
</g>
<g fill="None" fill-opacity="0.0" stroke="#38383D" stroke-opacity="1.00" stroke-width="0.3"><path d="
M 543.00 1035.00 
C 544.27 1036.72 547.28 1035.65 549.00 1036.00
C 552.66 1028.44 546.26 1016.01 549.00 1008.00
C 547.00 1008.00 545.00 1008.00 543.00 1008.00
C 543.00 1017.00 543.00 1026.00 543.00 1035.00 Z"/>
</g>
<g fill="None" fill-opacity="0.0" stroke="#A4A2A5" stroke-opacity="1.00" stroke-width="0.3"><path d="
M 549.00 1036.00 
C 547.80 1038.48 546.11 1038.16 543.00 1038.00
C 543.00 1040.67 543.00 1043.33 543.00 1046.00
C 550.82 1048.92 550.96 1034.76 550.00 1030.00 C 549.04 1025.24 552.89 1010.60 549.00 1008.00
C 546.26 1016.01 552.66 1028.44 549.00 1036.00 Z"/>
</g>
<g fill="None" fill-opacity="0.0" stroke="#808084" stroke-opacity="1.00" stroke-width="0.3"><path d="
M 564.00 1046.00 
C 564.00 1033.33 564.00 1020.67 564.00 1008.00
C 561.16 1009.99 562.99 1023.37 563.00 1027.00 C 563.01 1030.63 561.12 1043.98 564.00 1046.00 Z"/>
</g>
<g fill="None" fill-opacity="0.0" stroke="#37383D" stroke-opacity="1.00" stroke-width="0.3"><path d="
M 564.00 1046.00 
C 572.67 1046.00 581.33 1046.00 590.00 1046.00
C 589.43 1044.69 590.75 1042.19 590.00 1041.00
C 584.81 1041.82 579.15 1039.91 574.00 1041.00 C 568.85 1042.09 568.42 1031.80 571.00 1030.00
C 576.85 1028.58 590.33 1034.18 588.00 1024.00
C 582.00 1024.00 576.00 1024.00 570.00 1024.00
C 570.00 1020.67 570.00 1017.33 570.00 1014.00
C 576.48 1012.13 591.90 1018.90 590.00 1008.00
C 586.22 1008.80 580.59 1006.94 577.00 1008.00 C 573.41 1009.06 566.91 1005.96 564.00 1008.00
C 564.00 1020.67 564.00 1033.33 564.00 1046.00 Z"/>
</g>
<g fill="None" fill-opacity="0.0" stroke="#3B3B41" stroke-opacity="1.00" stroke-width="0.3"><path d="
M 613.00 1035.00 
C 606.49 1027.35 611.73 1006.77 598.00 1008.00
C 599.92 1015.28 601.82 1023.71 604.22 1030.78 C 606.63 1037.84 606.93 1048.66 617.00 1046.00
C 619.16 1036.77 622.01 1027.32 626.00 1019.00
C 631.78 1027.45 628.28 1047.21 642.00 1046.00
C 645.56 1033.29 650.18 1020.88 653.00 1008.00
C 639.79 1007.04 644.10 1027.19 638.00 1035.00
C 634.93 1026.10 631.70 1017.28 630.00 1008.00
C 615.27 1005.90 620.16 1027.19 613.00 1035.00 Z"/>
</g>
<g fill="None" fill-opacity="0.0" stroke="#3A3A40" stroke-opacity="1.00" stroke-width="0.3"><path d="
M 677.00 1046.00 
C 691.53 1047.89 712.99 1045.64 713.00 1027.00 C 713.00 1008.37 691.48 1006.21 677.00 1008.00
C 677.00 1020.67 677.00 1033.33 677.00 1046.00
M 684.00 1040.00 
C 684.00 1031.33 684.00 1022.67 684.00 1014.00
C 693.52 1012.76 704.85 1015.90 705.00 1027.00 C 705.14 1038.11 693.72 1041.88 684.00 1040.00 Z"/>
</g>
<g fill="None" fill-opacity="0.0" stroke="#3B3B41" stroke-opacity="1.00" stroke-width="0.3"><path d="
M 739.00 1038.00 
C 741.54 1037.75 744.33 1035.91 747.00 1038.00
C 749.35 1039.84 748.48 1044.27 751.00 1046.00
C 752.49 1046.61 756.18 1046.27 757.00 1045.00
C 754.29 1037.95 751.87 1030.37 748.31 1023.69 C 744.75 1017.02 744.75 1004.94 734.00 1008.00
C 730.50 1021.16 724.02 1033.32 719.00 1046.00
C 725.30 1047.89 728.19 1043.27 729.00 1038.00
C 732.33 1038.00 735.67 1038.00 739.00 1038.00
M 739.00 1016.00 
C 739.52 1021.33 743.15 1025.71 744.00 1031.00
C 740.33 1031.00 736.67 1031.00 733.00 1031.00
C 734.54 1026.03 735.48 1019.78 739.00 1016.00 Z"/>
</g>
<g fill="None" fill-opacity="0.0" stroke="#37373D" stroke-opacity="1.00" stroke-width="0.3"><path d="
M 767.00 1046.00 
C 769.00 1046.00 771.00 1046.00 773.00 1046.00
C 773.00 1033.33 773.00 1020.67 773.00 1008.00
C 771.00 1008.00 769.00 1008.00 767.00 1008.00
C 768.16 1013.52 765.45 1021.75 767.00 1027.00 C 768.55 1032.25 764.03 1041.75 767.00 1046.00 Z"/>
</g>
<g fill="None" fill-opacity="0.0" stroke="#838386" stroke-opacity="1.00" stroke-width="0.3"><path d="
M 767.00 1046.00 
C 768.38 1048.14 771.81 1046.48 774.00 1047.00
C 773.01 1041.65 775.33 1031.91 774.00 1027.00 C 772.67 1022.09 777.00 1010.67 773.00 1008.00
C 773.00 1020.67 773.00 1033.33 773.00 1046.00
C 771.00 1046.00 769.00 1046.00 767.00 1046.00 Z"/>
</g>
<g fill="None" fill-opacity="0.0" stroke="#35353B" stroke-opacity="1.00" stroke-width="0.3"><path d="
M 788.00 1046.00 
C 796.00 1046.00 804.00 1046.00 812.00 1046.00
C 811.43 1044.69 812.75 1042.19 812.00 1041.00
C 806.00 1041.00 800.00 1041.00 794.00 1041.00
C 794.00 1030.00 794.00 1019.00 794.00 1008.00
C 792.00 1008.00 790.00 1008.00 788.00 1008.00
C 788.00 1020.67 788.00 1033.33 788.00 1046.00 Z"/>
</g>
<g fill="None" fill-opacity="0.0" stroke="#848487" stroke-opacity="1.00" stroke-width="0.3"><path d="
M 812.00 1041.00 
C 807.33 1038.68 800.50 1040.65 795.00 1040.00
C 794.27 1029.40 795.97 1018.58 795.00 1008.00
C 795.00 1008.00 794.48 1008.09 794.00 1008.00
C 794.00 1019.00 794.00 1030.00 794.00 1041.00
C 800.00 1041.00 806.00 1041.00 812.00 1041.00 Z"/>
</g>
<g fill="None" fill-opacity="0.0" stroke="#3C3B41" stroke-opacity="1.00" stroke-width="0.3"><path d="
M 832.00 1023.00 
C 824.16 1019.88 824.84 1004.14 813.00 1008.00
C 817.42 1014.19 819.27 1020.80 824.25 1026.75 C 829.22 1032.71 822.49 1048.50 834.00 1046.00
C 830.50 1030.39 842.27 1020.19 849.00 1008.00
C 846.00 1008.00 843.00 1008.00 840.00 1008.00
C 838.49 1013.49 834.10 1017.66 832.00 1023.00 Z"/>
</g>
<g fill="None" fill-opacity="0.0" stroke="#3C3C42" stroke-opacity="1.00" stroke-width="0.3"><path d="
M 870.00 1046.00 
C 871.98 1045.30 875.13 1046.93 877.00 1046.00
C 878.50 1036.41 885.15 1038.69 893.00 1038.00 C 900.85 1037.31 899.97 1048.88 909.00 1046.00
C 905.51 1034.36 900.87 1030.82 897.77 1018.23 C 894.67 1005.64 883.69 1007.04 881.31 1019.31 C 878.92 1031.57 872.85 1034.62 870.00 1046.00
M 895.00 1031.00 
C 891.33 1031.00 887.67 1031.00 884.00 1031.00
C 885.12 1025.84 888.02 1021.25 889.00 1016.00
C 891.60 1020.41 894.31 1025.64 895.00 1031.00 Z"/>
</g>
<g fill="None" fill-opacity="0.0" stroke="#323238" stroke-opacity="1.00" stroke-width="0.3"><path d="
M 974.00 1046.00 
C 974.83 1041.54 972.90 1034.17 974.00 1030.00 C 975.10 1025.83 971.53 1016.43 975.00 1014.00
C 979.96 1013.85 988.50 1015.96 986.00 1008.00
C 980.35 1008.15 973.54 1007.80 968.00 1008.00 C 962.46 1008.20 953.79 1005.71 956.00 1014.00
C 960.00 1014.00 964.00 1014.00 968.00 1014.00
C 968.00 1024.67 968.00 1035.33 968.00 1046.00
C 969.53 1045.30 972.62 1046.92 974.00 1046.00 Z"/>
</g>
<g fill="None" fill-opacity="0.0" stroke="#8B8A8D" stroke-opacity="1.00" stroke-width="0.3"><path d="
M 996.00 1046.00 
C 996.00 1033.33 996.00 1020.67 996.00 1008.00
C 993.18 1009.89 994.99 1023.44 995.00 1027.00 C 995.01 1030.56 993.14 1044.09 996.00 1046.00 Z"/>
</g>
<g fill="None" fill-opacity="0.0" stroke="#323238" stroke-opacity="1.00" stroke-width="0.3"><path d="
M 996.00 1046.00 
C 998.00 1046.00 1000.00 1046.00 1002.00 1046.00
C 1002.00 1033.33 1002.00 1020.67 1002.00 1008.00
C 1000.46 1008.70 997.38 1007.08 996.00 1008.00
C 996.00 1020.67 996.00 1033.33 996.00 1046.00 Z"/>
</g>
<g fill="None" fill-opacity="0.0" stroke="#39393F" stroke-opacity="1.00" stroke-width="0.3"><path d="
M 1020.00 1008.00 
C 1017.00 1008.00 1014.00 1008.00 1011.00 1008.00
C 1014.37 1014.99 1016.90 1022.97 1020.03 1029.98 C 1023.15 1036.98 1023.13 1048.95 1034.00 1046.00
C 1038.93 1033.31 1043.59 1020.54 1049.00 1008.00
C 1034.00 1006.07 1038.01 1029.59 1029.00 1036.00
C 1027.33 1026.23 1021.63 1017.74 1020.00 1008.00 Z"/>
</g>
<g fill="None" fill-opacity="0.0" stroke="#37393E" stroke-opacity="1.00" stroke-width="0.3"><path d="
M 1065.00 1008.00 
C 1054.39 1005.18 1058.01 1020.27 1058.00 1027.00 C 1057.99 1033.73 1054.45 1048.86 1065.00 1046.00
C 1065.00 1033.33 1065.00 1020.67 1065.00 1008.00 Z"/>
</g>
<g fill="None" fill-opacity="0.0" stroke="#38383F" stroke-opacity="1.00" stroke-width="0.3"><path d="
M 1105.00 1008.00 
C 1099.10 1008.14 1091.76 1007.82 1086.00 1008.00 C 1080.24 1008.18 1071.95 1005.72 1074.00 1014.00
C 1078.00 1014.00 1082.00 1014.00 1086.00 1014.00
C 1085.99 1020.37 1086.01 1027.73 1086.00 1034.00 C 1085.99 1040.27 1084.06 1048.49 1093.00 1046.00
C 1093.00 1035.33 1093.00 1024.67 1093.00 1014.00
C 1098.07 1013.60 1107.56 1016.44 1105.00 1008.00 Z"/>
</g>
<g fill="None" fill-opacity="0.0" stroke="#3B3B40" stroke-opacity="1.00" stroke-width="0.3"><path d="
M 1121.00 1008.00 
C 1110.39 1005.18 1114.01 1020.27 1114.00 1027.00 C 1113.99 1033.73 1110.45 1048.86 1121.00 1046.00
C 1121.00 1033.33 1121.00 1020.67 1121.00 1008.00 Z"/>
</g>
<g fill="None" fill-opacity="0.0" stroke="#39383E" stroke-opacity="1.00" stroke-width="0.3"><path d="
M 1161.00 1008.00 
C 1152.34 1008.00 1143.66 1008.00 1135.00 1008.00
C 1135.00 1020.67 1135.00 1033.33 1135.00 1046.00
C 1142.97 1043.50 1161.66 1051.86 1161.00 1040.00
C 1154.33 1040.00 1147.67 1040.00 1141.00 1040.00
C 1142.84 1037.06 1141.68 1033.34 1142.00 1030.00
C 1147.85 1028.58 1161.33 1034.18 1159.00 1024.00
C 1153.33 1024.00 1147.67 1024.00 1142.00 1024.00
C 1142.00 1020.67 1142.00 1017.33 1142.00 1014.00
C 1148.26 1012.27 1163.06 1018.68 1161.00 1008.00 Z"/>
</g>
<g fill="None" fill-opacity="0.0" stroke="#E9E7EA" stroke-opacity="1.00" stroke-width="0.3"><path d="
M 463.00 1013.00 
C 446.12 1010.39 440.91 1037.79 458.00 1041.00 C 475.09 1044.21 479.85 1015.60 463.00 1013.00 Z"/>
</g>
<g fill="None" fill-opacity="0.0" stroke="#ECE9EC" stroke-opacity="1.00" stroke-width="0.3"><path d="
M 684.00 1040.00 
C 693.72 1041.88 705.14 1038.11 705.00 1027.00 C 704.85 1015.90 693.52 1012.76 684.00 1014.00
C 684.00 1022.67 684.00 1031.33 684.00 1040.00 Z"/>
</g>
<g fill="None" fill-opacity="0.0" stroke="#868589" stroke-opacity="1.00" stroke-width="0.3"><path d="
M 974.00 1046.00 
C 977.47 1043.68 973.90 1034.11 975.00 1030.00 C 976.10 1025.89 974.17 1018.42 975.00 1014.00
C 971.53 1016.43 975.10 1025.83 974.00 1030.00 C 972.90 1034.17 974.83 1041.54 974.00 1046.00 Z"/>
</g>
<g fill="None" fill-opacity="0.0" stroke="#E5E4E8" stroke-opacity="1.00" stroke-width="0.3"><path d="
M 739.00 1016.00 
C 735.48 1019.78 734.54 1026.03 733.00 1031.00
C 736.67 1031.00 740.33 1031.00 744.00 1031.00
C 743.15 1025.71 739.52 1021.33 739.00 1016.00 Z"/>
</g>
<g fill="None" fill-opacity="0.0" stroke="#E4E4E8" stroke-opacity="1.00" stroke-width="0.3"><path d="
M 895.00 1031.00 
C 894.31 1025.64 891.60 1020.41 889.00 1016.00
C 888.02 1021.25 885.12 1025.84 884.00 1031.00
C 887.67 1031.00 891.33 1031.00 895.00 1031.00 Z"/>
</g>
<g fill="None" fill-opacity="0.0" stroke="#88888B" stroke-opacity="1.00" stroke-width="0.3"><path d="
M 590.00 1041.00 
C 584.66 1038.68 577.16 1040.66 571.00 1040.00
C 571.00 1036.67 571.00 1033.33 571.00 1030.00
C 568.42 1031.80 568.85 1042.09 574.00 1041.00 C 579.15 1039.91 584.81 1041.82 590.00 1041.00 Z"/>
</g>
<g fill="None" fill-opacity="0.0" stroke="#68676C" stroke-opacity="1.00" stroke-width="0.3"><path d="
M 543.00 1038.00 
C 546.11 1038.16 547.80 1038.48 549.00 1036.00
C 547.28 1035.65 544.27 1036.72 543.00 1035.00
C 543.00 1036.00 543.00 1037.00 543.00 1038.00 Z"/>
</g>
<g fill="None" fill-opacity="0.0" stroke="#87878B" stroke-opacity="1.00" stroke-width="0.3"><path d="
M 739.00 1038.00 
C 740.86 1038.00 745.40 1037.14 747.00 1038.00
C 744.33 1035.91 741.54 1037.75 739.00 1038.00 Z"/>
</g>
<g fill="None" fill-opacity="0.0" stroke="#979599" stroke-opacity="1.00" stroke-width="0.3"><path d="
M 751.00 1046.00 
C 754.07 1048.11 756.89 1047.33 757.00 1045.00
C 756.18 1046.27 752.49 1046.61 751.00 1046.00 Z"/>
</g>
<g fill="None" fill-opacity="0.0" stroke="#86858D" stroke-opacity="1.00" stroke-width="0.3"><path d="
M 877.00 1046.00 
C 875.13 1046.93 871.98 1045.30 870.00 1046.00
C 871.41 1047.91 875.46 1047.20 877.00 1046.00 Z"/>
</g>
<g fill="#F7F5F7" fill-opacity="1.00" stroke="None">
<path d="
M 0.00 1600.00 
L 1600.00 1600.00
L 1600.00 0.00
L 0.00 0.00
L 0.00 1600.00
M 909.00 774.00 
C 905.63 777.94 901.89 781.67 898.00 785.00
C 838.32 836.00 749.69 834.38 694.75 777.25 C 639.81 720.11 641.16 629.07 696.25 573.25 C 751.33 517.43 842.73 515.88 900.25 569.75 C 957.76 623.63 959.57 714.82 909.00 774.00
M 881.00 976.00 
C 874.06 976.27 860.30 980.38 855.00 974.00
C 846.10 963.27 838.90 950.78 830.00 940.00
C 827.68 951.09 829.66 964.16 829.00 976.00
C 827.91 977.56 810.79 979.19 808.78 976.22 C 806.77 973.26 808.00 959.28 808.00 955.00
C 808.00 924.67 808.00 894.33 808.00 864.00
C 815.00 864.00 822.00 864.00 829.00 864.00
C 829.67 886.17 827.67 909.65 830.00 931.00
C 835.65 922.09 841.15 919.45 847.25 910.25 C 853.34 901.05 867.65 902.47 878.00 903.00
C 869.77 911.30 867.41 918.44 857.25 926.25 C 847.09 934.05 854.13 943.18 861.77 951.23 C 869.41 959.28 874.32 967.48 881.00 976.00
M 905.00 868.00 
C 919.55 870.85 912.52 896.15 898.00 891.00 C 883.48 885.85 891.10 865.27 905.00 868.00
M 582.00 870.00 
C 582.95 871.35 582.95 886.65 582.00 888.00
C 579.88 891.03 570.94 888.56 567.00 889.00 C 563.06 889.44 555.23 889.38 551.00 889.00
C 551.00 895.01 550.98 900.99 551.00 907.00 C 551.02 913.01 550.95 920.09 551.00 926.00 C 551.05 931.91 550.88 938.41 551.00 944.00 C 551.12 949.59 550.74 958.04 551.00 963.00 C 551.26 967.96 552.01 977.77 546.99 976.99 C 541.97 976.22 531.58 979.69 529.00 976.00
C 526.28 972.12 530.16 964.02 529.00 959.00 C 527.84 953.98 529.55 946.47 529.00 941.00 C 528.45 935.53 529.24 929.72 529.00 924.00 C 528.76 918.28 529.13 911.85 529.00 906.00 C 528.87 900.15 529.09 893.89 529.00 888.00
C 518.67 888.00 508.33 888.00 498.00 888.00
C 498.00 882.00 498.00 876.00 498.00 870.00
C 500.73 866.10 512.75 869.84 518.00 869.00 C 523.25 868.16 534.29 868.98 540.00 869.00 C 545.71 869.02 555.82 867.99 561.00 869.00 C 566.18 870.01 579.22 866.03 582.00 870.00
M 1074.00 892.00 
C 1063.87 889.83 1049.66 883.84 1040.75 892.75 C 1031.85 901.67 1043.77 913.58 1051.00 919.00
C 1051.98 915.01 1053.02 911.03 1054.00 907.00
C 1069.42 907.28 1084.45 909.16 1100.00 909.00
C 1100.19 915.12 1098.27 920.73 1099.00 927.00
C 1084.85 925.17 1093.94 945.65 1086.00 953.00
C 1091.07 957.36 1095.77 962.00 1101.00 966.00
C 1099.76 971.38 1092.21 973.63 1091.00 979.00
C 1084.96 977.51 1080.72 971.57 1076.00 968.00
C 1062.30 980.04 1041.13 981.60 1026.25 970.75 C 1011.36 959.90 1013.31 934.96 1029.00 926.00
C 1024.38 920.00 1020.13 914.58 1019.00 907.00 C 1017.88 899.42 1017.70 889.53 1023.30 883.30 C 1028.90 877.07 1032.69 873.52 1041.08 871.08 C 1049.46 868.63 1059.27 870.26 1068.67 871.33 C 1078.07 872.40 1076.44 884.31 1074.00 892.00
M 689.00 902.00 
C 694.15 902.28 700.07 903.65 704.08 906.92 C 708.10 910.19 711.18 912.96 713.30 917.70 C 715.43 922.43 716.89 929.29 716.00 935.00 C 715.11 940.71 717.58 949.49 716.00 955.00 C 714.43 960.51 719.15 971.50 716.00 976.00
C 714.54 978.08 698.41 978.01 697.00 976.00
C 695.59 973.99 698.06 969.26 697.00 967.00
C 684.76 982.27 652.08 984.00 648.22 959.78 C 644.36 935.55 676.71 926.25 696.00 932.00
C 697.29 911.55 670.92 917.58 660.00 924.00
C 658.84 918.89 653.47 915.32 653.00 910.00
C 661.27 906.16 669.56 901.99 679.00 902.00
C 682.40 901.51 685.64 901.45 689.00 902.00
M 613.00 976.00 
C 611.52 978.11 594.43 978.04 593.00 976.00
C 590.17 971.96 594.28 963.14 593.00 958.00 C 591.72 952.86 593.59 945.65 593.00 940.00 C 592.41 934.35 593.29 927.94 593.00 922.00 C 592.71 916.06 593.22 909.04 593.00 903.00
C 599.33 903.00 605.67 903.00 612.00 903.00
C 612.00 907.33 612.00 911.67 612.00 916.00
C 617.53 906.20 628.06 899.61 640.00 902.00
C 640.00 908.67 640.00 915.33 640.00 922.00
C 630.53 919.31 614.96 921.59 613.22 934.22 C 611.48 946.86 614.06 963.03 613.00 976.00
M 731.00 945.00 
C 730.61 942.27 730.68 939.65 731.00 937.00
C 731.64 904.86 772.86 891.11 796.00 911.00
C 794.82 917.30 787.34 920.21 785.00 926.00
C 772.22 913.59 751.01 922.00 751.00 940.00 C 750.99 958.00 772.39 966.57 785.00 954.00
C 788.97 958.76 793.07 963.28 797.00 968.00
C 775.36 988.02 732.54 976.80 731.00 945.00
M 1001.00 928.00 
C 1002.36 942.01 1004.10 960.34 1002.00 975.00
C 1001.95 975.35 1001.30 975.78 1001.00 976.00
C 998.71 977.69 982.78 978.54 981.00 976.00
C 978.02 971.74 982.28 961.35 981.00 956.00 C 979.72 950.65 981.42 941.57 981.00 936.00 C 980.58 930.43 980.98 924.63 975.75 921.25 C 970.53 917.86 964.57 918.41 959.32 921.32 C 954.08 924.23 953.52 929.53 953.00 935.00 C 952.48 940.47 954.41 949.63 953.00 955.00 C 951.59 960.37 956.06 971.62 953.00 976.00
C 951.50 978.14 933.45 978.07 932.00 976.00
C 929.17 971.96 933.28 963.14 932.00 958.00 C 930.72 952.86 932.59 945.65 932.00 940.00 C 931.41 934.35 932.29 927.94 932.00 922.00 C 931.71 916.06 932.22 909.04 932.00 903.00
C 938.16 903.66 945.66 901.68 951.00 904.00
C 952.90 905.90 951.62 909.38 952.00 912.00
C 953.25 911.70 953.71 910.17 955.00 910.00
C 971.47 892.01 1001.00 904.25 1001.00 928.00
M 892.00 903.00 
C 897.99 902.45 905.01 902.46 911.00 903.00
C 915.70 907.52 910.49 920.16 912.00 927.00 C 913.51 933.84 911.21 944.44 912.00 952.00 C 912.79 959.56 911.41 969.25 912.00 977.00
C 900.92 978.56 888.93 978.42 891.00 966.00 C 893.07 953.58 889.71 945.43 891.00 934.00 C 892.29 922.57 889.20 913.29 892.00 903.00
M 466.00 1007.00 
C 491.89 1012.36 480.84 1054.75 455.00 1047.00 C 429.16 1039.25 439.89 1001.59 466.00 1007.00
M 795.00 1008.00 
C 795.97 1018.58 794.27 1029.40 795.00 1040.00
C 800.50 1040.65 807.33 1038.68 812.00 1041.00
C 812.75 1042.19 811.43 1044.69 812.00 1046.00
C 804.00 1046.00 796.00 1046.00 788.00 1046.00
C 783.48 1042.83 789.24 1027.68 787.00 1023.00 C 784.76 1018.32 787.47 1000.16 795.00 1008.00
M 951.00 1040.00 
C 945.90 1046.46 936.14 1049.77 927.93 1046.07 C 919.71 1042.37 916.95 1035.86 916.00 1027.00 C 915.05 1018.13 922.38 1011.18 929.07 1008.07 C 935.77 1004.97 951.65 1008.88 948.74 1014.75 C 945.83 1020.61 931.81 1008.15 927.25 1017.25 C 922.68 1026.34 920.84 1030.81 928.25 1038.75 C 935.65 1046.69 944.81 1032.82 951.00 1040.00
M 1193.00 1016.00 
C 1183.21 1006.24 1174.22 1021.02 1184.68 1023.32 C 1195.14 1025.63 1199.88 1033.32 1194.75 1041.75 C 1189.61 1050.17 1176.67 1047.64 1170.00 1043.00
C 1169.73 1040.26 1173.29 1039.32 1174.00 1037.00
C 1182.69 1048.63 1195.05 1033.46 1183.32 1030.68 C 1171.60 1027.90 1168.88 1019.42 1174.25 1011.25 C 1179.62 1003.07 1198.83 1005.97 1193.00 1016.00
M 433.00 1008.00 
C 435.56 1016.44 426.07 1013.60 421.00 1014.00
C 421.00 1024.67 421.00 1035.33 421.00 1046.00
C 412.06 1048.49 413.99 1040.27 414.00 1034.00 C 414.01 1027.73 413.99 1020.37 414.00 1014.00
C 410.33 1014.00 406.67 1014.00 403.00 1014.00
C 400.78 1005.71 409.46 1008.20 415.00 1008.00 C 420.54 1007.80 427.35 1008.15 433.00 1008.00
M 520.00 1035.00 
C 522.31 1026.91 520.35 1016.84 521.00 1008.00
C 531.04 1005.57 527.66 1016.06 528.00 1023.00 C 528.34 1029.94 527.75 1038.88 528.00 1046.00
C 512.50 1047.23 508.79 1026.69 500.00 1017.00
C 497.69 1025.76 499.65 1036.49 499.00 1046.00
C 489.56 1047.82 493.62 1036.50 493.00 1030.00 C 492.38 1023.50 493.47 1014.71 493.00 1008.00
C 508.40 1006.09 510.45 1026.54 520.00 1035.00
M 543.00 1038.00 
C 543.00 1037.00 543.00 1036.00 543.00 1035.00
C 543.00 1026.00 543.00 1017.00 543.00 1008.00
C 545.00 1008.00 547.00 1008.00 549.00 1008.00
C 552.89 1010.60 549.04 1025.24 550.00 1030.00 C 550.96 1034.76 550.82 1048.92 543.00 1046.00
C 543.00 1043.33 543.00 1040.67 543.00 1038.00
M 571.00 1030.00 
C 571.00 1033.33 571.00 1036.67 571.00 1040.00
C 577.16 1040.66 584.66 1038.68 590.00 1041.00
C 590.75 1042.19 589.43 1044.69 590.00 1046.00
C 581.33 1046.00 572.67 1046.00 564.00 1046.00
C 561.12 1043.98 563.01 1030.63 563.00 1027.00 C 562.99 1023.37 561.16 1009.99 564.00 1008.00
C 566.91 1005.96 573.41 1009.06 577.00 1008.00 C 580.59 1006.94 586.22 1008.80 590.00 1008.00
C 591.90 1018.90 576.48 1012.13 570.00 1014.00
C 570.00 1017.33 570.00 1020.67 570.00 1024.00
C 576.00 1024.00 582.00 1024.00 588.00 1024.00
C 590.33 1034.18 576.85 1028.58 571.00 1030.00
M 613.00 1035.00 
C 620.16 1027.19 615.27 1005.90 630.00 1008.00
C 631.70 1017.28 634.93 1026.10 638.00 1035.00
C 644.10 1027.19 639.79 1007.04 653.00 1008.00
C 650.18 1020.88 645.56 1033.29 642.00 1046.00
C 628.28 1047.21 631.78 1027.45 626.00 1019.00
C 622.01 1027.32 619.16 1036.77 617.00 1046.00
C 606.93 1048.66 606.63 1037.84 604.22 1030.78 C 601.82 1023.71 599.92 1015.28 598.00 1008.00
C 611.73 1006.77 606.49 1027.35 613.00 1035.00
M 677.00 1046.00 
C 677.00 1033.33 677.00 1020.67 677.00 1008.00
C 691.48 1006.21 713.00 1008.37 713.00 1027.00 C 712.99 1045.64 691.53 1047.89 677.00 1046.00
M 757.00 1045.00 
C 756.89 1047.33 754.07 1048.11 751.00 1046.00
C 748.48 1044.27 749.35 1039.84 747.00 1038.00
C 745.40 1037.14 740.86 1038.00 739.00 1038.00
C 735.67 1038.00 732.33 1038.00 729.00 1038.00
C 728.19 1043.27 725.30 1047.89 719.00 1046.00
C 724.02 1033.32 730.50 1021.16 734.00 1008.00
C 744.75 1004.94 744.75 1017.02 748.31 1023.69 C 751.87 1030.37 754.29 1037.95 757.00 1045.00
M 767.00 1046.00 
C 764.03 1041.75 768.55 1032.25 767.00 1027.00 C 765.45 1021.75 768.16 1013.52 767.00 1008.00
C 769.00 1008.00 771.00 1008.00 773.00 1008.00
C 777.00 1010.67 772.67 1022.09 774.00 1027.00 C 775.33 1031.91 773.01 1041.65 774.00 1047.00
C 771.81 1046.48 768.38 1048.14 767.00 1046.00
M 832.00 1023.00 
C 834.10 1017.66 838.49 1013.49 840.00 1008.00
C 843.00 1008.00 846.00 1008.00 849.00 1008.00
C 842.27 1020.19 830.50 1030.39 834.00 1046.00
C 822.49 1048.50 829.22 1032.71 824.25 1026.75 C 819.27 1020.80 817.42 1014.19 813.00 1008.00
C 824.84 1004.14 824.16 1019.88 832.00 1023.00
M 877.00 1046.00 
C 875.46 1047.20 871.41 1047.91 870.00 1046.00
C 872.85 1034.62 878.92 1031.57 881.31 1019.31 C 883.69 1007.04 894.67 1005.64 897.77 1018.23 C 900.87 1030.82 905.51 1034.36 909.00 1046.00
C 899.97 1048.88 900.85 1037.31 893.00 1038.00 C 885.15 1038.69 878.50 1036.41 877.00 1046.00
M 975.00 1014.00 
C 974.17 1018.42 976.10 1025.89 975.00 1030.00 C 973.90 1034.11 977.47 1043.68 974.00 1046.00
C 972.62 1046.92 969.53 1045.30 968.00 1046.00
C 968.00 1035.33 968.00 1024.67 968.00 1014.00
C 964.00 1014.00 960.00 1014.00 956.00 1014.00
C 953.79 1005.71 962.46 1008.20 968.00 1008.00 C 973.54 1007.80 980.35 1008.15 986.00 1008.00
C 988.50 1015.96 979.96 1013.85 975.00 1014.00
M 996.00 1046.00 
C 993.14 1044.09 995.01 1030.56 995.00 1027.00 C 994.99 1023.44 993.18 1009.89 996.00 1008.00
C 997.38 1007.08 1000.46 1008.70 1002.00 1008.00
C 1002.00 1020.67 1002.00 1033.33 1002.00 1046.00
C 1000.00 1046.00 998.00 1046.00 996.00 1046.00
M 1020.00 1008.00 
C 1021.63 1017.74 1027.33 1026.23 1029.00 1036.00
C 1038.01 1029.59 1034.00 1006.07 1049.00 1008.00
C 1043.59 1020.54 1038.93 1033.31 1034.00 1046.00
C 1023.13 1048.95 1023.15 1036.98 1020.03 1029.98 C 1016.90 1022.97 1014.37 1014.99 1011.00 1008.00
C 1014.00 1008.00 1017.00 1008.00 1020.00 1008.00
M 1065.00 1008.00 
C 1065.00 1020.67 1065.00 1033.33 1065.00 1046.00
C 1054.45 1048.86 1057.99 1033.73 1058.00 1027.00 C 1058.01 1020.27 1054.39 1005.18 1065.00 1008.00
M 1105.00 1008.00 
C 1107.56 1016.44 1098.07 1013.60 1093.00 1014.00
C 1093.00 1024.67 1093.00 1035.33 1093.00 1046.00
C 1084.06 1048.49 1085.99 1040.27 1086.00 1034.00 C 1086.01 1027.73 1085.99 1020.37 1086.00 1014.00
C 1082.00 1014.00 1078.00 1014.00 1074.00 1014.00
C 1071.95 1005.72 1080.24 1008.18 1086.00 1008.00 C 1091.76 1007.82 1099.10 1008.14 1105.00 1008.00
M 1121.00 1008.00 
C 1121.00 1020.67 1121.00 1033.33 1121.00 1046.00
C 1110.45 1048.86 1113.99 1033.73 1114.00 1027.00 C 1114.01 1020.27 1110.39 1005.18 1121.00 1008.00
M 1161.00 1008.00 
C 1163.06 1018.68 1148.26 1012.27 1142.00 1014.00
C 1142.00 1017.33 1142.00 1020.67 1142.00 1024.00
C 1147.67 1024.00 1153.33 1024.00 1159.00 1024.00
C 1161.33 1034.18 1147.85 1028.58 1142.00 1030.00
C 1141.68 1033.34 1142.84 1037.06 1141.00 1040.00
C 1147.67 1040.00 1154.33 1040.00 1161.00 1040.00
C 1161.66 1051.86 1142.97 1043.50 1135.00 1046.00
C 1135.00 1033.33 1135.00 1020.67 1135.00 1008.00
C 1143.66 1008.00 1152.34 1008.00 1161.00 1008.00 Z"/>
</g>
<g fill="#34363D" fill-opacity="1.00" stroke="None">
<path d="
M 898.00 785.00 
C 901.59 781.41 905.46 777.54 909.00 774.00
C 959.57 714.82 957.76 623.63 900.25 569.75 C 842.73 515.88 751.33 517.43 696.25 573.25 C 641.16 629.07 639.81 720.11 694.75 777.25 C 749.69 834.38 838.32 836.00 898.00 785.00
M 860.00 614.00 
C 862.50 625.26 863.66 648.02 860.00 659.00
C 856.21 670.37 845.38 660.54 848.00 651.00 C 850.62 641.46 846.55 630.74 848.00 621.00 C 849.45 611.26 838.34 607.03 830.00 609.00 C 821.66 610.97 811.20 610.89 802.00 611.00 C 792.80 611.11 782.16 611.15 773.99 609.01 C 765.83 606.87 754.28 608.68 752.00 617.00
C 748.00 617.00 744.00 617.00 740.00 617.00
C 738.77 593.39 766.52 596.29 783.00 597.00
C 784.70 578.39 815.42 578.33 817.00 597.00
C 832.73 596.82 857.49 592.97 860.00 614.00
M 776.00 630.00 
C 781.80 636.38 789.31 647.46 775.00 647.00 C 760.69 646.54 771.68 636.22 776.00 630.00
M 752.00 639.00 
C 756.07 650.02 751.93 664.77 753.00 677.00 C 754.07 689.23 753.12 704.45 752.00 716.00
C 752.00 726.03 748.50 743.51 760.00 747.00
C 768.70 748.47 779.09 745.08 787.00 748.00
C 797.20 751.77 789.69 762.61 781.00 761.00 C 772.31 759.39 760.47 762.94 752.78 759.22 C 745.09 755.51 740.56 750.30 740.00 742.00
C 739.13 737.12 739.54 731.74 740.00 727.00
C 740.00 715.74 741.34 702.02 740.00 691.00 C 738.66 679.98 743.43 664.05 740.00 654.00 C 736.57 643.95 746.60 624.37 752.00 639.00
M 831.00 634.00 
C 838.16 636.91 833.95 648.82 826.00 647.00 C 818.04 645.18 808.39 648.83 800.33 646.67 C 792.27 644.51 797.15 631.59 805.00 634.00 C 812.86 636.41 823.46 630.93 831.00 634.00
M 781.00 683.00 
C 778.05 684.55 772.90 684.52 770.00 683.00
C 762.79 679.21 773.62 671.96 775.00 667.00
C 778.99 670.42 787.58 679.59 781.00 683.00
M 832.00 671.00 
C 839.55 674.30 832.57 686.43 825.00 683.00 C 817.43 679.57 806.56 686.47 799.00 683.00 C 791.44 679.53 798.34 667.83 806.00 671.00 C 813.66 674.17 824.49 667.72 832.00 671.00
M 860.00 687.00 
C 862.77 695.00 860.63 706.07 861.00 715.00 C 861.37 723.93 861.80 734.89 860.00 743.00
C 858.42 750.13 855.22 757.47 846.77 759.77 C 838.32 762.07 826.73 761.17 817.00 761.00 C 807.27 760.83 804.36 748.48 817.00 748.00
C 823.98 747.00 832.48 747.93 840.00 747.00
C 849.60 744.62 849.09 734.43 848.00 725.00 C 846.91 715.57 850.11 703.61 848.00 694.00 C 845.89 684.39 855.85 675.02 860.00 687.00
M 776.00 703.00 
C 781.08 710.06 789.31 720.32 775.00 720.00 C 760.69 719.68 771.07 708.80 776.00 703.00
M 832.00 707.00 
C 839.30 710.19 832.54 722.15 825.00 719.00 C 817.46 715.85 806.88 722.28 799.33 718.67 C 791.78 715.06 798.37 704.01 806.00 707.00 C 813.63 709.99 824.55 703.75 832.00 707.00 Z"/>
</g>
<g fill="#EDEBEE" fill-opacity="1.00" stroke="None">
<path d="
M 860.00 659.00 
C 861.36 651.97 859.82 644.24 860.00 637.00 C 860.18 629.76 860.75 621.26 860.00 614.00
C 857.49 592.97 832.73 596.82 817.00 597.00
C 815.42 578.33 784.70 578.39 783.00 597.00
C 766.52 596.29 738.77 593.39 740.00 617.00
C 744.00 617.00 748.00 617.00 752.00 617.00
C 754.28 608.68 765.83 606.87 773.99 609.01 C 782.16 611.15 792.80 611.11 802.00 611.00 C 811.20 610.89 821.66 610.97 830.00 609.00 C 838.34 607.03 849.45 611.26 848.00 621.00 C 846.55 630.74 850.62 641.46 848.00 651.00 C 845.38 660.54 856.21 670.37 860.00 659.00
M 801.00 591.00 
C 807.21 591.82 805.43 603.54 798.99 601.99 C 792.55 600.44 794.75 590.18 801.00 591.00 Z"/>
</g>
<g fill="#3D3F45" fill-opacity="1.00" stroke="None">
<path d="
M 801.00 591.00 
C 794.75 590.18 792.55 600.44 798.99 601.99 C 805.43 603.54 807.21 591.82 801.00 591.00 Z"/>
</g>
<g fill="#919095" fill-opacity="1.00" stroke="None">
<path d="
M 860.00 659.00 
C 863.66 648.02 862.50 625.26 860.00 614.00
C 860.75 621.26 860.18 629.76 860.00 637.00 C 859.82 644.24 861.36 651.97 860.00 659.00 Z"/>
</g>
<g fill="#E8E7EB" fill-opacity="1.00" stroke="None">
<path d="
M 776.00 630.00 
C 771.68 636.22 760.69 646.54 775.00 647.00 C 789.31 647.46 781.80 636.38 776.00 630.00 Z"/>
</g>
<g fill="#EFECEF" fill-opacity="1.00" stroke="None">
<path d="
M 740.00 727.00 
C 740.00 731.96 739.66 737.05 740.00 742.00
C 740.56 750.30 745.09 755.51 752.78 759.22 C 760.47 762.94 772.31 759.39 781.00 761.00 C 789.69 762.61 797.20 751.77 787.00 748.00
C 778.33 746.08 768.13 749.47 760.00 747.00
C 748.50 743.51 752.00 726.03 752.00 716.00
C 752.00 703.49 753.05 690.46 752.00 678.00 C 750.95 665.54 754.70 651.17 752.00 639.00
C 746.60 624.37 736.57 643.95 740.00 654.00 C 743.43 664.05 738.66 679.98 740.00 691.00 C 741.34 702.02 740.00 715.74 740.00 727.00 Z"/>
</g>
<g fill="#E6E4E7" fill-opacity="1.00" stroke="None">
<path d="
M 831.00 634.00 
C 823.46 630.93 812.86 636.41 805.00 634.00 C 797.15 631.59 792.27 644.51 800.33 646.67 C 808.39 648.83 818.04 645.18 826.00 647.00 C 833.95 648.82 838.16 636.91 831.00 634.00 Z"/>
</g>
<g fill="#858589" fill-opacity="1.00" stroke="None">
<path d="
M 752.00 716.00 
C 753.12 704.45 754.07 689.23 753.00 677.00 C 751.93 664.77 756.07 650.02 752.00 639.00
C 754.70 651.17 750.95 665.54 752.00 678.00 C 753.05 690.46 752.00 703.49 752.00 716.00 Z"/>
</g>
<g fill="#EAE9ED" fill-opacity="1.00" stroke="None">
<path d="
M 770.00 683.00 
C 772.04 683.69 778.96 683.69 781.00 683.00
C 787.58 679.59 778.99 670.42 775.00 667.00
C 773.62 671.96 762.79 679.21 770.00 683.00 Z"/>
</g>
<g fill="#EAE8EB" fill-opacity="1.00" stroke="None">
<path d="
M 832.00 671.00 
C 824.49 667.72 813.66 674.17 806.00 671.00 C 798.34 667.83 791.44 679.53 799.00 683.00 C 806.56 686.47 817.43 679.57 825.00 683.00 C 832.57 686.43 839.55 674.30 832.00 671.00 Z"/>
</g>
<g fill="#EDEAED" fill-opacity="1.00" stroke="None">
<path d="
M 840.00 747.00 
C 833.07 748.72 824.64 747.71 817.00 748.00
C 804.36 748.48 807.27 760.83 817.00 761.00 C 826.73 761.17 838.32 762.07 846.77 759.77 C 855.22 757.47 858.42 750.13 860.00 743.00
C 860.92 734.06 860.32 723.96 860.00 715.00 C 859.68 706.04 861.78 695.74 860.00 687.00
C 855.85 675.02 845.89 684.39 848.00 694.00 C 850.11 703.61 846.91 715.57 848.00 725.00 C 849.09 734.43 849.60 744.62 840.00 747.00 Z"/>
</g>
<g fill="#84848B" fill-opacity="1.00" stroke="None">
<path d="
M 781.00 683.00 
C 778.96 683.69 772.04 683.69 770.00 683.00
C 772.90 684.52 778.05 684.55 781.00 683.00 Z"/>
</g>
<g fill="#8F8E93" fill-opacity="1.00" stroke="None">
<path d="
M 860.00 743.00 
C 861.80 734.89 861.37 723.93 861.00 715.00 C 860.63 706.07 862.77 695.00 860.00 687.00
C 861.78 695.74 859.68 706.04 860.00 715.00 C 860.32 723.96 860.92 734.06 860.00 743.00 Z"/>
</g>
<g fill="#E8E8EA" fill-opacity="1.00" stroke="None">
<path d="
M 776.00 703.00 
C 771.07 708.80 760.69 719.68 775.00 720.00 C 789.31 720.32 781.08 710.06 776.00 703.00 Z"/>
</g>
<g fill="#EBE9EC" fill-opacity="1.00" stroke="None">
<path d="
M 832.00 707.00 
C 824.55 703.75 813.63 709.99 806.00 707.00 C 798.37 704.01 791.78 715.06 799.33 718.67 C 806.88 722.28 817.46 715.85 825.00 719.00 C 832.54 722.15 839.30 710.19 832.00 707.00 Z"/>
</g>
<g fill="#808185" fill-opacity="1.00" stroke="None">
<path d="
M 740.00 742.00 
C 739.66 737.05 740.00 731.96 740.00 727.00
C 739.54 731.74 739.13 737.12 740.00 742.00 Z"/>
</g>
<g fill="#848489" fill-opacity="1.00" stroke="None">
<path d="
M 787.00 748.00 
C 779.09 745.08 768.70 748.47 760.00 747.00
C 768.13 749.47 778.33 746.08 787.00 748.00 Z"/>
</g>
<g fill="#7E7E84" fill-opacity="1.00" stroke="None">
<path d="
M 817.00 748.00 
C 824.64 747.71 833.07 748.72 840.00 747.00
C 832.48 747.93 823.98 747.00 817.00 748.00 Z"/>
</g>
<g fill="#919295" fill-opacity="1.00" stroke="None">
<path d="
M 898.00 785.00 
C 901.89 781.67 905.63 777.94 909.00 774.00
C 905.46 777.54 901.59 781.41 898.00 785.00 Z"/>
</g>
<g fill="#393A40" fill-opacity="1.00" stroke="None">
<path d="
M 808.00 955.00 
C 808.61 961.25 809.63 969.03 809.00 976.00
C 815.67 976.00 822.33 976.00 829.00 976.00
C 829.66 964.16 827.68 951.09 830.00 940.00
C 838.90 950.78 846.10 963.27 855.00 974.00
C 861.29 979.64 873.37 973.92 881.00 976.00
C 874.32 967.48 869.41 959.28 861.77 951.23 C 854.13 943.18 847.09 934.05 857.25 926.25 C 867.41 918.44 869.77 911.30 878.00 903.00
C 867.65 902.47 853.34 901.05 847.25 910.25 C 841.15 919.45 835.65 922.09 830.00 931.00
C 827.67 909.65 829.67 886.17 829.00 864.00
C 822.00 864.00 815.00 864.00 808.00 864.00
C 808.00 894.33 808.00 924.67 808.00 955.00 Z"/>
</g>
<g fill="#37393F" fill-opacity="1.00" stroke="None">
<path d="
M 905.00 868.00 
C 891.10 865.27 883.48 885.85 898.00 891.00 C 912.52 896.15 919.55 870.85 905.00 868.00 Z"/>
</g>
<g fill="#7B7C81" fill-opacity="1.00" stroke="None">
<path d="
M 498.00 870.00 
C 526.00 870.00 554.00 870.00 582.00 870.00
C 579.22 866.03 566.18 870.01 561.00 869.00 C 555.82 867.99 545.71 869.02 540.00 869.00 C 534.29 868.98 523.25 868.16 518.00 869.00 C 512.75 869.84 500.73 866.10 498.00 870.00 Z"/>
</g>
<g fill="#36383E" fill-opacity="1.00" stroke="None">
<path d="
M 529.00 976.00 
C 536.00 976.00 543.00 976.00 550.00 976.00
C 550.67 946.83 548.67 916.34 551.00 888.00
C 561.25 887.07 571.73 888.70 582.00 888.00
C 582.95 886.65 582.95 871.35 582.00 870.00
C 554.00 870.00 526.00 870.00 498.00 870.00
C 498.00 876.00 498.00 882.00 498.00 888.00
C 508.33 888.00 518.67 888.00 529.00 888.00
C 529.09 893.89 528.87 900.15 529.00 906.00 C 529.13 911.85 528.76 918.28 529.00 924.00 C 529.24 929.72 528.45 935.53 529.00 941.00 C 529.55 946.47 527.84 953.98 529.00 959.00 C 530.16 964.02 526.28 972.12 529.00 976.00 Z"/>
</g>
<g fill="#36373D" fill-opacity="1.00" stroke="None">
<path d="
M 1074.00 892.00 
C 1076.44 884.31 1078.07 872.40 1068.67 871.33 C 1059.27 870.26 1049.46 868.63 1041.08 871.08 C 1032.69 873.52 1028.90 877.07 1023.30 883.30 C 1017.70 889.53 1017.88 899.42 1019.00 907.00 C 1020.13 914.58 1024.38 920.00 1029.00 926.00
C 1013.31 934.96 1011.36 959.90 1026.25 970.75 C 1041.13 981.60 1062.30 980.04 1076.00 968.00
C 1080.72 971.57 1084.96 977.51 1091.00 979.00
C 1092.21 973.63 1099.76 971.38 1101.00 966.00
C 1095.77 962.00 1091.07 957.36 1086.00 953.00
C 1093.94 945.65 1084.85 925.17 1099.00 927.00
C 1098.27 920.73 1100.19 915.12 1100.00 909.00
C 1084.45 909.16 1069.42 907.28 1054.00 907.00
C 1053.02 911.03 1051.98 915.01 1051.00 919.00
C 1043.77 913.58 1031.85 901.67 1040.75 892.75 C 1049.66 883.84 1063.87 889.83 1074.00 892.00
M 1074.00 927.00 
C 1073.93 931.48 1072.90 935.71 1072.00 940.00
C 1067.35 936.15 1062.78 931.63 1059.00 927.00
C 1064.00 927.00 1069.00 927.00 1074.00 927.00
M 1060.00 956.00 
C 1050.10 964.84 1030.76 955.04 1037.78 942.78 C 1044.80 930.51 1054.87 951.67 1060.00 956.00 Z"/>
</g>
<g fill="#807F83" fill-opacity="1.00" stroke="None">
<path d="
M 529.00 976.00 
C 531.58 979.69 541.97 976.22 546.99 976.99 C 552.01 977.77 551.26 967.96 551.00 963.00 C 550.74 958.04 551.12 949.59 551.00 944.00 C 550.88 938.41 551.05 931.91 551.00 926.00 C 550.95 920.09 551.02 913.01 551.00 907.00 C 550.98 900.99 551.00 895.01 551.00 889.00
C 551.00 888.50 551.00 888.00 551.00 888.00
C 548.67 916.34 550.67 946.83 550.00 976.00
C 543.00 976.00 536.00 976.00 529.00 976.00 Z"/>
</g>
<g fill="#C2C1C6" fill-opacity="1.00" stroke="None">
<path d="
M 551.00 889.00 
C 555.23 889.38 563.06 889.44 567.00 889.00 C 570.94 888.56 579.88 891.03 582.00 888.00
C 571.73 888.70 561.25 887.07 551.00 888.00
C 551.00 888.00 551.00 888.50 551.00 889.00 Z"/>
</g>
<g fill="#83868A" fill-opacity="1.00" stroke="None">
<path d="
M 679.00 902.00 
C 682.28 901.87 685.72 901.82 689.00 902.00
C 685.64 901.45 682.40 901.51 679.00 902.00 Z"/>
</g>
<g fill="#37383E" fill-opacity="1.00" stroke="None">
<path d="
M 593.00 976.00 
C 599.67 976.00 606.33 976.00 613.00 976.00
C 614.06 963.03 611.48 946.86 613.22 934.22 C 614.96 921.59 630.53 919.31 640.00 922.00
C 640.00 915.33 640.00 908.67 640.00 902.00
C 628.06 899.61 617.53 906.20 612.00 916.00
C 612.00 911.67 612.00 907.33 612.00 903.00
C 605.67 903.00 599.33 903.00 593.00 903.00
C 593.22 909.04 592.71 916.06 593.00 922.00 C 593.29 927.94 592.41 934.35 593.00 940.00 C 593.59 945.65 591.72 952.86 593.00 958.00 C 594.28 963.14 590.17 971.96 593.00 976.00 Z"/>
</g>
<g fill="#37383E" fill-opacity="1.00" stroke="None">
<path d="
M 697.00 976.00 
C 703.33 976.00 709.67 976.00 716.00 976.00
C 719.15 971.50 714.43 960.51 716.00 955.00 C 717.58 949.49 715.11 940.71 716.00 935.00 C 716.89 929.29 715.43 922.43 713.30 917.70 C 711.18 912.96 708.10 910.19 704.08 906.92 C 700.07 903.65 694.15 902.28 689.00 902.00
C 685.72 901.82 682.28 901.87 679.00 902.00
C 669.56 901.99 661.27 906.16 653.00 910.00
C 653.47 915.32 658.84 918.89 660.00 924.00
C 670.92 917.58 697.29 911.55 696.00 932.00
C 676.71 926.25 644.36 935.55 648.22 959.78 C 652.08 984.00 684.76 982.27 697.00 967.00
C 698.06 969.26 695.59 973.99 697.00 976.00
M 696.00 945.00 
C 699.68 956.29 680.76 971.99 670.77 960.23 C 660.78 948.47 685.97 940.61 696.00 945.00 Z"/>
</g>
<g fill="#37383E" fill-opacity="1.00" stroke="None">
<path d="
M 731.00 937.00 
C 730.95 939.65 730.90 942.35 731.00 945.00
C 732.54 976.80 775.36 988.02 797.00 968.00
C 793.07 963.28 788.97 958.76 785.00 954.00
C 772.39 966.57 750.99 958.00 751.00 940.00 C 751.01 922.00 772.22 913.59 785.00 926.00
C 787.34 920.21 794.82 917.30 796.00 911.00
C 772.86 891.11 731.64 904.86 731.00 937.00 Z"/>
</g>
<g fill="#36373E" fill-opacity="1.00" stroke="None">
<path d="
M 955.00 910.00 
C 953.78 911.33 952.88 913.43 951.00 914.00
C 951.00 910.67 951.00 907.33 951.00 904.00
C 945.66 901.68 938.16 903.66 932.00 903.00
C 932.22 909.04 931.71 916.06 932.00 922.00 C 932.29 927.94 931.41 934.35 932.00 940.00 C 932.59 945.65 930.72 952.86 932.00 958.00 C 933.28 963.14 929.17 971.96 932.00 976.00
C 939.00 976.00 946.00 976.00 953.00 976.00
C 956.06 971.62 951.59 960.37 953.00 955.00 C 954.41 949.63 952.48 940.47 953.00 935.00 C 953.52 929.53 954.08 924.23 959.32 921.32 C 964.57 918.41 970.53 917.86 975.75 921.25 C 980.98 924.63 980.58 930.43 981.00 936.00 C 981.42 941.57 979.72 950.65 981.00 956.00 C 982.28 961.35 978.02 971.74 981.00 976.00
C 987.56 975.29 994.47 976.94 1001.00 976.00
C 1001.30 975.78 1001.95 975.35 1002.00 975.00
C 998.02 961.71 1001.00 942.41 1001.00 928.00
C 1001.00 904.25 971.47 892.01 955.00 910.00 Z"/>
</g>
<g fill="#8C8C90" fill-opacity="1.00" stroke="None">
<path d="
M 911.00 903.00 
C 911.04 903.00 911.00 904.00 911.00 904.00
C 911.00 928.00 911.00 952.00 911.00 976.00
C 904.67 976.00 898.33 976.00 892.00 976.00
C 892.00 952.00 892.00 928.00 892.00 904.00
C 892.00 903.50 892.00 903.00 892.00 903.00
C 889.20 913.29 892.29 922.57 891.00 934.00 C 889.71 945.43 893.07 953.58 891.00 966.00 C 888.93 978.42 900.92 978.56 912.00 977.00
C 911.41 969.25 912.79 959.56 912.00 952.00 C 911.21 944.44 913.51 933.84 912.00 927.00 C 910.49 920.16 915.70 907.52 911.00 903.00 Z"/>
</g>
<g fill="#55565B" fill-opacity="1.00" stroke="None">
<path d="
M 892.00 904.00 
C 897.99 904.54 905.01 904.54 911.00 904.00
C 911.00 904.00 911.04 903.00 911.00 903.00
C 905.01 902.46 897.99 902.45 892.00 903.00
C 892.00 903.00 892.00 903.50 892.00 904.00 Z"/>
</g>
<g fill="#34353C" fill-opacity="1.00" stroke="None">
<path d="
M 911.00 904.00 
C 905.01 904.54 897.99 904.54 892.00 904.00
C 892.00 928.00 892.00 952.00 892.00 976.00
C 898.33 976.00 904.67 976.00 911.00 976.00
C 911.00 952.00 911.00 928.00 911.00 904.00 Z"/>
</g>
<g fill="#9C9CA0" fill-opacity="1.00" stroke="None">
<path d="
M 955.00 910.00 
C 953.71 910.17 953.25 911.70 952.00 912.00
C 951.62 909.38 952.90 905.90 951.00 904.00
C 951.00 907.33 951.00 910.67 951.00 914.00
C 952.88 913.43 953.78 911.33 955.00 910.00 Z"/>
</g>
<g fill="#E5E3E8" fill-opacity="1.00" stroke="None">
<path d="
M 1074.00 927.00 
C 1069.00 927.00 1064.00 927.00 1059.00 927.00
C 1062.78 931.63 1067.35 936.15 1072.00 940.00
C 1072.90 935.71 1073.93 931.48 1074.00 927.00 Z"/>
</g>
<g fill="#838388" fill-opacity="1.00" stroke="None">
<path d="
M 1002.00 975.00 
C 1004.10 960.34 1002.36 942.01 1001.00 928.00
C 1001.00 942.41 998.02 961.71 1002.00 975.00 Z"/>
</g>
<g fill="#96969A" fill-opacity="1.00" stroke="None">
<path d="
M 731.00 945.00 
C 730.90 942.35 730.95 939.65 731.00 937.00
C 730.68 939.65 730.61 942.27 731.00 945.00 Z"/>
</g>
<g fill="#E4E1E6" fill-opacity="1.00" stroke="None">
<path d="
M 1060.00 956.00 
C 1054.87 951.67 1044.80 930.51 1037.78 942.78 C 1030.76 955.04 1050.10 964.84 1060.00 956.00 Z"/>
</g>
<g fill="#E9E8EB" fill-opacity="1.00" stroke="None">
<path d="
M 696.00 945.00 
C 685.97 940.61 660.78 948.47 670.77 960.23 C 680.76 971.99 699.68 956.29 696.00 945.00 Z"/>
</g>
<g fill="#96969B" fill-opacity="1.00" stroke="None">
<path d="
M 829.00 976.00 
C 822.33 976.00 815.67 976.00 809.00 976.00
C 809.63 969.03 808.61 961.25 808.00 955.00
C 808.00 959.28 806.77 973.26 808.78 976.22 C 810.79 979.19 827.91 977.56 829.00 976.00 Z"/>
</g>
<g fill="#949497" fill-opacity="1.00" stroke="None">
<path d="
M 881.00 976.00 
C 873.37 973.92 861.29 979.64 855.00 974.00
C 860.30 980.38 874.06 976.27 881.00 976.00 Z"/>
</g>
<g fill="#9D9EA1" fill-opacity="1.00" stroke="None">
<path d="
M 613.00 976.00 
C 606.33 976.00 599.67 976.00 593.00 976.00
C 594.43 978.04 611.52 978.11 613.00 976.00 Z"/>
</g>
<g fill="#98999C" fill-opacity="1.00" stroke="None">
<path d="
M 716.00 976.00 
C 709.67 976.00 703.33 976.00 697.00 976.00
C 698.41 978.01 714.54 978.08 716.00 976.00 Z"/>
</g>
<g fill="#949498" fill-opacity="1.00" stroke="None">
<path d="
M 953.00 976.00 
C 946.00 976.00 939.00 976.00 932.00 976.00
C 933.45 978.07 951.50 978.14 953.00 976.00 Z"/>
</g>
<g fill="#8C8D93" fill-opacity="1.00" stroke="None">
<path d="
M 1001.00 976.00 
C 994.47 976.94 987.56 975.29 981.00 976.00
C 982.78 978.54 998.71 977.69 1001.00 976.00 Z"/>
</g>
<g fill="#3B3A40" fill-opacity="1.00" stroke="None">
<path d="
M 466.00 1007.00 
C 439.89 1001.59 429.16 1039.25 455.00 1047.00 C 480.84 1054.75 491.89 1012.36 466.00 1007.00
M 463.00 1013.00 
C 479.85 1015.60 475.09 1044.21 458.00 1041.00 C 440.91 1037.79 446.12 1010.39 463.00 1013.00 Z"/>
</g>
<g fill="#C8C8CB" fill-opacity="1.00" stroke="None">
<path d="
M 788.00 1046.00 
C 788.00 1033.33 788.00 1020.67 788.00 1008.00
C 790.00 1008.00 792.00 1008.00 794.00 1008.00
C 794.48 1008.09 795.00 1008.00 795.00 1008.00
C 787.47 1000.16 784.76 1018.32 787.00 1023.00 C 789.24 1027.68 783.48 1042.83 788.00 1046.00 Z"/>
</g>
<g fill="#3C3C41" fill-opacity="1.00" stroke="None">
<path d="
M 951.00 1040.00 
C 944.81 1032.82 935.65 1046.69 928.25 1038.75 C 920.84 1030.81 922.68 1026.34 927.25 1017.25 C 931.81 1008.15 945.83 1020.61 948.74 1014.75 C 951.65 1008.88 935.77 1004.97 929.07 1008.07 C 922.38 1011.18 915.05 1018.13 916.00 1027.00 C 916.95 1035.86 919.71 1042.37 927.93 1046.07 C 936.14 1049.77 945.90 1046.46 951.00 1040.00 Z"/>
</g>
<g fill="#3B3A3F" fill-opacity="1.00" stroke="None">
<path d="
M 1193.00 1016.00 
C 1198.83 1005.97 1179.62 1003.07 1174.25 1011.25 C 1168.88 1019.42 1171.60 1027.90 1183.32 1030.68 C 1195.05 1033.46 1182.69 1048.63 1174.00 1037.00
C 1173.29 1039.32 1169.73 1040.26 1170.00 1043.00
C 1176.67 1047.64 1189.61 1050.17 1194.75 1041.75 C 1199.88 1033.32 1195.14 1025.63 1184.68 1023.32 C 1174.22 1021.02 1183.21 1006.24 1193.00 1016.00 Z"/>
</g>
<g fill="#37373C" fill-opacity="1.00" stroke="None">
<path d="
M 433.00 1008.00 
C 427.35 1008.15 420.54 1007.80 415.00 1008.00 C 409.46 1008.20 400.78 1005.71 403.00 1014.00
C 406.67 1014.00 410.33 1014.00 414.00 1014.00
C 413.99 1020.37 414.01 1027.73 414.00 1034.00 C 413.99 1040.27 412.06 1048.49 421.00 1046.00
C 421.00 1035.33 421.00 1024.67 421.00 1014.00
C 426.07 1013.60 435.56 1016.44 433.00 1008.00 Z"/>
</g>
<g fill="#3A3A3F" fill-opacity="1.00" stroke="None">
<path d="
M 520.00 1035.00 
C 510.45 1026.54 508.40 1006.09 493.00 1008.00
C 493.47 1014.71 492.38 1023.50 493.00 1030.00 C 493.62 1036.50 489.56 1047.82 499.00 1046.00
C 499.65 1036.49 497.69 1025.76 500.00 1017.00
C 508.79 1026.69 512.50 1047.23 528.00 1046.00
C 527.75 1038.88 528.34 1029.94 528.00 1023.00 C 527.66 1016.06 531.04 1005.57 521.00 1008.00
C 520.35 1016.84 522.31 1026.91 520.00 1035.00 Z"/>
</g>
<g fill="#38383D" fill-opacity="1.00" stroke="None">
<path d="
M 543.00 1035.00 
C 544.27 1036.72 547.28 1035.65 549.00 1036.00
C 552.66 1028.44 546.26 1016.01 549.00 1008.00
C 547.00 1008.00 545.00 1008.00 543.00 1008.00
C 543.00 1017.00 543.00 1026.00 543.00 1035.00 Z"/>
</g>
<g fill="#A4A2A5" fill-opacity="1.00" stroke="None">
<path d="
M 549.00 1036.00 
C 547.80 1038.48 546.11 1038.16 543.00 1038.00
C 543.00 1040.67 543.00 1043.33 543.00 1046.00
C 550.82 1048.92 550.96 1034.76 550.00 1030.00 C 549.04 1025.24 552.89 1010.60 549.00 1008.00
C 546.26 1016.01 552.66 1028.44 549.00 1036.00 Z"/>
</g>
<g fill="#808084" fill-opacity="1.00" stroke="None">
<path d="
M 564.00 1046.00 
C 564.00 1033.33 564.00 1020.67 564.00 1008.00
C 561.16 1009.99 562.99 1023.37 563.00 1027.00 C 563.01 1030.63 561.12 1043.98 564.00 1046.00 Z"/>
</g>
<g fill="#37383D" fill-opacity="1.00" stroke="None">
<path d="
M 564.00 1046.00 
C 572.67 1046.00 581.33 1046.00 590.00 1046.00
C 589.43 1044.69 590.75 1042.19 590.00 1041.00
C 584.81 1041.82 579.15 1039.91 574.00 1041.00 C 568.85 1042.09 568.42 1031.80 571.00 1030.00
C 576.85 1028.58 590.33 1034.18 588.00 1024.00
C 582.00 1024.00 576.00 1024.00 570.00 1024.00
C 570.00 1020.67 570.00 1017.33 570.00 1014.00
C 576.48 1012.13 591.90 1018.90 590.00 1008.00
C 586.22 1008.80 580.59 1006.94 577.00 1008.00 C 573.41 1009.06 566.91 1005.96 564.00 1008.00
C 564.00 1020.67 564.00 1033.33 564.00 1046.00 Z"/>
</g>
<g fill="#3B3B41" fill-opacity="1.00" stroke="None">
<path d="
M 613.00 1035.00 
C 606.49 1027.35 611.73 1006.77 598.00 1008.00
C 599.92 1015.28 601.82 1023.71 604.22 1030.78 C 606.63 1037.84 606.93 1048.66 617.00 1046.00
C 619.16 1036.77 622.01 1027.32 626.00 1019.00
C 631.78 1027.45 628.28 1047.21 642.00 1046.00
C 645.56 1033.29 650.18 1020.88 653.00 1008.00
C 639.79 1007.04 644.10 1027.19 638.00 1035.00
C 634.93 1026.10 631.70 1017.28 630.00 1008.00
C 615.27 1005.90 620.16 1027.19 613.00 1035.00 Z"/>
</g>
<g fill="#3A3A40" fill-opacity="1.00" stroke="None">
<path d="
M 677.00 1046.00 
C 691.53 1047.89 712.99 1045.64 713.00 1027.00 C 713.00 1008.37 691.48 1006.21 677.00 1008.00
C 677.00 1020.67 677.00 1033.33 677.00 1046.00
M 684.00 1040.00 
C 684.00 1031.33 684.00 1022.67 684.00 1014.00
C 693.52 1012.76 704.85 1015.90 705.00 1027.00 C 705.14 1038.11 693.72 1041.88 684.00 1040.00 Z"/>
</g>
<g fill="#3B3B41" fill-opacity="1.00" stroke="None">
<path d="
M 739.00 1038.00 
C 741.54 1037.75 744.33 1035.91 747.00 1038.00
C 749.35 1039.84 748.48 1044.27 751.00 1046.00
C 752.49 1046.61 756.18 1046.27 757.00 1045.00
C 754.29 1037.95 751.87 1030.37 748.31 1023.69 C 744.75 1017.02 744.75 1004.94 734.00 1008.00
C 730.50 1021.16 724.02 1033.32 719.00 1046.00
C 725.30 1047.89 728.19 1043.27 729.00 1038.00
C 732.33 1038.00 735.67 1038.00 739.00 1038.00
M 739.00 1016.00 
C 739.52 1021.33 743.15 1025.71 744.00 1031.00
C 740.33 1031.00 736.67 1031.00 733.00 1031.00
C 734.54 1026.03 735.48 1019.78 739.00 1016.00 Z"/>
</g>
<g fill="#37373D" fill-opacity="1.00" stroke="None">
<path d="
M 767.00 1046.00 
C 769.00 1046.00 771.00 1046.00 773.00 1046.00
C 773.00 1033.33 773.00 1020.67 773.00 1008.00
C 771.00 1008.00 769.00 1008.00 767.00 1008.00
C 768.16 1013.52 765.45 1021.75 767.00 1027.00 C 768.55 1032.25 764.03 1041.75 767.00 1046.00 Z"/>
</g>
<g fill="#838386" fill-opacity="1.00" stroke="None">
<path d="
M 767.00 1046.00 
C 768.38 1048.14 771.81 1046.48 774.00 1047.00
C 773.01 1041.65 775.33 1031.91 774.00 1027.00 C 772.67 1022.09 777.00 1010.67 773.00 1008.00
C 773.00 1020.67 773.00 1033.33 773.00 1046.00
C 771.00 1046.00 769.00 1046.00 767.00 1046.00 Z"/>
</g>
<g fill="#35353B" fill-opacity="1.00" stroke="None">
<path d="
M 788.00 1046.00 
C 796.00 1046.00 804.00 1046.00 812.00 1046.00
C 811.43 1044.69 812.75 1042.19 812.00 1041.00
C 806.00 1041.00 800.00 1041.00 794.00 1041.00
C 794.00 1030.00 794.00 1019.00 794.00 1008.00
C 792.00 1008.00 790.00 1008.00 788.00 1008.00
C 788.00 1020.67 788.00 1033.33 788.00 1046.00 Z"/>
</g>
<g fill="#848487" fill-opacity="1.00" stroke="None">
<path d="
M 812.00 1041.00 
C 807.33 1038.68 800.50 1040.65 795.00 1040.00
C 794.27 1029.40 795.97 1018.58 795.00 1008.00
C 795.00 1008.00 794.48 1008.09 794.00 1008.00
C 794.00 1019.00 794.00 1030.00 794.00 1041.00
C 800.00 1041.00 806.00 1041.00 812.00 1041.00 Z"/>
</g>
<g fill="#3C3B41" fill-opacity="1.00" stroke="None">
<path d="
M 832.00 1023.00 
C 824.16 1019.88 824.84 1004.14 813.00 1008.00
C 817.42 1014.19 819.27 1020.80 824.25 1026.75 C 829.22 1032.71 822.49 1048.50 834.00 1046.00
C 830.50 1030.39 842.27 1020.19 849.00 1008.00
C 846.00 1008.00 843.00 1008.00 840.00 1008.00
C 838.49 1013.49 834.10 1017.66 832.00 1023.00 Z"/>
</g>
<g fill="#3C3C42" fill-opacity="1.00" stroke="None">
<path d="
M 870.00 1046.00 
C 871.98 1045.30 875.13 1046.93 877.00 1046.00
C 878.50 1036.41 885.15 1038.69 893.00 1038.00 C 900.85 1037.31 899.97 1048.88 909.00 1046.00
C 905.51 1034.36 900.87 1030.82 897.77 1018.23 C 894.67 1005.64 883.69 1007.04 881.31 1019.31 C 878.92 1031.57 872.85 1034.62 870.00 1046.00
M 895.00 1031.00 
C 891.33 1031.00 887.67 1031.00 884.00 1031.00
C 885.12 1025.84 888.02 1021.25 889.00 1016.00
C 891.60 1020.41 894.31 1025.64 895.00 1031.00 Z"/>
</g>
<g fill="#323238" fill-opacity="1.00" stroke="None">
<path d="
M 974.00 1046.00 
C 974.83 1041.54 972.90 1034.17 974.00 1030.00 C 975.10 1025.83 971.53 1016.43 975.00 1014.00
C 979.96 1013.85 988.50 1015.96 986.00 1008.00
C 980.35 1008.15 973.54 1007.80 968.00 1008.00 C 962.46 1008.20 953.79 1005.71 956.00 1014.00
C 960.00 1014.00 964.00 1014.00 968.00 1014.00
C 968.00 1024.67 968.00 1035.33 968.00 1046.00
C 969.53 1045.30 972.62 1046.92 974.00 1046.00 Z"/>
</g>
<g fill="#8B8A8D" fill-opacity="1.00" stroke="None">
<path d="
M 996.00 1046.00 
C 996.00 1033.33 996.00 1020.67 996.00 1008.00
C 993.18 1009.89 994.99 1023.44 995.00 1027.00 C 995.01 1030.56 993.14 1044.09 996.00 1046.00 Z"/>
</g>
<g fill="#323238" fill-opacity="1.00" stroke="None">
<path d="
M 996.00 1046.00 
C 998.00 1046.00 1000.00 1046.00 1002.00 1046.00
C 1002.00 1033.33 1002.00 1020.67 1002.00 1008.00
C 1000.46 1008.70 997.38 1007.08 996.00 1008.00
C 996.00 1020.67 996.00 1033.33 996.00 1046.00 Z"/>
</g>
<g fill="#39393F" fill-opacity="1.00" stroke="None">
<path d="
M 1020.00 1008.00 
C 1017.00 1008.00 1014.00 1008.00 1011.00 1008.00
C 1014.37 1014.99 1016.90 1022.97 1020.03 1029.98 C 1023.15 1036.98 1023.13 1048.95 1034.00 1046.00
C 1038.93 1033.31 1043.59 1020.54 1049.00 1008.00
C 1034.00 1006.07 1038.01 1029.59 1029.00 1036.00
C 1027.33 1026.23 1021.63 1017.74 1020.00 1008.00 Z"/>
</g>
<g fill="#37393E" fill-opacity="1.00" stroke="None">
<path d="
M 1065.00 1008.00 
C 1054.39 1005.18 1058.01 1020.27 1058.00 1027.00 C 1057.99 1033.73 1054.45 1048.86 1065.00 1046.00
C 1065.00 1033.33 1065.00 1020.67 1065.00 1008.00 Z"/>
</g>
<g fill="#38383F" fill-opacity="1.00" stroke="None">
<path d="
M 1105.00 1008.00 
C 1099.10 1008.14 1091.76 1007.82 1086.00 1008.00 C 1080.24 1008.18 1071.95 1005.72 1074.00 1014.00
C 1078.00 1014.00 1082.00 1014.00 1086.00 1014.00
C 1085.99 1020.37 1086.01 1027.73 1086.00 1034.00 C 1085.99 1040.27 1084.06 1048.49 1093.00 1046.00
C 1093.00 1035.33 1093.00 1024.67 1093.00 1014.00
C 1098.07 1013.60 1107.56 1016.44 1105.00 1008.00 Z"/>
</g>
<g fill="#3B3B40" fill-opacity="1.00" stroke="None">
<path d="
M 1121.00 1008.00 
C 1110.39 1005.18 1114.01 1020.27 1114.00 1027.00 C 1113.99 1033.73 1110.45 1048.86 1121.00 1046.00
C 1121.00 1033.33 1121.00 1020.67 1121.00 1008.00 Z"/>
</g>
<g fill="#39383E" fill-opacity="1.00" stroke="None">
<path d="
M 1161.00 1008.00 
C 1152.34 1008.00 1143.66 1008.00 1135.00 1008.00
C 1135.00 1020.67 1135.00 1033.33 1135.00 1046.00
C 1142.97 1043.50 1161.66 1051.86 1161.00 1040.00
C 1154.33 1040.00 1147.67 1040.00 1141.00 1040.00
C 1142.84 1037.06 1141.68 1033.34 1142.00 1030.00
C 1147.85 1028.58 1161.33 1034.18 1159.00 1024.00
C 1153.33 1024.00 1147.67 1024.00 1142.00 1024.00
C 1142.00 1020.67 1142.00 1017.33 1142.00 1014.00
C 1148.26 1012.27 1163.06 1018.68 1161.00 1008.00 Z"/>
</g>
<g fill="#E9E7EA" fill-opacity="1.00" stroke="None">
<path d="
M 463.00 1013.00 
C 446.12 1010.39 440.91 1037.79 458.00 1041.00 C 475.09 1044.21 479.85 1015.60 463.00 1013.00 Z"/>
</g>
<g fill="#ECE9EC" fill-opacity="1.00" stroke="None">
<path d="
M 684.00 1040.00 
C 693.72 1041.88 705.14 1038.11 705.00 1027.00 C 704.85 1015.90 693.52 1012.76 684.00 1014.00
C 684.00 1022.67 684.00 1031.33 684.00 1040.00 Z"/>
</g>
<g fill="#868589" fill-opacity="1.00" stroke="None">
<path d="
M 974.00 1046.00 
C 977.47 1043.68 973.90 1034.11 975.00 1030.00 C 976.10 1025.89 974.17 1018.42 975.00 1014.00
C 971.53 1016.43 975.10 1025.83 974.00 1030.00 C 972.90 1034.17 974.83 1041.54 974.00 1046.00 Z"/>
</g>
<g fill="#E5E4E8" fill-opacity="1.00" stroke="None">
<path d="
M 739.00 1016.00 
C 735.48 1019.78 734.54 1026.03 733.00 1031.00
C 736.67 1031.00 740.33 1031.00 744.00 1031.00
C 743.15 1025.71 739.52 1021.33 739.00 1016.00 Z"/>
</g>
<g fill="#E4E4E8" fill-opacity="1.00" stroke="None">
<path d="
M 895.00 1031.00 
C 894.31 1025.64 891.60 1020.41 889.00 1016.00
C 888.02 1021.25 885.12 1025.84 884.00 1031.00
C 887.67 1031.00 891.33 1031.00 895.00 1031.00 Z"/>
</g>
<g fill="#88888B" fill-opacity="1.00" stroke="None">
<path d="
M 590.00 1041.00 
C 584.66 1038.68 577.16 1040.66 571.00 1040.00
C 571.00 1036.67 571.00 1033.33 571.00 1030.00
C 568.42 1031.80 568.85 1042.09 574.00 1041.00 C 579.15 1039.91 584.81 1041.82 590.00 1041.00 Z"/>
</g>
<g fill="#68676C" fill-opacity="1.00" stroke="None">
<path d="
M 543.00 1038.00 
C 546.11 1038.16 547.80 1038.48 549.00 1036.00
C 547.28 1035.65 544.27 1036.72 543.00 1035.00
C 543.00 1036.00 543.00 1037.00 543.00 1038.00 Z"/>
</g>
<g fill="#87878B" fill-opacity="1.00" stroke="None">
<path d="
M 739.00 1038.00 
C 740.86 1038.00 745.40 1037.14 747.00 1038.00
C 744.33 1035.91 741.54 1037.75 739.00 1038.00 Z"/>
</g>
<g fill="#979599" fill-opacity="1.00" stroke="None">
<path d="
M 751.00 1046.00 
C 754.07 1048.11 756.89 1047.33 757.00 1045.00
C 756.18 1046.27 752.49 1046.61 751.00 1046.00 Z"/>
</g>
<g fill="#86858D" fill-opacity="1.00" stroke="None">
<path d="
M 877.00 1046.00 
C 875.13 1046.93 871.98 1045.30 870.00 1046.00
C 871.41 1047.91 875.46 1047.20 877.00 1046.00 Z"/>
</g>
</svg>